<svg viewbox="0 0 100 100" width="24px" height="24px" xmlns="http://www.w3.org/2000/svg" fill="white">
    <path stroke="null" d="m20.96537,2.88165l-17.98112,0c-1.6025,0 -2.90637,1.46542 -2.90637,3.26647l0,11.62177c0,1.80105 1.30387,3.26647 2.90637,3.26647l17.98112,0c1.6025,0 2.90637,-1.46542 2.90637,-3.26647l0,-11.62142c0.00032,-1.80141 -1.30355,-3.26683 -2.90637,-3.26683l0,0zm-1.42016,2.131l-7.5704,5.48164l-7.5704,-5.48164l15.1408,0zm1.42016,13.89307l-17.98112,0c-0.55713,0 -1.01029,-0.50967 -1.01029,-1.13547l0,-11.56139l9.41591,6.805c0.01264,0.00888 0.02623,0.01491 0.03919,0.02308c0.01359,0.00852 0.02749,0.0167 0.0414,0.02451c0.073,0.04226 0.14821,0.07636 0.225,0.09873c0.0079,0.00249 0.0158,0.00356 0.0237,0.00568c0.08438,0.02238 0.1697,0.03623 0.25502,0.03623c0.00031,0 0.00063,0 0.00063,0c0.00063,0 0.00095,0 0.00126,0c0.08532,0 0.17065,-0.0135 0.25502,-0.03623c0.0079,-0.00213 0.0158,-0.0032 0.0237,-0.00568c0.07679,-0.02237 0.15169,-0.05647 0.225,-0.09873c0.01391,-0.00781 0.02781,-0.01598 0.0414,-0.02451c0.01296,-0.00817 0.02654,-0.01421 0.03919,-0.02308l9.41591,-6.805l0,11.56104c-0.00032,0.62616 -0.4538,1.13583 -1.01092,1.13583l0,0z" id="svg_2"/>
</svg>