<svg width="353" height="59" viewBox="0 0 353 59" fill="none" xmlns="http://www.w3.org/2000/svg">
<mask id="mask0_12_410" style="mask-type:alpha" maskUnits="userSpaceOnUse" x="0" y="0" width="353" height="59">
<rect width="353" height="59" fill="#D9D9D9"/>
</mask>
<g mask="url(#mask0_12_410)">
<path d="M103.782 17.9885H83.5922V17.1648H103.782V17.9885Z" fill="white"/>
<path d="M93.3163 11.7281L91.2973 11.8791V10.973C90.9539 11.4123 90.3359 11.8791 89.4569 11.8791C87.8911 11.8791 86.5451 10.5199 86.5451 8.77632C86.5451 7.00528 87.9873 5.65983 89.6079 5.65983C90.3496 5.65983 90.9402 6.01678 91.3385 6.51103V3.54555C91.3385 2.87283 91.2286 2.77673 90.2672 2.77673V2.35113L92.245 2.20011V10.5336C92.245 11.2064 92.3549 11.3025 93.3163 11.3025V11.7281ZM91.2973 10.108V7.29359C91.2973 7.04646 91.2973 7.019 91.1462 6.78561C90.7205 6.1678 90.1436 5.96187 89.6629 5.96187C88.9212 5.96187 88.3993 6.41493 88.1109 6.84053C87.7126 7.45833 87.6851 8.28208 87.6851 8.79005C87.6851 9.35294 87.7263 10.1355 88.0834 10.6984C88.413 11.2201 88.9075 11.5771 89.5255 11.5771C90.1161 11.5771 90.7342 11.275 91.1462 10.616C91.2973 10.3826 91.2973 10.3552 91.2973 10.108Z" fill="white"/>
<path d="M101.296 2.99641C101.296 3.51811 100.898 3.82015 100.541 3.82015C100.28 3.82015 100.033 3.6554 100.033 3.33963C100.033 3.1337 100.17 2.65318 100.774 2.59826C100.513 2.35114 100.156 2.35114 100.101 2.35114C99.8128 2.35114 99.5793 2.55708 99.4557 2.81793C99.3733 2.98268 99.181 3.95744 99.1261 4.24575C98.975 5.04204 98.9888 5.01458 98.8377 5.81086H99.9777C100.211 5.81086 100.348 5.81086 100.348 5.96188C100.348 6.23646 100.211 6.23646 99.9365 6.23646H98.7553L97.9312 10.5886C97.9174 10.6847 97.6015 12.3459 97.162 13.2108C96.9148 13.7325 96.3654 14.5425 95.61 14.5425C95.0469 14.5425 94.4426 14.213 94.4426 13.5952C94.4426 13.0735 94.8409 12.7715 95.198 12.7715C95.4589 12.7715 95.7062 12.9362 95.7062 13.252C95.7062 13.4579 95.5825 13.9522 94.9508 13.9934C95.2117 14.2405 95.5551 14.2405 95.61 14.2405C96.3242 14.2405 96.5577 12.9912 96.8049 11.6594L97.835 6.23646H96.9285C96.6676 6.23646 96.544 6.23646 96.544 6.07171C96.544 5.81086 96.6951 5.81086 96.956 5.81086H97.9037C98.2333 4.081 98.2746 3.94371 98.357 3.6554C98.769 2.29622 99.6343 2.0491 100.101 2.0491C100.664 2.0491 101.296 2.36487 101.296 2.99641Z" fill="white"/>
<path d="M90.3222 28.958C90.3222 29.1228 89.1685 30.5781 87.2044 30.5781C85.776 30.5781 84.9794 29.4935 84.9794 28.2579C84.9794 26.3221 86.8061 24.3588 88.6603 24.3588C89.6354 24.3588 90.281 24.8668 90.281 25.5395C90.281 26.0887 89.9101 26.4182 89.5118 26.4182C89.2509 26.4182 89.0036 26.2671 89.0036 25.9376C89.0036 25.8415 89.0311 25.6081 89.2509 25.4022C89.4432 25.21 89.6354 25.21 89.8552 25.21C89.6629 24.8393 89.141 24.6608 88.674 24.6608C87.9186 24.6608 87.1632 25.2512 86.7374 26.0337C86.2704 26.8849 85.9957 28.2167 85.9957 28.7796C85.9957 29.6033 86.3666 30.276 87.2319 30.276C87.3967 30.276 88.8938 30.276 89.9788 28.9168C90.0612 28.807 90.0887 28.7796 90.1574 28.7796C90.2398 28.7796 90.3222 28.8757 90.3222 28.958Z" fill="white"/>
<path d="M97.6015 30.427L95.5825 30.5781V29.6719C95.2392 30.1113 94.6211 30.5781 93.7421 30.5781C92.1763 30.5781 90.8303 29.2189 90.8303 27.4753C90.8303 25.7042 92.2725 24.3588 93.8932 24.3588C94.6348 24.3588 95.2254 24.7158 95.6237 25.21V22.2445C95.6237 21.5718 95.5139 21.4757 94.5524 21.4757V21.0501L96.5302 20.8991V29.2326C96.5302 29.9053 96.6401 30.0014 97.6015 30.0014V30.427ZM95.5825 28.807V25.9926C95.5825 25.7454 95.5825 25.718 95.4315 25.4846C95.0057 24.8668 94.4288 24.6608 93.9481 24.6608C93.2064 24.6608 92.6845 25.1139 92.3961 25.5395C91.9978 26.1573 91.9703 26.9811 91.9703 27.489C91.9703 28.0519 92.0115 28.8345 92.3686 29.3974C92.6982 29.9191 93.1927 30.276 93.8108 30.276C94.4013 30.276 95.0194 29.974 95.4315 29.315C95.5825 29.0816 95.5825 29.0541 95.5825 28.807Z" fill="white"/>
<path d="M102.532 24.6608C102.532 24.9354 102.395 24.9354 102.12 24.9354H100.829L99.8129 28.9855C99.7579 29.2189 99.7305 29.315 99.7305 29.6445C99.7305 30.0975 99.8678 30.276 100.156 30.276C100.623 30.276 101.351 29.9465 101.942 28.5187C102.01 28.3677 102.024 28.3265 102.148 28.3265C102.203 28.3265 102.313 28.3265 102.313 28.4638C102.313 28.5736 101.53 30.5781 100.129 30.5781C99.3871 30.5781 98.8652 30.0564 98.8652 29.315C98.8652 29.0679 98.9201 28.8345 99.909 24.9354H98.7004C98.4257 24.9354 98.3158 24.9354 98.3158 24.7707C98.3158 24.5098 98.4531 24.5098 98.7278 24.5098H100.019L100.555 22.3269C100.678 21.8464 101.063 21.8327 101.104 21.8327C101.337 21.8327 101.502 21.9699 101.502 22.2033C101.502 22.2857 101.434 22.5603 100.939 24.5098H102.148C102.395 24.5098 102.532 24.5098 102.532 24.6608Z" fill="white"/>
<path d="M118.396 17.5766C118.396 17.7276 118.272 17.8512 118.121 17.8512H114.097V21.8738C114.097 22.0248 113.973 22.1484 113.822 22.1484C113.671 22.1484 113.548 22.0248 113.548 21.8738V17.8512H109.523C109.372 17.8512 109.249 17.7276 109.249 17.5766C109.249 17.4256 109.372 17.302 109.523 17.302H113.548V13.2794C113.548 13.1284 113.671 13.0048 113.822 13.0048C113.973 13.0048 114.097 13.1284 114.097 13.2794V17.302H118.121C118.272 17.302 118.396 17.4256 118.396 17.5766Z" fill="white"/>
<path d="M130.07 19.0456C130.07 19.0456 129.892 19.9105 129.658 20.4048C129.439 20.8441 129.123 21.1599 128.642 21.1599C128.038 21.1599 127.53 20.7755 127.406 20.1577C127.076 20.5421 126.541 21.1599 125.579 21.1599C125.304 21.1599 124.686 21.105 124.247 20.7343C123.725 22.8486 123.546 23.5625 123.492 23.686C123.464 23.7272 123.299 23.9743 123.011 23.9743C122.777 23.9743 122.626 23.8096 122.626 23.6037C122.626 23.6037 122.626 23.5487 122.667 23.384L124.645 15.4349C124.769 14.9543 125.153 14.9406 125.195 14.9406C125.428 14.9406 125.593 15.0779 125.593 15.3113C125.593 15.3799 125.456 15.9016 125.387 16.19L124.81 18.4964C124.714 18.8809 124.618 19.2653 124.618 19.6634C124.618 20.4048 124.947 20.8578 125.634 20.8578C126.747 20.8578 127.406 19.6085 127.42 19.5398L127.777 18.1395L128.422 15.5722C128.532 15.1054 128.889 15.0916 128.958 15.0916C129.164 15.0916 129.356 15.2152 129.356 15.4623C129.356 15.5447 129.219 16.0664 129.15 16.3822C129.095 16.5881 128.958 17.1098 128.917 17.3157L128.532 18.7985C128.422 19.279 128.257 19.9243 128.257 20.2263C128.257 20.5009 128.299 20.8578 128.669 20.8578C129.233 20.8578 129.48 20.0478 129.713 19.1554C129.755 18.9632 129.768 18.9083 129.906 18.9083C129.947 18.9083 130.07 18.9083 130.07 19.0456Z" fill="white"/>
<path d="M149.423 17.9885H132.144V17.1647H149.423V17.9885Z" fill="white"/>
<path d="M140.042 5.45381C140.536 7.41707 140.248 12.03 136.979 12.03C135.056 12.03 134.067 10.4375 133.847 9.58626C133.738 9.16066 133.518 7.88385 134.369 6.74434C135.18 5.67348 136.018 5.45381 136.855 5.45381C137.927 5.45381 138.682 6.22264 139.025 7.07384C139.053 5.96179 138.957 5.2616 138.833 4.72617C138.38 2.95512 137.24 2.24121 136.237 2.24121C135.839 2.24121 134.891 2.32359 134.534 3.33954C134.754 3.33954 135.18 3.33954 135.303 3.82005C135.386 4.13582 135.194 4.54769 134.74 4.54769C134.328 4.54769 134.15 4.25938 134.108 4.06718C134.012 3.68276 134.191 1.89799 136.182 1.89799C137.872 1.89799 139.492 3.27089 140.042 5.45381ZM138.902 7.56809C138.833 7.29351 138.421 5.75585 136.924 5.75585C136.073 5.75585 135.509 6.19518 135.166 6.97774C134.809 7.80148 134.946 9.72355 135.029 10.0942C135.07 10.2315 135.427 11.6456 136.938 11.6456C139.053 11.6456 139.149 8.55658 138.902 7.56809Z" fill="white"/>
<path d="M148.599 2.99631C148.599 3.51802 148.2 3.82006 147.843 3.82006C147.582 3.82006 147.335 3.65531 147.335 3.33954C147.335 3.1336 147.472 2.65309 148.077 2.59817C147.816 2.35105 147.459 2.35105 147.404 2.35105C147.115 2.35105 146.882 2.55698 146.758 2.81784C146.676 2.98259 146.483 3.95735 146.429 4.24566C146.277 5.04194 146.291 5.01449 146.14 5.81077H147.28C147.514 5.81077 147.651 5.81077 147.651 5.96179C147.651 6.23637 147.514 6.23637 147.239 6.23637H146.058L145.234 10.5885C145.22 10.6846 144.904 12.3458 144.464 13.2107C144.217 13.7324 143.668 14.5424 142.912 14.5424C142.349 14.5424 141.745 14.213 141.745 13.5951C141.745 13.0734 142.143 12.7714 142.5 12.7714C142.761 12.7714 143.009 12.9362 143.009 13.2519C143.009 13.4579 142.885 13.9521 142.253 13.9933C142.514 14.2404 142.858 14.2404 142.912 14.2404C143.627 14.2404 143.86 12.9911 144.107 11.6593L145.137 6.23637H144.231C143.97 6.23637 143.846 6.23637 143.846 6.07162C143.846 5.81077 143.997 5.81077 144.258 5.81077H145.206C145.536 4.08091 145.577 3.94362 145.659 3.65531C146.071 2.29613 146.937 2.04901 147.404 2.04901C147.967 2.04901 148.599 2.36478 148.599 2.99631Z" fill="white"/>
<path d="M140.729 24.1528C141.223 26.1161 140.935 30.729 137.666 30.729C135.743 30.729 134.754 29.1365 134.534 28.2853C134.424 27.8597 134.205 26.5829 135.056 25.4433C135.867 24.3725 136.704 24.1528 137.542 24.1528C138.613 24.1528 139.369 24.9216 139.712 25.7728C139.74 24.6608 139.644 23.9606 139.52 23.4252C139.067 21.6541 137.927 20.9402 136.924 20.9402C136.526 20.9402 135.578 21.0226 135.221 22.0385C135.441 22.0385 135.867 22.0385 135.99 22.5191C136.073 22.8348 135.88 23.2467 135.427 23.2467C135.015 23.2467 134.836 22.9584 134.795 22.7662C134.699 22.3818 134.878 20.597 136.869 20.597C138.559 20.597 140.179 21.9699 140.729 24.1528ZM139.589 26.2671C139.52 25.9925 139.108 24.4549 137.611 24.4549C136.759 24.4549 136.196 24.8942 135.853 25.6767C135.496 26.5005 135.633 28.4226 135.715 28.7932C135.757 28.9305 136.114 30.3446 137.625 30.3446C139.74 30.3446 139.836 27.2556 139.589 26.2671Z" fill="white"/>
<path d="M147.692 25.2511C147.692 25.7454 147.308 26.0611 146.937 26.0611C146.566 26.0611 146.415 25.8003 146.415 25.5806C146.415 25.2237 146.717 24.8942 147.129 24.8255C147.129 24.8255 146.909 24.6608 146.552 24.6608C145.962 24.6608 145.563 25.0177 145.453 25.1138C145.124 25.4159 144.739 26.0611 144.684 26.2396L144.245 28.0244C144.19 28.2715 143.723 30.1387 143.695 30.1936C143.599 30.4682 143.352 30.578 143.187 30.578C142.981 30.578 142.789 30.4544 142.789 30.2073C142.789 30.1387 142.871 29.8229 142.912 29.617L143.709 26.4456C143.888 25.7316 143.929 25.5806 143.929 25.2923C143.929 24.7706 143.736 24.6608 143.503 24.6608C143.009 24.6608 142.734 25.3198 142.5 26.2945C142.418 26.5966 142.404 26.6103 142.267 26.6103C142.267 26.6103 142.102 26.6103 142.102 26.473C142.102 26.4318 142.281 25.6081 142.528 25.1413C142.651 24.8942 142.912 24.3587 143.544 24.3587C144.19 24.3587 144.684 24.7981 144.794 25.4159C145.055 25.0315 145.659 24.3587 146.552 24.3587C147.253 24.3587 147.692 24.7706 147.692 25.2511Z" fill="white"/>
<path d="M164.036 17.5766C164.036 17.7276 163.913 17.8512 163.762 17.8512H159.737V21.8738C159.737 22.0248 159.614 22.1484 159.463 22.1484C159.312 22.1484 159.188 22.0248 159.188 21.8738V17.8512H155.164C155.013 17.8512 154.889 17.7276 154.889 17.5766C154.889 17.4256 155.013 17.302 155.164 17.302H159.188V13.2794C159.188 13.1284 159.312 13.0048 159.463 13.0048C159.614 13.0048 159.737 13.1284 159.737 13.2794V17.302H163.762C163.913 17.302 164.036 17.4256 164.036 17.5766Z" fill="white"/>
<path d="M174.42 31.6214C174.42 31.8274 174.255 31.9921 174.049 31.9921H171.014V3.16111H174.049C174.255 3.16111 174.42 3.32586 174.42 3.53179C174.42 3.73773 174.255 3.90248 174.049 3.90248H171.755V31.2508H174.049C174.255 31.2508 174.42 31.4155 174.42 31.6214Z" fill="white"/>
<path d="M182.565 19.0456C182.565 19.0456 182.386 19.9106 182.152 20.4048C181.933 20.8441 181.617 21.1599 181.136 21.1599C180.532 21.1599 180.024 20.7755 179.9 20.1577C179.57 20.5421 179.035 21.1599 178.073 21.1599C177.799 21.1599 177.181 21.105 176.741 20.7343C176.219 22.8486 176.041 23.5625 175.986 23.6861C175.958 23.7272 175.793 23.9744 175.505 23.9744C175.271 23.9744 175.12 23.8096 175.12 23.6037C175.12 23.6037 175.12 23.5488 175.162 23.384L177.139 15.4349C177.263 14.9544 177.647 14.9406 177.689 14.9406C177.922 14.9406 178.087 15.0779 178.087 15.3113C178.087 15.38 177.95 15.9017 177.881 16.19L177.304 18.4965C177.208 18.8809 177.112 19.2653 177.112 19.6634C177.112 20.4048 177.441 20.8579 178.128 20.8579C179.241 20.8579 179.9 19.6085 179.914 19.5399L180.271 18.1395L180.916 15.5722C181.026 15.1054 181.383 15.0917 181.452 15.0917C181.658 15.0917 181.85 15.2152 181.85 15.4623C181.85 15.5447 181.713 16.0664 181.644 16.3822C181.589 16.5881 181.452 17.1098 181.411 17.3158L181.026 18.7985C180.916 19.279 180.752 19.9243 180.752 20.2263C180.752 20.5009 180.793 20.8579 181.164 20.8579C181.727 20.8579 181.974 20.0479 182.207 19.1555C182.249 18.9633 182.262 18.9083 182.4 18.9083C182.441 18.9083 182.565 18.9083 182.565 19.0456Z" fill="white"/>
<path d="M193.621 31.7176C193.621 31.8411 193.525 31.9372 193.401 31.9372C193.346 31.9372 193.305 31.9235 193.264 31.896C190.531 29.8367 188.031 24.4137 188.031 19.636V15.5173C188.031 10.7396 190.531 5.31659 193.264 3.25723C193.305 3.22977 193.346 3.21604 193.401 3.21604C193.525 3.21604 193.621 3.31214 193.621 3.4357C193.621 3.50435 193.58 3.57299 193.539 3.61418C190.929 5.56371 189.102 10.9592 189.102 15.5173V19.636C189.102 24.194 190.929 29.5896 193.539 31.5391C193.58 31.5803 193.621 31.6489 193.621 31.7176Z" fill="white"/>
<path d="M228.438 17.9885H196.025V17.1648H228.438V17.9885Z" fill="white"/>
<path d="M204.087 11.7281L202.068 11.8791V10.973C201.724 11.4123 201.106 11.8791 200.227 11.8791C198.662 11.8791 197.316 10.5199 197.316 8.77635C197.316 7.00531 198.758 5.65986 200.378 5.65986C201.12 5.65986 201.711 6.01681 202.109 6.51106V3.54558C202.109 2.87286 201.999 2.77676 201.038 2.77676V2.35116L203.015 2.20014V10.5337C203.015 11.2064 203.125 11.3025 204.087 11.3025V11.7281ZM202.068 10.1081V7.29362C202.068 7.04649 202.068 7.01903 201.917 6.78564C201.491 6.16783 200.914 5.9619 200.433 5.9619C199.692 5.9619 199.17 6.41496 198.881 6.84056C198.483 7.45836 198.456 8.28211 198.456 8.79008C198.456 9.35297 198.497 10.1355 198.854 10.6984C199.183 11.2201 199.678 11.5771 200.296 11.5771C200.887 11.5771 201.505 11.275 201.917 10.616C202.068 10.3827 202.068 10.3552 202.068 10.1081Z" fill="white"/>
<path d="M210.267 11.7281L208.743 11.6869L207.218 11.7281V11.3025C208.138 11.3025 208.29 11.3025 208.29 10.6847V3.54557C208.29 2.87285 208.18 2.77674 207.218 2.77674V2.35114L209.196 2.20012V10.6847C209.196 11.3025 209.347 11.3025 210.267 11.3025V11.7281Z" fill="white"/>
<path d="M217.931 11.7281L216.393 11.6869L214.841 11.7281V11.3025C215.761 11.3025 215.912 11.3025 215.912 10.6847V7.48581C215.912 6.70325 215.761 5.96188 214.896 5.96188C214.017 5.96188 213.042 6.73071 213.042 8.15853V10.6847C213.042 11.3025 213.193 11.3025 214.113 11.3025V11.7281L212.575 11.6869L211.023 11.7281V11.3025C211.943 11.3025 212.094 11.3025 212.094 10.6847V7.00529C212.094 6.33257 211.984 6.23647 211.023 6.23647V5.81086L212.959 5.65985V7.1014C213.344 6.25019 213.99 5.65985 214.992 5.65985C215.789 5.65985 216.242 5.93443 216.434 6.16782C216.86 6.66207 216.86 7.08767 216.86 8.26837V10.8906C216.874 11.3025 217.217 11.3025 217.931 11.3025V11.7281Z" fill="white"/>
<path d="M227.408 7.89772C227.408 9.94335 225.637 11.8791 224.03 11.8791C223.384 11.8791 222.945 11.5085 222.67 10.9593C222.299 12.442 221.859 14.2817 221.791 14.4053C221.763 14.4465 221.599 14.6936 221.31 14.6936C221.077 14.6936 220.926 14.5289 220.926 14.3229C220.926 14.3229 220.926 14.268 220.967 14.1033L222.313 8.70773C222.725 7.03279 224.167 5.65988 225.499 5.65988C226.502 5.65988 227.408 6.44244 227.408 7.89772ZM226.419 7.30737C226.419 6.36007 225.98 5.96192 225.472 5.96192C225.046 5.96192 224.359 6.26396 223.769 7.26618C223.466 7.81535 223.329 8.30959 222.945 9.84725C222.903 10.0257 222.835 10.3003 222.835 10.3552C222.835 10.4788 223.054 11.5771 224.016 11.5771C224.538 11.5771 225.197 11.1378 225.65 10.2728C226.021 9.60012 226.419 8.06247 226.419 7.30737Z" fill="white"/>
<path d="M208.866 28.958C208.866 29.1228 207.713 30.5781 205.749 30.5781C204.32 30.5781 203.524 29.4935 203.524 28.2579C203.524 26.3221 205.35 24.3588 207.205 24.3588C208.18 24.3588 208.825 24.8668 208.825 25.5395C208.825 26.0887 208.454 26.4182 208.056 26.4182C207.795 26.4182 207.548 26.2671 207.548 25.9376C207.548 25.8415 207.575 25.6081 207.795 25.4022C207.987 25.21 208.18 25.21 208.4 25.21C208.207 24.8393 207.685 24.6608 207.218 24.6608C206.463 24.6608 205.708 25.2512 205.282 26.0337C204.815 26.8849 204.54 28.2167 204.54 28.7796C204.54 29.6033 204.911 30.276 205.776 30.276C205.941 30.276 207.438 30.276 208.523 28.9168C208.606 28.807 208.633 28.7796 208.702 28.7796C208.784 28.7796 208.866 28.8757 208.866 28.958Z" fill="white"/>
<path d="M216.146 30.427L214.127 30.5781V29.6719C213.783 30.1113 213.165 30.5781 212.286 30.5781C210.721 30.5781 209.375 29.2189 209.375 27.4753C209.375 25.7042 210.817 24.3588 212.437 24.3588C213.179 24.3588 213.77 24.7158 214.168 25.21V22.2445C214.168 21.5718 214.058 21.4757 213.097 21.4757V21.0501L215.075 20.8991V29.2326C215.075 29.9053 215.184 30.0014 216.146 30.0014V30.427ZM214.127 28.807V25.9926C214.127 25.7454 214.127 25.718 213.976 25.4846C213.55 24.8668 212.973 24.6608 212.492 24.6608C211.751 24.6608 211.229 25.1139 210.94 25.5395C210.542 26.1573 210.515 26.9811 210.515 27.489C210.515 28.0519 210.556 28.8345 210.913 29.3974C211.243 29.9191 211.737 30.276 212.355 30.276C212.946 30.276 213.564 29.974 213.976 29.315C214.127 29.0816 214.127 29.0541 214.127 28.807Z" fill="white"/>
<path d="M221.077 24.6608C221.077 24.9354 220.939 24.9354 220.665 24.9354H219.374L218.357 28.9855C218.302 29.2189 218.275 29.315 218.275 29.6445C218.275 30.0975 218.412 30.276 218.701 30.276C219.168 30.276 219.895 29.9465 220.486 28.5187C220.555 28.3677 220.568 28.3265 220.692 28.3265C220.747 28.3265 220.857 28.3265 220.857 28.4638C220.857 28.5736 220.074 30.5781 218.673 30.5781C217.931 30.5781 217.409 30.0564 217.409 29.315C217.409 29.0679 217.464 28.8345 218.453 24.9354H217.245C216.97 24.9354 216.86 24.9354 216.86 24.7707C216.86 24.5098 216.997 24.5098 217.272 24.5098H218.563L219.099 22.3269C219.222 21.8464 219.607 21.8327 219.648 21.8327C219.882 21.8327 220.047 21.9699 220.047 22.2033C220.047 22.2857 219.978 22.5603 219.483 24.5098H220.692C220.939 24.5098 221.077 24.5098 221.077 24.6608Z" fill="white"/>
<path d="M243.052 17.5766C243.052 17.7277 242.928 17.8512 242.777 17.8512H238.753V21.8738C238.753 22.0248 238.63 22.1484 238.478 22.1484C238.327 22.1484 238.204 22.0248 238.204 21.8738V17.8512H234.179C234.028 17.8512 233.905 17.7277 233.905 17.5766C233.905 17.4256 234.028 17.3021 234.179 17.3021H238.204V13.2794C238.204 13.1284 238.327 13.0049 238.478 13.0049C238.63 13.0049 238.753 13.1284 238.753 13.2794V17.3021H242.777C242.928 17.3021 243.052 17.4256 243.052 17.5766Z" fill="white"/>
<path d="M263.695 17.9885H248.519V17.1648H263.695V17.9885Z" fill="white"/>
<path d="M255.619 9.38041C255.619 10.7808 254.369 12.0301 252.694 12.0301C251.197 12.0301 249.919 11.124 249.919 9.87466C249.919 9.27058 250.359 9.07837 250.689 9.07837C251.087 9.07837 251.458 9.35296 251.458 9.8472C251.458 10.3689 251.032 10.6709 250.551 10.6023C251.032 11.4123 252.062 11.6457 252.653 11.6457C253.257 11.6457 254.205 11.2476 254.205 9.38041C254.205 8.03497 253.696 7.10139 252.57 7.10139H251.966C251.732 7.10139 251.636 7.10139 251.636 6.95037C251.636 6.81308 251.732 6.79935 251.842 6.78562C251.938 6.78562 252.268 6.75816 252.378 6.74443C252.721 6.73071 253.188 6.68952 253.6 6.03052C253.957 5.42645 253.985 4.63016 253.985 4.46541C253.985 3.2298 253.229 2.92776 252.666 2.92776C252.172 2.92776 251.265 3.10623 250.84 3.77896C251.046 3.77896 251.691 3.77896 251.691 4.46541C251.691 4.86355 251.417 5.16559 250.991 5.16559C250.592 5.16559 250.29 4.90474 250.29 4.45168C250.29 3.40827 251.334 2.58453 252.721 2.58453C254.04 2.58453 255.249 3.35336 255.249 4.47914C255.249 5.56374 254.452 6.52477 253.326 6.89545C254.754 7.18376 255.619 8.25463 255.619 9.38041Z" fill="white"/>
<path d="M262.638 6.62089C262.638 7.3348 261.855 11.8791 259.548 11.8791C258.916 11.8791 257.707 11.6595 257.707 10.1767C257.707 9.58637 257.886 8.95483 258.49 7.36226C258.586 7.11514 258.723 6.74445 258.723 6.40123C258.723 5.9619 258.49 5.9619 258.38 5.9619C257.982 5.9619 257.391 6.27767 256.993 7.6643C256.924 7.88396 256.91 7.91142 256.773 7.91142C256.773 7.91142 256.608 7.91142 256.608 7.77413C256.608 7.65057 257.13 5.65986 258.421 5.65986C259.108 5.65986 259.548 6.16783 259.548 6.78564C259.548 7.04649 259.479 7.2387 259.383 7.47209C258.957 8.6116 258.586 9.61383 258.586 10.3827C258.586 11.0966 258.902 11.5771 259.602 11.5771C261.209 11.5771 262.047 8.43313 262.047 7.85651C262.047 7.36226 261.869 7.00531 261.58 6.73072C261.429 6.5797 261.36 6.49733 261.36 6.31885C261.36 6.01681 261.69 5.65986 262.033 5.65986C262.281 5.65986 262.638 5.87952 262.638 6.62089Z" fill="white"/>
<path d="M255.935 28.958C255.935 29.1228 254.782 30.5781 252.818 30.5781C251.389 30.5781 250.593 29.4935 250.593 28.2579C250.593 26.3221 252.419 24.3588 254.273 24.3588C255.249 24.3588 255.894 24.8668 255.894 25.5395C255.894 26.0887 255.523 26.4182 255.125 26.4182C254.864 26.4182 254.617 26.2671 254.617 25.9376C254.617 25.8415 254.644 25.6081 254.864 25.4022C255.056 25.21 255.249 25.21 255.468 25.21C255.276 24.8393 254.754 24.6608 254.287 24.6608C253.532 24.6608 252.776 25.2512 252.351 26.0337C251.884 26.8849 251.609 28.2167 251.609 28.7796C251.609 29.6033 251.98 30.276 252.845 30.276C253.01 30.276 254.507 30.276 255.592 28.9168C255.674 28.807 255.702 28.7796 255.771 28.7796C255.853 28.7796 255.935 28.8757 255.935 28.958Z" fill="white"/>
<path d="M261.965 25.2512C261.965 25.7454 261.58 26.0612 261.209 26.0612C260.839 26.0612 260.688 25.8004 260.688 25.5807C260.688 25.2237 260.99 24.8942 261.402 24.8256C261.402 24.8256 261.182 24.6608 260.825 24.6608C260.234 24.6608 259.836 25.0178 259.726 25.1139C259.397 25.4159 259.012 26.0612 258.957 26.2397L258.517 28.0245C258.463 28.2716 257.996 30.1387 257.968 30.1937C257.872 30.4682 257.625 30.5781 257.46 30.5781C257.254 30.5781 257.062 30.4545 257.062 30.2074C257.062 30.1387 257.144 29.823 257.185 29.617L257.982 26.4456C258.16 25.7317 258.202 25.5807 258.202 25.2924C258.202 24.7707 258.009 24.6608 257.776 24.6608C257.281 24.6608 257.007 25.3198 256.773 26.2946C256.691 26.5966 256.677 26.6104 256.54 26.6104C256.54 26.6104 256.375 26.6104 256.375 26.4731C256.375 26.4319 256.553 25.6081 256.801 25.1414C256.924 24.8942 257.185 24.3588 257.817 24.3588C258.463 24.3588 258.957 24.7981 259.067 25.4159C259.328 25.0315 259.932 24.3588 260.825 24.3588C261.525 24.3588 261.965 24.7707 261.965 25.2512Z" fill="white"/>
<path d="M271.689 19.636C271.689 24.4137 269.189 29.8367 266.442 31.896C266.415 31.9235 266.36 31.9372 266.319 31.9372C266.195 31.9372 266.099 31.8411 266.099 31.7176C266.099 31.6489 266.126 31.5803 266.181 31.5391C268.791 29.5896 270.618 24.194 270.618 19.636V15.5173C270.618 10.9592 268.791 5.56371 266.181 3.61418C266.126 3.57299 266.099 3.50435 266.099 3.4357C266.099 3.31214 266.195 3.21604 266.319 3.21604C266.36 3.21604 266.415 3.22977 266.442 3.25723C269.189 5.31659 271.689 10.7396 271.689 15.5173V19.636Z" fill="white"/>
<path d="M287.429 17.5766C287.429 17.7277 287.305 17.8512 287.154 17.8512H283.13V21.8738C283.13 22.0248 283.006 22.1484 282.855 22.1484C282.704 22.1484 282.581 22.0248 282.581 21.8738V17.8512H278.556C278.405 17.8512 278.282 17.7277 278.282 17.5766C278.282 17.4256 278.405 17.3021 278.556 17.3021H282.581V13.2794C282.581 13.1284 282.704 13.0049 282.855 13.0049C283.006 13.0049 283.13 13.1284 283.13 13.2794V17.3021H287.154C287.305 17.3021 287.429 17.4256 287.429 17.5766Z" fill="white"/>
<path d="M301.411 17.9885H292.895V17.1647H301.411V17.9885Z" fill="white"/>
<path d="M299.474 11.728C298.994 11.6868 297.799 11.6868 297.249 11.6868C296.7 11.6868 295.505 11.6868 295.024 11.728V11.3024H295.464C296.7 11.3024 296.741 11.1376 296.741 10.6434V3.53175C296.027 3.88871 295.217 3.88871 294.942 3.88871V3.4631C295.381 3.4631 296.59 3.4631 297.442 2.58445C297.758 2.58445 297.758 2.6119 297.758 2.9414V10.6434C297.758 11.1514 297.799 11.3024 299.035 11.3024H299.474V11.728Z" fill="white"/>
<path d="M300.037 25.2511C300.037 25.7454 299.653 26.0611 299.282 26.0611C298.911 26.0611 298.76 25.8003 298.76 25.5806C298.76 25.2237 299.062 24.8942 299.474 24.8255C299.474 24.8255 299.255 24.6608 298.897 24.6608C298.307 24.6608 297.909 25.0177 297.799 25.1138C297.469 25.4159 297.084 26.0611 297.03 26.2396L296.59 28.0244C296.535 28.2715 296.068 30.1387 296.041 30.1936C295.944 30.4682 295.697 30.578 295.532 30.578C295.326 30.578 295.134 30.4544 295.134 30.2073C295.134 30.1387 295.217 29.8229 295.258 29.617L296.054 26.4456C296.233 25.7316 296.274 25.5806 296.274 25.2923C296.274 24.7706 296.082 24.6608 295.848 24.6608C295.354 24.6608 295.079 25.3198 294.846 26.2945C294.763 26.5966 294.75 26.6103 294.612 26.6103C294.612 26.6103 294.447 26.6103 294.447 26.473C294.447 26.4318 294.626 25.6081 294.873 25.1413C294.997 24.8942 295.258 24.3587 295.89 24.3587C296.535 24.3587 297.03 24.7981 297.139 25.4159C297.4 25.0315 298.005 24.3587 298.897 24.3587C299.598 24.3587 300.037 24.7706 300.037 25.2511Z" fill="white"/>
<path d="M306.754 31.9921H303.718C303.512 31.9921 303.348 31.8274 303.348 31.6214C303.348 31.4155 303.512 31.2508 303.718 31.2508H306.012V3.90248H303.718C303.512 3.90248 303.348 3.73773 303.348 3.53179C303.348 3.32586 303.512 3.16111 303.718 3.16111H306.754V31.9921Z" fill="white"/>
<path d="M317.645 25.6218C317.645 25.7042 317.577 25.7728 317.494 25.7728C317.453 25.7728 317.426 25.7591 317.398 25.7454C315.654 24.4274 314.019 21.2148 314.019 18.4552V16.6979C314.019 13.9384 315.654 10.7258 317.398 9.40779C317.426 9.39406 317.453 9.38033 317.494 9.38033C317.577 9.38033 317.645 9.44898 317.645 9.53135C317.645 9.58627 317.618 9.62746 317.59 9.65491C315.942 10.8905 314.816 14.1031 314.816 16.6979V18.4552C314.816 21.05 315.942 24.2626 317.59 25.4982C317.618 25.5257 317.645 25.5669 317.645 25.6218Z" fill="white"/>
<path d="M324.265 21.0088C323.785 20.9676 322.59 20.9676 322.04 20.9676C321.491 20.9676 320.296 20.9676 319.815 21.0088V20.5832H320.255C321.491 20.5832 321.532 20.4185 321.532 19.9242V12.8126C320.818 13.1695 320.008 13.1695 319.733 13.1695V12.7439C320.173 12.7439 321.381 12.7439 322.233 11.8653C322.549 11.8653 322.549 11.8927 322.549 12.2222V19.9242C322.549 20.4322 322.59 20.5832 323.826 20.5832H324.265V21.0088Z" fill="white"/>
<path d="M338.344 17.5766C338.344 17.7276 338.22 17.8511 338.069 17.8511H329.471C329.32 17.8511 329.196 17.7276 329.196 17.5766C329.196 17.4255 329.32 17.302 329.471 17.302H338.069C338.22 17.302 338.344 17.4255 338.344 17.5766Z" fill="white"/>
<path d="M350.018 19.0456C350.018 19.0456 349.84 19.9105 349.606 20.4048C349.386 20.8441 349.07 21.1599 348.59 21.1599C347.985 21.1599 347.477 20.7755 347.354 20.1577C347.024 20.5421 346.488 21.1599 345.527 21.1599C345.252 21.1599 344.634 21.105 344.195 20.7343C343.673 22.8486 343.494 23.5625 343.439 23.686C343.412 23.7272 343.247 23.9743 342.958 23.9743C342.725 23.9743 342.574 23.8096 342.574 23.6037C342.574 23.6037 342.574 23.5487 342.615 23.384L344.593 15.4349C344.716 14.9543 345.101 14.9406 345.142 14.9406C345.376 14.9406 345.541 15.0779 345.541 15.3113C345.541 15.3799 345.403 15.9016 345.335 16.19L344.758 18.4964C344.662 18.8809 344.565 19.2653 344.565 19.6634C344.565 20.4048 344.895 20.8578 345.582 20.8578C346.694 20.8578 347.354 19.6085 347.367 19.5398L347.724 18.1395L348.37 15.5722C348.48 15.1054 348.837 15.0916 348.906 15.0916C349.112 15.0916 349.304 15.2152 349.304 15.4623C349.304 15.5447 349.167 16.0664 349.098 16.3822C349.043 16.5881 348.906 17.1098 348.864 17.3157L348.48 18.7985C348.37 19.279 348.205 19.9243 348.205 20.2263C348.205 20.5009 348.246 20.8578 348.617 20.8578C349.18 20.8578 349.427 20.0478 349.661 19.1554C349.702 18.9632 349.716 18.9083 349.853 18.9083C349.894 18.9083 350.018 18.9083 350.018 19.0456Z" fill="white"/>
<path d="M354.804 13.6636L354.532 15.3525H350.929C350.929 15.1195 350.929 15.1001 351.036 14.9933L352.901 12.9162C353.435 12.3144 353.92 11.5476 353.92 10.771C353.92 9.97511 353.503 9.18889 352.619 9.18889C352.056 9.18889 351.531 9.54803 351.308 10.1789C351.337 10.1692 351.357 10.1692 351.434 10.1692C351.774 10.1692 351.949 10.4216 351.949 10.674C351.949 11.0719 351.609 11.1884 351.444 11.1884C351.415 11.1884 350.929 11.1884 350.929 10.6449C350.929 9.78098 351.648 8.88799 352.745 8.88799C353.93 8.88799 354.804 9.6645 354.804 10.771C354.804 11.7417 354.221 12.2658 352.706 13.6053L351.677 14.6051H353.425C353.639 14.6051 354.28 14.6051 354.348 14.5274C354.445 14.3818 354.513 13.9548 354.561 13.6636H354.804Z" fill="white"/>
<path d="M119.151 53.4781C119.151 53.6291 119.028 53.7527 118.877 53.7527H110.279C110.128 53.7527 110.004 53.6291 110.004 53.4781C110.004 53.3271 110.128 53.2035 110.279 53.2035H118.877C119.028 53.2035 119.151 53.3271 119.151 53.4781ZM119.151 56.1416C119.151 56.2926 119.028 56.4161 118.877 56.4161H110.279C110.128 56.4161 110.004 56.2926 110.004 56.1416C110.004 55.9905 110.128 55.867 110.279 55.867H118.877C119.028 55.867 119.151 55.9905 119.151 56.1416Z" fill="white"/>
<path d="M129.191 49.6614C129.191 50.0321 128.821 50.389 128.45 50.389C128.134 50.389 127.942 50.1694 127.942 49.8948C127.942 49.4829 128.354 49.1672 128.669 49.1672C128.999 49.1672 129.191 49.4005 129.191 49.6614ZM128.683 53.4369C128.683 53.4781 128.683 53.6703 128.615 53.9449L127.351 58.9697C127.008 60.3289 125.73 61.0565 124.769 61.0565C124.11 61.0565 123.56 60.7545 123.56 60.2053C123.56 59.7111 123.958 59.4228 124.302 59.4228C124.673 59.4228 124.824 59.6836 124.824 59.9033C124.824 60.1779 124.618 60.5348 124.206 60.6309C124.453 60.7545 124.659 60.7545 124.741 60.7545C125.511 60.7545 126.17 59.9719 126.431 58.9285L127.722 53.8076C127.777 53.5742 127.818 53.4232 127.818 53.1074C127.818 52.5308 127.571 52.4759 127.378 52.4759C126.623 52.4759 125.991 53.3133 125.648 54.1508C125.538 54.4117 125.524 54.4254 125.401 54.4254C125.401 54.4254 125.236 54.4254 125.236 54.2881C125.236 54.1645 126.019 52.1738 127.42 52.1738C128.106 52.1738 128.683 52.6543 128.683 53.4369Z" fill="white"/>
<path d="M136.251 61.5096C136.251 61.5783 136.182 61.6469 136.114 61.6469C136.086 61.6469 136.059 61.6332 136.031 61.6195C134.521 60.4799 133.078 57.7341 133.078 55.3865V54.2332C133.078 51.8856 134.521 49.1397 136.031 48.0002C136.059 47.9865 136.086 47.9728 136.114 47.9728C136.182 47.9728 136.251 48.0414 136.251 48.1101C136.251 48.1512 136.224 48.1924 136.196 48.2199C134.768 49.2908 133.82 52.0366 133.82 54.2332V55.3865C133.82 57.5831 134.768 60.3289 136.196 61.3998C136.224 61.4272 136.251 61.4684 136.251 61.5096Z" fill="white"/>
<path d="M142.789 58.2421C142.308 58.2009 141.113 58.2009 140.564 58.2009C140.014 58.2009 138.819 58.2009 138.339 58.2421V57.8165H138.778C140.014 57.8165 140.056 57.6518 140.056 57.1575V50.0459C139.341 50.4028 138.531 50.4028 138.256 50.4028V49.9772C138.696 49.9772 139.905 49.9772 140.756 49.0986C141.072 49.0986 141.072 49.126 141.072 49.4555V57.1575C141.072 57.6655 141.113 57.8165 142.349 57.8165H142.789V58.2421Z" fill="white"/>
<path d="M156.867 54.8099C156.867 54.9609 156.743 55.0845 156.592 55.0845H147.994C147.843 55.0845 147.72 54.9609 147.72 54.8099C147.72 54.6589 147.843 54.5353 147.994 54.5353H156.592C156.743 54.5353 156.867 54.6589 156.867 54.8099Z" fill="white"/>
<path d="M168.267 49.5104C168.267 50.0321 167.868 50.3342 167.511 50.3342C167.25 50.3342 167.003 50.1694 167.003 49.8537C167.003 49.6477 167.14 49.1672 167.745 49.1123C167.484 48.8652 167.127 48.8652 167.072 48.8652C166.783 48.8652 166.55 49.0711 166.426 49.332C166.344 49.4967 166.152 50.4715 166.097 50.7598C165.946 51.5561 165.959 51.5286 165.808 52.3249H166.948C167.182 52.3249 167.319 52.3249 167.319 52.4759C167.319 52.7505 167.182 52.7505 166.907 52.7505H165.726L164.902 57.1026C164.888 57.1987 164.572 58.8599 164.133 59.7249C163.885 60.2466 163.336 61.0566 162.581 61.0566C162.017 61.0566 161.413 60.7271 161.413 60.1093C161.413 59.5876 161.811 59.2855 162.168 59.2855C162.429 59.2855 162.677 59.4503 162.677 59.766C162.677 59.972 162.553 60.4662 161.921 60.5074C162.182 60.7545 162.526 60.7545 162.581 60.7545C163.295 60.7545 163.528 59.5052 163.775 58.1735L164.806 52.7505H163.899C163.638 52.7505 163.514 52.7505 163.514 52.5858C163.514 52.3249 163.666 52.3249 163.927 52.3249H164.874C165.204 50.595 165.245 50.4577 165.327 50.1694C165.74 48.8103 166.605 48.5631 167.072 48.5631C167.635 48.5631 168.267 48.8789 168.267 49.5104Z" fill="white"/>
<path d="M172.222 55.3865C172.222 57.7341 170.78 60.4799 169.269 61.6195C169.242 61.6332 169.214 61.6469 169.187 61.6469C169.118 61.6469 169.05 61.5783 169.05 61.5096C169.05 61.4684 169.077 61.4272 169.105 61.3998C170.533 60.3289 171.481 57.5831 171.481 55.3865V54.2332C171.481 52.0366 170.533 49.2908 169.105 48.2199C169.077 48.1924 169.05 48.1512 169.05 48.1101C169.05 48.0414 169.118 47.9728 169.187 47.9728C169.214 47.9728 169.242 47.9865 169.269 48.0002C170.78 49.1397 172.222 51.8856 172.222 54.2332V55.3865Z" fill="white"/>
<path d="M186.575 54.8098C186.575 54.9609 186.451 55.0844 186.3 55.0844H177.702C177.551 55.0844 177.428 54.9609 177.428 54.8098C177.428 54.6588 177.551 54.5352 177.702 54.5352H186.3C186.451 54.5352 186.575 54.6588 186.575 54.8098Z" fill="white"/>
<path d="M198.565 52.4896C198.565 52.5308 198.565 52.5582 198.414 52.7093L195.145 56.3749C195.448 57.432 196.382 60.7545 197.082 60.7545C197.343 60.7545 197.686 60.5348 197.81 60.2053C197.851 60.068 197.865 60.0131 198.002 60.0131C198.14 60.0131 198.167 60.0955 198.167 60.1641C198.167 60.3426 197.796 61.0565 197 61.0565C195.777 61.0565 195.475 60.3701 195.297 59.9582C194.967 59.1894 194.802 58.6539 194.363 57.2261L191.217 60.7545C191.162 60.8094 191.094 60.9055 190.998 60.9055C190.915 60.9055 190.833 60.8231 190.833 60.7408C190.833 60.6996 190.833 60.6721 190.984 60.5211L194.143 56.9927C194.253 56.8829 194.253 56.8417 194.253 56.8417C194.253 56.8005 193.813 55.2079 193.374 54.1233C193.14 53.5193 192.728 52.4759 192.316 52.4759C192.234 52.4759 191.794 52.5308 191.588 53.0662C191.561 53.1349 191.533 53.2172 191.41 53.2172C191.245 53.2172 191.245 53.0799 191.245 53.0799C191.245 52.8877 191.602 52.1738 192.399 52.1738C193.607 52.1738 193.909 52.8603 194.06 53.176C194.376 53.9037 194.486 54.2469 195.036 55.9905L198.181 52.4896C198.263 52.3935 198.318 52.3248 198.401 52.3248C198.51 52.3248 198.565 52.4072 198.565 52.4896Z" fill="white"/>
<path d="M206.587 49.5104C206.587 50.0321 206.188 50.3341 205.831 50.3341C205.57 50.3341 205.323 50.1694 205.323 49.8536C205.323 49.6477 205.46 49.1672 206.065 49.1122C205.804 48.8651 205.447 48.8651 205.392 48.8651C205.103 48.8651 204.87 49.0711 204.746 49.3319C204.664 49.4967 204.471 50.4714 204.416 50.7597C204.265 51.556 204.279 51.5286 204.128 52.3248H205.268C205.501 52.3248 205.639 52.3248 205.639 52.4759C205.639 52.7504 205.501 52.7504 205.227 52.7504H204.046L203.222 57.1026C203.208 57.1987 202.892 58.8599 202.452 59.7248C202.205 60.2465 201.656 61.0565 200.9 61.0565C200.337 61.0565 199.733 60.727 199.733 60.1092C199.733 59.5875 200.131 59.2855 200.488 59.2855C200.749 59.2855 200.997 59.4502 200.997 59.766C200.997 59.9719 200.873 60.4662 200.241 60.5074C200.502 60.7545 200.845 60.7545 200.9 60.7545C201.615 60.7545 201.848 59.5051 202.095 58.1734L203.125 52.7504H202.219C201.958 52.7504 201.834 52.7504 201.834 52.5857C201.834 52.3248 201.985 52.3248 202.246 52.3248H203.194C203.524 50.595 203.565 50.4577 203.647 50.1694C204.059 48.8102 204.925 48.5631 205.392 48.5631C205.955 48.5631 206.587 48.8788 206.587 49.5104Z" fill="white"/>
<path d="M219.552 54.8098C219.552 54.9608 219.428 55.0844 219.277 55.0844H215.253V59.107C215.253 59.258 215.13 59.3816 214.978 59.3816C214.827 59.3816 214.704 59.258 214.704 59.107V55.0844H210.679C210.528 55.0844 210.405 54.9608 210.405 54.8098C210.405 54.6588 210.528 54.5352 210.679 54.5352H214.704V50.5126C214.704 50.3616 214.827 50.238 214.978 50.238C215.13 50.238 215.253 50.3616 215.253 50.5126V54.5352H219.277C219.428 54.5352 219.552 54.6588 219.552 54.8098Z" fill="white"/>
<path d="M263.38 55.2217H225.019V54.3979H263.38V55.2217Z" fill="white"/>
<path d="M246.266 39.9962L245.991 42.3713C245.964 42.6321 245.95 42.7145 245.799 42.7145C245.676 42.7145 245.634 42.6184 245.634 42.5498C245.634 42.4811 245.648 42.385 245.648 42.3027C245.703 41.932 245.703 41.9045 245.703 41.575C245.703 40.4492 245.291 40.0511 243.615 40.0511H241.679C241.074 40.0511 241.061 40.106 240.937 40.5865L240.113 43.8952H241.404C242.668 43.8952 242.915 43.5795 243.203 42.536C243.245 42.3713 243.272 42.2889 243.396 42.2889C243.492 42.2889 243.56 42.3576 243.56 42.4399L242.778 45.6525C242.723 45.8585 242.681 45.9271 242.572 45.9271C242.448 45.9271 242.393 45.8447 242.393 45.7761C242.393 45.7349 242.407 45.6937 242.434 45.6251C242.53 45.2132 242.53 45.0485 242.53 44.9524C242.53 44.6091 242.53 44.3208 241.363 44.3208H240.003L239.069 48.0689C239 48.316 239 48.3434 239 48.3846C239 48.4945 239.042 48.5082 239.179 48.5219C239.261 48.5356 239.289 48.5356 239.481 48.5356H241.486C243.835 48.5356 244.343 47.6158 245.236 45.5839C245.264 45.5015 245.291 45.4191 245.415 45.4191C245.579 45.4191 245.579 45.5702 245.579 45.5702C245.579 45.5702 245.538 45.6937 245.511 45.7624L244.247 48.7278C244.151 48.9475 244.137 48.9612 243.821 48.9612H236.693C236.432 48.9612 236.308 48.9612 236.308 48.7965C236.308 48.5356 236.46 48.5356 236.693 48.5356C237.778 48.5356 237.806 48.4258 237.943 47.8904L239.756 40.6277C239.825 40.3806 239.825 40.3531 239.825 40.2982C239.825 40.0511 239.44 40.0511 238.932 40.0511C238.671 40.0511 238.547 40.0511 238.547 39.9001C238.547 39.6255 238.685 39.6255 238.959 39.6255H245.895C246.239 39.6255 246.307 39.6255 246.266 39.9962Z" fill="white"/>
<path d="M250.722 42.3024L250.45 43.9913H246.848C246.848 43.7584 246.848 43.739 246.955 43.6322L248.819 41.555C249.353 40.9532 249.839 40.1864 249.839 39.4099C249.839 38.614 249.421 37.8277 248.537 37.8277C247.974 37.8277 247.45 38.1869 247.226 38.8178C247.256 38.8081 247.275 38.8081 247.353 38.8081C247.693 38.8081 247.867 39.0605 247.867 39.3128C247.867 39.7108 247.528 39.8273 247.362 39.8273C247.333 39.8273 246.848 39.8273 246.848 39.2837C246.848 38.4198 247.566 37.5268 248.664 37.5268C249.848 37.5268 250.722 38.3034 250.722 39.4099C250.722 40.3805 250.14 40.9047 248.625 42.2442L247.595 43.2439H249.343C249.557 43.2439 250.198 43.2439 250.266 43.1663C250.363 43.0207 250.431 42.5936 250.479 42.3024H250.722Z" fill="white"/>
<path d="M260.771 62.5133C260.771 63.5033 259.888 64.3866 258.703 64.3866C257.645 64.3866 256.742 63.746 256.742 62.8627C256.742 62.4356 257.052 62.2997 257.285 62.2997C257.567 62.2997 257.829 62.4938 257.829 62.8433C257.829 63.2121 257.528 63.4257 257.188 63.3771C257.528 63.9498 258.256 64.1148 258.674 64.1148C259.101 64.1148 259.771 63.8333 259.771 62.5133C259.771 61.562 259.412 60.902 258.616 60.902H258.188C258.023 60.902 257.955 60.902 257.955 60.7952C257.955 60.6981 258.023 60.6884 258.101 60.6787C258.169 60.6787 258.402 60.6593 258.48 60.6496C258.723 60.6399 259.053 60.6108 259.344 60.1449C259.596 59.7178 259.616 59.1548 259.616 59.0383C259.616 58.1648 259.082 57.9512 258.684 57.9512C258.334 57.9512 257.693 58.0774 257.392 58.553C257.538 58.553 257.994 58.553 257.994 59.0383C257.994 59.3198 257.8 59.5334 257.499 59.5334C257.217 59.5334 257.004 59.349 257.004 59.0286C257.004 58.291 257.742 57.7086 258.723 57.7086C259.655 57.7086 260.509 58.2521 260.509 59.0481C260.509 59.8149 259.946 60.4943 259.15 60.7564C260.16 60.9602 260.771 61.7173 260.771 62.5133Z" fill="white"/>
<path d="M271.607 68.8546C271.607 69.0605 271.442 69.2253 271.236 69.2253H268.2V40.3943H271.236C271.442 40.3943 271.607 40.559 271.607 40.7649C271.607 40.9709 271.442 41.1356 271.236 41.1356H268.942V68.4839H271.236C271.442 68.4839 271.607 68.6487 271.607 68.8546Z" fill="white"/>
<path d="M276.455 61.5096C276.455 61.5783 276.386 61.6469 276.318 61.6469C276.29 61.6469 276.263 61.6332 276.235 61.6195C274.724 60.4799 273.282 57.7341 273.282 55.3865V54.2332C273.282 51.8856 274.724 49.1397 276.235 48.0002C276.263 47.9865 276.29 47.9728 276.318 47.9728C276.386 47.9728 276.455 48.0414 276.455 48.1101C276.455 48.1512 276.427 48.1924 276.4 48.2199C274.972 49.2908 274.024 52.0366 274.024 54.2332V55.3865C274.024 57.5831 274.972 60.3289 276.4 61.3998C276.427 61.4272 276.455 61.4684 276.455 61.5096Z" fill="white"/>
<path d="M282.993 58.2421C282.512 58.2009 281.317 58.2009 280.768 58.2009C280.218 58.2009 279.023 58.2009 278.543 58.2421V57.8165H278.982C280.218 57.8165 280.259 57.6518 280.259 57.1575V50.0459C279.545 50.4028 278.735 50.4028 278.46 50.4028V49.9772C278.9 49.9772 280.108 49.9772 280.96 49.0986C281.276 49.0986 281.276 49.126 281.276 49.4555V57.1575C281.276 57.6655 281.317 57.8165 282.553 57.8165H282.993V58.2421Z" fill="white"/>
<path d="M297.071 54.8099C297.071 54.9609 296.947 55.0845 296.796 55.0845H288.198C288.047 55.0845 287.923 54.9609 287.923 54.8099C287.923 54.6589 288.047 54.5353 288.198 54.5353H296.796C296.947 54.5353 297.071 54.6589 297.071 54.8099Z" fill="white"/>
<path d="M308.471 49.5104C308.471 50.0321 308.072 50.3342 307.715 50.3342C307.454 50.3342 307.207 50.1694 307.207 49.8537C307.207 49.6477 307.344 49.1672 307.949 49.1123C307.688 48.8652 307.331 48.8652 307.276 48.8652C306.987 48.8652 306.754 49.0711 306.63 49.332C306.548 49.4967 306.355 50.4715 306.3 50.7598C306.149 51.5561 306.163 51.5286 306.012 52.3249H307.152C307.386 52.3249 307.523 52.3249 307.523 52.4759C307.523 52.7505 307.386 52.7505 307.111 52.7505H305.93L305.106 57.1026C305.092 57.1987 304.776 58.8599 304.336 59.7249C304.089 60.2466 303.54 61.0566 302.784 61.0566C302.221 61.0566 301.617 60.7271 301.617 60.1093C301.617 59.5876 302.015 59.2855 302.372 59.2855C302.633 59.2855 302.881 59.4503 302.881 59.766C302.881 59.972 302.757 60.4662 302.125 60.5074C302.386 60.7545 302.729 60.7545 302.784 60.7545C303.499 60.7545 303.732 59.5052 303.979 58.1735L305.009 52.7505H304.103C303.842 52.7505 303.718 52.7505 303.718 52.5858C303.718 52.3249 303.869 52.3249 304.13 52.3249H305.078C305.408 50.595 305.449 50.4577 305.531 50.1694C305.943 48.8103 306.809 48.5631 307.276 48.5631C307.839 48.5631 308.471 48.8789 308.471 49.5104Z" fill="white"/>
<path d="M312.426 55.3865C312.426 57.7341 310.984 60.4799 309.473 61.6195C309.446 61.6332 309.418 61.6469 309.391 61.6469C309.322 61.6469 309.253 61.5783 309.253 61.5096C309.253 61.4684 309.281 61.4272 309.308 61.3998C310.737 60.3289 311.684 57.5831 311.684 55.3865V54.2332C311.684 52.0366 310.737 49.2908 309.308 48.2199C309.281 48.1924 309.253 48.1512 309.253 48.1101C309.253 48.0414 309.322 47.9728 309.391 47.9728C309.418 47.9728 309.446 47.9865 309.473 48.0002C310.984 49.1397 312.426 51.8856 312.426 54.2332V55.3865Z" fill="white"/>
<path d="M329.059 40.8336C329.059 41.3142 328.716 41.5201 328.386 41.5201C328.07 41.5201 327.727 41.3004 327.727 40.8474C327.727 40.5041 327.96 40.2021 328.414 40.1746C328.359 40.1197 328.015 39.8589 327.589 39.8589C327.054 39.8589 326.587 41.6299 326.422 42.3027C325.955 44.0737 325.447 46.8195 324.939 49.7438C324.197 54.1508 323.304 58.5304 322.247 62.8688C321.271 66.8502 320.489 70.0628 318.401 70.0628C317.563 70.0628 316.876 69.4862 316.876 68.786C316.876 68.3055 317.22 68.0995 317.549 68.0995C317.865 68.0995 318.209 68.3192 318.209 68.7723C318.209 69.1155 317.975 69.4175 317.536 69.445C317.536 69.445 317.879 69.7608 318.373 69.7608C319.486 69.7608 320.118 67.1797 320.365 66.1775C320.818 64.2691 321.217 61.9764 321.574 59.8758C323.084 50.897 324.952 44.0051 324.994 43.854C325.749 41.0533 326.518 39.5568 327.562 39.5568C328.317 39.5568 329.059 40.0923 329.059 40.8336Z" fill="white"/>
<path d="M340.211 50.6499C340.211 49.2907 338.687 49.2907 337.712 49.2907C337.437 49.2907 336.998 49.2907 336.874 49.3045C336.613 49.3457 336.572 49.483 336.489 49.8124L335.597 53.3957H337.135C338.371 53.3957 339.099 52.9564 339.456 52.5994C339.992 52.064 340.211 51.1167 340.211 50.6499ZM341.709 56.9653C341.709 57.1575 341.228 58.5441 340.06 58.5441C339.882 58.5441 338.234 58.5441 338.234 57.0614C338.234 56.7868 338.357 56.2788 338.453 55.8944C338.536 55.5787 338.646 55.1531 338.646 54.9471C338.646 54.4666 338.398 53.6978 337.149 53.6978H335.514L334.608 57.336C334.594 57.4183 334.567 57.487 334.567 57.5694C334.567 57.8165 334.951 57.8165 335.459 57.8165C335.72 57.8165 335.844 57.8165 335.844 57.9675C335.844 58.2421 335.679 58.2421 335.569 58.2421L333.825 58.2009L332.094 58.2421C332.094 58.2421 331.902 58.2421 331.902 58.0911C331.902 57.8165 332.026 57.8165 332.273 57.8165C333.358 57.8165 333.385 57.7067 333.523 57.1712L335.363 49.7987C335.404 49.634 335.418 49.5928 335.418 49.5379C335.418 49.3594 335.294 49.3457 335.047 49.3182C334.814 49.2907 334.525 49.2907 334.525 49.2907C334.264 49.2907 334.141 49.2907 334.141 49.1397C334.141 48.8651 334.264 48.8651 334.539 48.8651H338.453C340.253 48.8651 341.489 49.7438 341.489 50.9245C341.489 52.3111 339.854 53.2722 338.467 53.5742C338.838 53.7115 339.758 54.1371 339.758 55.1942C339.758 55.3864 339.731 55.6473 339.703 55.8395C339.648 56.2788 339.566 56.979 339.566 57.4046C339.566 57.9401 339.662 58.2421 340.115 58.2421C340.431 58.2421 341.022 58.0087 341.365 56.9927C341.393 56.8966 341.42 56.8005 341.544 56.8005C341.544 56.8005 341.709 56.8005 341.709 56.9653Z" fill="white"/>
<path d="M349.345 49.5104C349.345 50.0321 348.947 50.3341 348.59 50.3341C348.329 50.3341 348.081 50.1694 348.081 49.8536C348.081 49.6477 348.219 49.1672 348.823 49.1122C348.562 48.8651 348.205 48.8651 348.15 48.8651C347.862 48.8651 347.628 49.0711 347.505 49.3319C347.422 49.4967 347.23 50.4714 347.175 50.7597C347.024 51.556 347.038 51.5286 346.887 52.3248H348.027C348.26 52.3248 348.397 52.3248 348.397 52.4759C348.397 52.7504 348.26 52.7504 347.985 52.7504H346.804L345.98 57.1026C345.966 57.1987 345.65 58.8599 345.211 59.7248C344.964 60.2465 344.414 61.0565 343.659 61.0565C343.096 61.0565 342.491 60.727 342.491 60.1092C342.491 59.5875 342.89 59.2855 343.247 59.2855C343.508 59.2855 343.755 59.4502 343.755 59.766C343.755 59.9719 343.631 60.4662 343 60.5074C343.261 60.7545 343.604 60.7545 343.659 60.7545C344.373 60.7545 344.607 59.5051 344.854 58.1734L345.884 52.7504H344.977C344.716 52.7504 344.593 52.7504 344.593 52.5857C344.593 52.3248 344.744 52.3248 345.005 52.3248H345.953C346.282 50.595 346.323 50.4577 346.406 50.1694C346.818 48.8102 347.683 48.5631 348.15 48.5631C348.713 48.5631 349.345 48.8788 349.345 49.5104Z" fill="white"/>
<path d="M352.894 47.7712C352.894 47.8683 352.865 47.9654 352.816 48.043L350.612 51.6538H350.243L351.903 47.5383C351.962 47.3927 352.156 47.2568 352.37 47.2568C352.661 47.2568 352.894 47.4897 352.894 47.7712Z" fill="white"/>
</g>
</svg>
