<svg width="257" height="74" viewBox="0 0 257 74" fill="none" xmlns="http://www.w3.org/2000/svg">
<mask id="mask0_19_1770" style="mask-type:alpha" maskUnits="userSpaceOnUse" x="0" y="0" width="257" height="74">
<rect width="257" height="74" fill="#D9D9D9"/>
</mask>
<g mask="url(#mask0_19_1770)">
<circle cx="210.278" cy="36.8778" r="9.66667" stroke="white" stroke-width="3.22222"/>
<path d="M226.861 57.3505C227.49 57.9797 228.51 57.9797 229.139 57.3505C229.768 56.7213 229.768 55.7012 229.139 55.072L226.861 57.3505ZM215.583 46.0727L226.861 57.3505L229.139 55.072L217.861 43.7942L215.583 46.0727Z" fill="white"/>
<path fill-rule="evenodd" clip-rule="evenodd" d="M178.303 19.8805L178.303 19.8805H205.444C209.085 19.8805 211.448 22.6819 212.008 25.7319C211.463 25.6479 210.905 25.603 210.337 25.6001C209.768 23.3303 207.954 21.4916 205.444 21.4916H178.303C177.349 21.4916 176.473 21.8234 175.782 22.3778H203.833C206.112 22.3778 208.076 23.7298 208.965 25.6756C208.402 25.7409 207.851 25.8477 207.316 25.9928C206.619 24.7944 205.32 23.9889 203.833 23.9889H175.639C173.414 23.9889 171.611 25.7922 171.611 28.0166V63.4611C171.611 65.6856 173.414 67.4889 175.639 67.4889H203.833C206.058 67.4889 207.861 65.6856 207.861 63.4611V47.896C208.385 48.0105 208.923 48.0885 209.472 48.1272V63.4611C209.472 63.5359 209.471 63.6103 209.468 63.6843C210.125 62.9677 210.525 62.0126 210.525 60.9639V48.1529C211.073 48.1411 211.611 48.0903 212.137 48.0031V60.9639V60.9643C212.642 60.291 212.942 59.4541 212.942 58.5472V47.839C213.496 47.7048 214.034 47.5296 214.553 47.3169V58.5472C214.553 60.7268 213.317 62.6176 211.507 63.5562C210.924 64.6804 209.973 65.5834 208.815 66.1063C207.867 67.8874 205.992 69.1 203.833 69.1H175.639C172.525 69.1 170 66.5754 170 63.4611V28.0166C170 25.7281 171.363 23.7581 173.322 22.8742C173.859 21.8644 174.695 21.0374 175.711 20.5104C176.649 18.7005 178.54 17.4639 180.72 17.4639H205.625C210.702 17.4639 214.553 21.4287 214.553 25.9222V26.4386C214.034 26.2259 213.496 26.0508 212.942 25.9165C212.939 22.3566 209.852 19.075 205.625 19.075H180.72C179.813 19.075 178.976 19.3747 178.303 19.8805ZM200.753 42.9194C201.085 43.441 201.458 43.9335 201.868 44.3923C201.739 44.4795 201.584 44.5305 201.417 44.5305H175.639C175.194 44.5305 174.833 44.1699 174.833 43.725C174.833 43.2801 175.194 42.9194 175.639 42.9194H200.753ZM199.114 38.4889C199.193 39.0397 199.312 39.5778 199.467 40.1H178.056C177.611 40.1 177.25 39.7393 177.25 39.2944C177.25 38.8495 177.611 38.4889 178.056 38.4889H199.114ZM199.355 34.0583C199.221 34.5816 199.123 35.1196 199.064 35.6694H175.639C175.194 35.6694 174.833 35.3088 174.833 34.8639C174.833 34.419 175.194 34.0583 175.639 34.0583H199.355ZM174.833 30.4333C174.833 29.9884 175.194 29.6278 175.639 29.6278H186.917C187.362 29.6278 187.722 29.9884 187.722 30.4333C187.722 30.8782 187.362 31.2389 186.917 31.2389H175.639C175.194 31.2389 174.833 30.8782 174.833 30.4333ZM177.25 48.1555C177.25 47.7106 177.611 47.35 178.056 47.35H204.639C205.084 47.35 205.444 47.7106 205.444 48.1555C205.444 48.6004 205.084 48.9611 204.639 48.9611H178.056C177.611 48.9611 177.25 48.6004 177.25 48.1555ZM174.833 52.5861C174.833 52.1412 175.194 51.7805 175.639 51.7805H203.833C204.278 51.7805 204.639 52.1412 204.639 52.5861C204.639 53.031 204.278 53.3916 203.833 53.3916H175.639C175.194 53.3916 174.833 53.031 174.833 52.5861ZM174.833 57.0166C174.833 56.5717 175.194 56.2111 175.639 56.2111H200.611C201.056 56.2111 201.417 56.5717 201.417 57.0166C201.417 57.4615 201.056 57.8222 200.611 57.8222H175.639C175.194 57.8222 174.833 57.4615 174.833 57.0166ZM185.306 61.4472C185.306 61.0023 185.666 60.6416 186.111 60.6416H203.833C204.278 60.6416 204.639 61.0023 204.639 61.4472C204.639 61.8921 204.278 62.2528 203.833 62.2528H186.111C185.666 62.2528 185.306 61.8921 185.306 61.4472Z" fill="white"/>
</g>
</svg>
