<svg width="393" height="59" viewBox="0 0 393 59" fill="none" xmlns="http://www.w3.org/2000/svg">
<rect x="190.628" y="3" width="53.0901" height="53.0901" stroke="#C1C1C1" stroke-opacity="0.6" stroke-width="2"/>
<rect x="248.261" y="3" width="53.0901" height="53.0901" stroke="#C1C1C1" stroke-opacity="0.6" stroke-width="2"/>
<rect x="305.893" y="3" width="53.0901" height="53.0901" stroke="#C1C1C1" stroke-opacity="0.6" stroke-width="2"/>
<path d="M198.222 9.18533C201.324 6.0487 205.205 4.33034 208.658 8.19521C211.512 11.3892 214.083 19.3382 215.591 25.0987C218.924 37.8296 224.462 40.8708 235.323 43.4368" stroke="#FF6464" stroke-width="3" stroke-linecap="round"/>
<path d="M196.357 14.0913C199.459 10.9547 203.122 9.94485 205.731 12.7739C208.341 15.603 209.086 21.6855 207.819 29.3239C206.551 36.9623 202.004 50.754 209.832 52.8758" stroke="#E90000" stroke-width="3" stroke-linecap="round"/>
<path d="M258.239 51.5305C258.239 51.5305 266.224 49.9857 270.732 39.6999C272.632 35.3648 275.376 19.8135 279.232 15.7733C281.436 13.4646 291.589 12.9399 297.256 9.94911" stroke="#A7FFA7" stroke-width="3" stroke-linecap="round"/>
<path d="M253.285 50.014C260.755 47.6439 264.69 43.5143 265.713 30.6853C266.736 17.8562 262.329 23.6804 262.887 29.2356" stroke="#00B800" stroke-width="3" stroke-linecap="round"/>
<path d="M311.902 9.42647C315.534 16.6216 325.08 10.3642 338.828 25.7672C352.577 41.1701 360.941 51.0378 352.023 51.7765" stroke="#9AD5FF" stroke-width="3" stroke-linecap="round"/>
<path d="M310.349 30.5917C315.78 25.008 324.353 20.332 335.87 30.6608C347.387 40.9896 352.78 49.396 345.696 51.275" stroke="#3060FF" stroke-width="3" stroke-linecap="round"/>
<g clip-path="url(#clip0_15_667)">
<path d="M316.451 45.012C316.451 45.0474 316.439 45.1183 316.321 45.1301H316.061C315.742 45.1301 315.624 45.1301 315.435 44.8702C315.246 44.5986 314.679 42.7916 314.195 41.5515L311.349 44.9057C311.254 45.0238 311.148 45.1537 310.959 45.1537C310.77 45.1537 310.605 45.012 310.605 44.8112C310.605 44.6577 310.675 44.5868 310.817 44.4451L314.077 41.209L312.931 37.9966C312.636 37.1935 312.553 37.1227 312.164 37.0518C312.164 37.0518 312.057 37.0282 312.057 36.9337C312.057 36.8038 312.211 36.8038 312.27 36.8038C312.825 36.8038 313.463 36.9573 313.711 37.6423L316.12 44.3624C316.203 44.5986 316.274 44.7758 316.392 44.9057C316.427 44.9529 316.451 44.9765 316.451 45.012Z" fill="white"/>
</g>
<g clip-path="url(#clip1_15_667)">
<path d="M260.513 17.8907C260.513 17.9261 260.501 17.9969 260.383 18.0088H260.123C259.804 18.0088 259.686 18.0088 259.497 17.7489C259.308 17.4773 258.741 15.6703 258.257 14.4302L255.411 17.7844C255.316 17.9025 255.21 18.0324 255.021 18.0324C254.832 18.0324 254.667 17.8907 254.667 17.6899C254.667 17.5363 254.738 17.4655 254.879 17.3238L258.139 14.0877L256.994 10.8753C256.698 10.0722 256.616 10.0014 256.226 9.9305C256.226 9.9305 256.12 9.90687 256.12 9.81239C256.12 9.68248 256.273 9.68248 256.332 9.68248C256.887 9.68248 257.525 9.83601 257.773 10.521L260.182 17.2411C260.265 17.4773 260.336 17.6544 260.454 17.7844C260.489 17.8316 260.513 17.8552 260.513 17.8907Z" fill="white"/>
</g>
<g clip-path="url(#clip2_15_667)">
<path d="M225.227 46.0965C225.227 44.9271 223.916 44.9271 223.077 44.9271C222.841 44.9271 222.463 44.9271 222.357 44.9389C222.132 44.9744 222.097 45.0925 222.026 45.376L221.258 48.4589H222.581C223.644 48.4589 224.27 48.0809 224.578 47.7738C225.038 47.3131 225.227 46.4981 225.227 46.0965ZM226.515 51.53C226.515 51.6954 226.101 52.8884 225.097 52.8884C224.944 52.8884 223.526 52.8884 223.526 51.6127C223.526 51.3765 223.633 50.9394 223.715 50.6087C223.786 50.337 223.881 49.9708 223.881 49.7937C223.881 49.3802 223.668 48.7188 222.593 48.7188H221.187L220.408 51.8489C220.396 51.9198 220.372 51.9789 220.372 52.0497C220.372 52.2624 220.703 52.2624 221.14 52.2624C221.365 52.2624 221.471 52.2624 221.471 52.3923C221.471 52.6285 221.329 52.6285 221.235 52.6285L219.735 52.5931L218.246 52.6285C218.246 52.6285 218.081 52.6285 218.081 52.4986C218.081 52.2624 218.187 52.2624 218.4 52.2624C219.333 52.2624 219.357 52.1679 219.475 51.7072L221.058 45.3642C221.093 45.2224 221.105 45.187 221.105 45.1397C221.105 44.9862 220.998 44.9744 220.786 44.9508C220.585 44.9271 220.337 44.9271 220.337 44.9271C220.113 44.9271 220.006 44.9271 220.006 44.7972C220.006 44.561 220.113 44.561 220.349 44.561H223.715C225.263 44.561 226.326 45.3169 226.326 46.3328C226.326 47.5258 224.92 48.3526 223.727 48.6125C224.046 48.7306 224.837 49.0968 224.837 50.0063C224.837 50.1716 224.814 50.3961 224.79 50.5614C224.743 50.9394 224.672 51.5418 224.672 51.908C224.672 52.3687 224.755 52.6285 225.144 52.6285C225.416 52.6285 225.924 52.4277 226.219 51.5536C226.243 51.471 226.267 51.3883 226.373 51.3883C226.373 51.3883 226.515 51.3883 226.515 51.53Z" fill="white"/>
</g>
<g clip-path="url(#clip3_15_667)">
<path d="M289.64 43.5539C289.64 42.3845 288.329 42.3845 287.49 42.3845C287.254 42.3845 286.876 42.3845 286.77 42.3963C286.546 42.4318 286.51 42.5499 286.439 42.8334L285.671 45.9163H286.994C288.057 45.9163 288.683 45.5383 288.991 45.2312C289.451 44.7705 289.64 43.9555 289.64 43.5539ZM290.928 48.9874C290.928 49.1528 290.514 50.3458 289.51 50.3458C289.357 50.3458 287.939 50.3458 287.939 49.0701C287.939 48.8339 288.046 48.3968 288.128 48.0661C288.199 47.7944 288.294 47.4282 288.294 47.2511C288.294 46.8376 288.081 46.1762 287.006 46.1762H285.601L284.821 49.3063C284.809 49.3772 284.786 49.4363 284.786 49.5071C284.786 49.7198 285.116 49.7198 285.553 49.7198C285.778 49.7198 285.884 49.7198 285.884 49.8497C285.884 50.0859 285.742 50.0859 285.648 50.0859L284.148 50.0505L282.659 50.0859C282.659 50.0859 282.494 50.0859 282.494 49.956C282.494 49.7198 282.6 49.7198 282.813 49.7198C283.746 49.7198 283.77 49.6253 283.888 49.1646L285.471 42.8216C285.506 42.6798 285.518 42.6444 285.518 42.5971C285.518 42.4436 285.412 42.4318 285.199 42.4082C284.998 42.3845 284.75 42.3845 284.75 42.3845C284.526 42.3845 284.419 42.3845 284.419 42.2546C284.419 42.0184 284.526 42.0184 284.762 42.0184H288.128C289.676 42.0184 290.739 42.7743 290.739 43.7902C290.739 44.9832 289.333 45.81 288.14 46.0699C288.459 46.188 289.25 46.5542 289.25 47.4637C289.25 47.629 289.227 47.8535 289.203 48.0188C289.156 48.3968 289.085 48.9992 289.085 49.3654C289.085 49.8261 289.168 50.0859 289.558 50.0859C289.829 50.0859 290.337 49.8851 290.632 49.011C290.656 48.9284 290.68 48.8457 290.786 48.8457C290.786 48.8457 290.928 48.8457 290.928 48.9874Z" fill="white"/>
</g>
<g clip-path="url(#clip4_15_667)">
<path d="M205.349 20.9593C205.349 21.1955 205.242 21.1955 204.971 21.1955C204.085 21.1955 204.061 21.3136 203.955 21.7387L202.384 28.0332C202.325 28.2458 202.325 28.2694 202.325 28.3166C202.325 28.5292 202.656 28.5292 203.093 28.5292C203.317 28.5292 203.424 28.5292 203.424 28.6591C203.424 28.8953 203.27 28.8953 203.199 28.8953C202.715 28.8953 202.207 28.8599 201.723 28.8599L200.259 28.8953C200.223 28.8953 200.082 28.8953 200.082 28.7536C200.082 28.5292 200.211 28.5292 200.412 28.5292C201.345 28.5292 201.369 28.4347 201.487 27.9741L203.176 21.2073H203.164L198.393 28.6827C198.334 28.7654 198.263 28.8953 198.133 28.8953C197.991 28.8953 197.979 28.7654 197.956 28.6237L196.94 21.3017H196.928L195.322 27.738C195.287 27.8679 195.275 27.9269 195.275 28.0096C195.275 28.2812 195.405 28.5174 196.078 28.5292C196.161 28.5292 196.291 28.5292 196.291 28.6591C196.291 28.8953 196.137 28.8953 196.078 28.8953C195.688 28.8953 195.263 28.8599 194.862 28.8599C194.472 28.8599 194.059 28.8953 193.681 28.8953C193.586 28.8953 193.515 28.8599 193.515 28.7536C193.515 28.541 193.669 28.5292 193.728 28.5292C194.685 28.4938 194.885 28.1159 195.003 27.6435L196.503 21.6324C196.539 21.4907 196.55 21.4553 196.55 21.408C196.55 21.2781 196.48 21.2427 196.291 21.2191C196.149 21.2073 195.936 21.1955 195.783 21.1955C195.547 21.1955 195.44 21.1955 195.44 21.0537C195.44 20.8294 195.57 20.8294 195.795 20.8294H197.413C197.72 20.8294 197.743 20.8294 197.779 21.101L198.7 27.7852L203.01 21.0537C203.152 20.8294 203.164 20.8294 203.471 20.8294H205.03C205.23 20.8294 205.349 20.8294 205.349 20.9593Z" fill="white"/>
</g>
<g clip-path="url(#clip5_15_667)">
<path d="M339.26 44.6904C339.26 44.9266 339.154 44.9266 338.882 44.9266C337.996 44.9266 337.973 45.0447 337.866 45.4698L336.296 51.7643C336.237 51.9769 336.237 52.0005 336.237 52.0477C336.237 52.2603 336.567 52.2603 337.004 52.2603C337.229 52.2603 337.335 52.2603 337.335 52.3902C337.335 52.6264 337.181 52.6264 337.111 52.6264C336.626 52.6264 336.119 52.591 335.634 52.591L334.17 52.6264C334.135 52.6264 333.993 52.6264 333.993 52.4847C333.993 52.2603 334.123 52.2603 334.324 52.2603C335.257 52.2603 335.28 52.1658 335.398 51.7053L337.087 44.9384H337.075L332.304 52.4138C332.245 52.4965 332.174 52.6264 332.044 52.6264C331.903 52.6264 331.891 52.4965 331.867 52.3548L330.852 45.0329H330.84L329.234 51.4691C329.198 51.599 329.186 51.658 329.186 51.7407C329.186 52.0123 329.316 52.2485 329.989 52.2603C330.072 52.2603 330.202 52.2603 330.202 52.3902C330.202 52.6264 330.048 52.6264 329.989 52.6264C329.6 52.6264 329.175 52.591 328.773 52.591C328.383 52.591 327.97 52.6264 327.592 52.6264C327.498 52.6264 327.427 52.591 327.427 52.4847C327.427 52.2721 327.58 52.2603 327.639 52.2603C328.596 52.2249 328.797 51.847 328.915 51.3746L330.415 45.3635C330.45 45.2218 330.462 45.1864 330.462 45.1391C330.462 45.0092 330.391 44.9738 330.202 44.9502C330.06 44.9384 329.848 44.9266 329.694 44.9266C329.458 44.9266 329.352 44.9266 329.352 44.7848C329.352 44.5605 329.482 44.5605 329.706 44.5605H331.324C331.631 44.5605 331.655 44.5605 331.69 44.8321L332.611 51.5163L336.922 44.7848C337.063 44.5605 337.075 44.5605 337.382 44.5605H338.941C339.142 44.5605 339.26 44.5605 339.26 44.6904Z" fill="white"/>
</g>
<defs>
<clipPath id="clip0_15_667">
<rect width="6.88542" height="10.2569" fill="white" transform="translate(309.979 35.9016)"/>
</clipPath>
<clipPath id="clip1_15_667">
<rect width="6.88542" height="10.2569" fill="white" transform="translate(254.041 8.78033)"/>
</clipPath>
<clipPath id="clip2_15_667">
<rect width="8.96529" height="10.2569" fill="white" transform="translate(217.597 43.5295)"/>
</clipPath>
<clipPath id="clip3_15_667">
<rect width="8.96529" height="10.2569" fill="white" transform="translate(282.01 40.9869)"/>
</clipPath>
<clipPath id="clip4_15_667">
<rect width="12.3317" height="9.68739" fill="white" transform="translate(193.018 19.7984)"/>
</clipPath>
<clipPath id="clip5_15_667">
<rect width="12.3317" height="9.68739" fill="white" transform="translate(326.929 43.5295)"/>
</clipPath>
</defs>
</svg>
