<svg width="257" height="74" viewBox="0 0 257 74" fill="none" xmlns="http://www.w3.org/2000/svg">
<mask id="mask0_20_235" style="mask-type:alpha" maskUnits="userSpaceOnUse" x="0" y="0" width="257" height="74">
<rect width="257" height="74" fill="#D9D9D9"/>
</mask>
<g mask="url(#mask0_20_235)">
<rect x="84" y="39" width="33" height="23" rx="9" stroke="white" stroke-width="2"/>
<rect x="208" y="39" width="33" height="23" rx="9" stroke="white" stroke-width="2"/>
<rect x="146" y="39" width="33" height="23" rx="9" stroke="white" stroke-width="2"/>
<path d="M118 51H121.5L124 47L128 54L131.5 47L135 54L138.5 47L141 51H145" stroke="white" stroke-width="2" stroke-linejoin="round"/>
<path d="M180 51H183.5L186 47L190 54L193.5 47L197 54L200.5 47L203 51H207" stroke="white" stroke-width="2" stroke-linejoin="round"/>
<path d="M227.818 51.3966C227.818 51.5081 227.303 53.5428 225.993 53.5428C225.338 53.5428 224.85 53.0551 224.85 52.4C224.85 52.1213 224.906 51.968 225.031 51.6335C225.31 50.8949 225.895 49.3061 225.895 48.5117C225.895 48.01 225.742 47.5362 225.142 47.5362C223.623 47.5362 222.885 49.2086 222.843 49.3897L222.007 52.7485C221.895 53.1944 221.812 53.5428 221.38 53.5428C221.17 53.5428 220.975 53.4174 220.975 53.1666C220.975 53.0969 221.101 52.623 221.157 52.3443C221.282 51.8844 221.296 51.8008 221.435 51.2851L221.826 49.6685C221.937 49.2504 222.035 48.8601 222.035 48.5117C222.035 48.0518 221.909 47.5362 221.282 47.5362C219.958 47.5362 219.219 48.8044 219.01 49.2364L218.829 49.9333C218.759 50.2538 218.676 50.5604 218.592 50.867L218.286 52.1213C218.202 52.4697 218.035 53.1247 218.021 53.1526C217.923 53.4314 217.672 53.5428 217.505 53.5428C217.296 53.5428 217.101 53.4174 217.101 53.1666C217.101 53.0969 217.185 52.7763 217.226 52.5673L218.035 49.3479C218.216 48.6232 218.258 48.4699 218.258 48.1772C218.258 47.6477 218.049 47.5362 217.826 47.5362C217.324 47.5362 217.045 48.2051 216.808 49.1946C216.725 49.5012 216.711 49.5152 216.571 49.5152C216.571 49.5152 216.404 49.5152 216.404 49.3758C216.404 49.334 216.585 48.5117 216.836 48.0239C216.962 47.7731 217.226 47.2296 217.868 47.2296C218.495 47.2296 219.08 47.6477 219.15 48.442C219.387 48.1215 220.07 47.2296 221.324 47.2296C221.672 47.2296 222.118 47.2992 222.467 47.5919C222.857 47.9264 222.899 48.4002 222.913 48.5814C223.428 47.8428 224.139 47.2296 225.184 47.2296C226.229 47.2296 226.787 47.8149 226.787 48.7208C226.787 49.5152 226.202 51.0621 225.937 51.7868C225.811 52.0934 225.686 52.4279 225.686 52.7763C225.686 53.0969 225.784 53.2362 226.02 53.2362C226.787 53.2362 227.233 52.2467 227.442 51.5081C227.512 51.2991 227.512 51.2572 227.651 51.2572C227.693 51.2572 227.818 51.2572 227.818 51.3966Z" fill="white"/>
<path d="M232.739 53.7951C232.739 54.8001 231.843 55.6968 230.64 55.6968C229.566 55.6968 228.65 55.0465 228.65 54.1498C228.65 53.7163 228.965 53.5783 229.202 53.5783C229.488 53.5783 229.754 53.7754 229.754 54.1301C229.754 54.5045 229.448 54.7213 229.103 54.672C229.448 55.2534 230.187 55.4209 230.611 55.4209C231.044 55.4209 231.724 55.1351 231.724 53.7951C231.724 52.8295 231.36 52.1595 230.552 52.1595H230.118C229.951 52.1595 229.882 52.1595 229.882 52.0511C229.882 51.9526 229.951 51.9427 230.03 51.9329C230.099 51.9329 230.335 51.9132 230.414 51.9033C230.66 51.8934 230.995 51.8639 231.291 51.3909C231.547 50.9574 231.567 50.3859 231.567 50.2677C231.567 49.3809 231.025 49.1641 230.621 49.1641C230.266 49.1641 229.616 49.2922 229.31 49.775C229.458 49.775 229.921 49.775 229.921 50.2677C229.921 50.5534 229.724 50.7702 229.419 50.7702C229.133 50.7702 228.916 50.583 228.916 50.2578C228.916 49.509 229.665 48.9178 230.66 48.9178C231.606 48.9178 232.473 49.4696 232.473 50.2775C232.473 51.0559 231.902 51.7456 231.094 52.0117C232.118 52.2186 232.739 52.9872 232.739 53.7951Z" fill="white"/>
<path d="M165.818 51.3967C165.818 51.5082 165.303 53.543 163.993 53.543C163.338 53.543 162.85 53.0552 162.85 52.4002C162.85 52.1214 162.906 51.9681 163.031 51.6337C163.31 50.895 163.895 49.3062 163.895 48.5118C163.895 48.0101 163.742 47.5363 163.142 47.5363C161.623 47.5363 160.885 49.2087 160.843 49.3899L160.007 52.7486C159.895 53.1946 159.812 53.543 159.38 53.543C159.17 53.543 158.975 53.4175 158.975 53.1667C158.975 53.097 159.101 52.6232 159.157 52.3444C159.282 51.8845 159.296 51.8009 159.435 51.2852L159.826 49.6686C159.937 49.2505 160.035 48.8603 160.035 48.5118C160.035 48.0519 159.909 47.5363 159.282 47.5363C157.958 47.5363 157.219 48.8045 157.01 49.2366L156.829 49.9334C156.759 50.2539 156.676 50.5605 156.592 50.8671L156.286 52.1214C156.202 52.4698 156.035 53.1249 156.021 53.1527C155.923 53.4315 155.672 53.543 155.505 53.543C155.296 53.543 155.101 53.4175 155.101 53.1667C155.101 53.097 155.185 52.7765 155.226 52.5674L156.035 49.348C156.216 48.6233 156.258 48.47 156.258 48.1774C156.258 47.6478 156.049 47.5363 155.826 47.5363C155.324 47.5363 155.045 48.2052 154.808 49.1947C154.725 49.5013 154.711 49.5153 154.571 49.5153C154.571 49.5153 154.404 49.5153 154.404 49.3759C154.404 49.3341 154.585 48.5118 154.836 48.0241C154.962 47.7732 155.226 47.2297 155.868 47.2297C156.495 47.2297 157.08 47.6478 157.15 48.4422C157.387 48.1216 158.07 47.2297 159.324 47.2297C159.672 47.2297 160.118 47.2994 160.467 47.592C160.857 47.9265 160.899 48.4004 160.913 48.5815C161.428 47.8429 162.139 47.2297 163.184 47.2297C164.229 47.2297 164.787 47.815 164.787 48.7209C164.787 49.5153 164.202 51.0623 163.937 51.787C163.811 52.0936 163.686 52.428 163.686 52.7765C163.686 53.097 163.784 53.2364 164.02 53.2364C164.787 53.2364 165.233 52.2469 165.442 51.5082C165.512 51.2992 165.512 51.2574 165.651 51.2574C165.693 51.2574 165.818 51.2574 165.818 51.3967Z" fill="white"/>
<path d="M170.66 53.7656L170.385 55.4801H166.729C166.729 55.2436 166.729 55.2239 166.837 55.1155L168.729 53.007C169.271 52.3961 169.764 51.6177 169.764 50.8294C169.764 50.0214 169.34 49.2233 168.443 49.2233C167.872 49.2233 167.34 49.5879 167.113 50.2284C167.143 50.2185 167.163 50.2185 167.241 50.2185C167.586 50.2185 167.764 50.4747 167.764 50.7309C167.764 51.1348 167.419 51.2531 167.251 51.2531C167.222 51.2531 166.729 51.2531 166.729 50.7013C166.729 49.8244 167.458 48.9179 168.572 48.9179C169.774 48.9179 170.66 49.7061 170.66 50.8294C170.66 51.8147 170.069 52.3468 168.532 53.7065L167.488 54.7214H169.261C169.478 54.7214 170.128 54.7214 170.197 54.6426C170.296 54.4948 170.365 54.0612 170.414 53.7656H170.66Z" fill="white"/>
<path d="M103.818 51.3967C103.818 51.5082 103.303 53.543 101.993 53.543C101.338 53.543 100.85 53.0552 100.85 52.4002C100.85 52.1214 100.906 51.9681 101.031 51.6337C101.31 50.895 101.895 49.3062 101.895 48.5118C101.895 48.0101 101.742 47.5363 101.142 47.5363C99.6233 47.5363 98.8847 49.2087 98.8429 49.3899L98.0067 52.7486C97.8952 53.1946 97.8116 53.543 97.3795 53.543C97.1705 53.543 96.9754 53.4175 96.9754 53.1667C96.9754 53.097 97.1008 52.6232 97.1566 52.3444C97.282 51.8845 97.2959 51.8009 97.4353 51.2852L97.8255 49.6686C97.937 49.2505 98.0346 48.8603 98.0346 48.5118C98.0346 48.0519 97.9091 47.5363 97.282 47.5363C95.958 47.5363 95.2194 48.8045 95.0103 49.2366L94.8291 49.9334C94.7595 50.2539 94.6758 50.5605 94.5922 50.8671L94.2856 52.1214C94.202 52.4698 94.0348 53.1249 94.0208 53.1527C93.9233 53.4315 93.6724 53.543 93.5052 53.543C93.2961 53.543 93.101 53.4175 93.101 53.1667C93.101 53.097 93.1846 52.7765 93.2264 52.5674L94.0348 49.348C94.2159 48.6233 94.2577 48.47 94.2577 48.1774C94.2577 47.6478 94.0487 47.5363 93.8257 47.5363C93.324 47.5363 93.0453 48.2052 92.8083 49.1947C92.7247 49.5013 92.7108 49.5153 92.5714 49.5153C92.5714 49.5153 92.4042 49.5153 92.4042 49.3759C92.4042 49.3341 92.5854 48.5118 92.8362 48.0241C92.9616 47.7732 93.2264 47.2297 93.8675 47.2297C94.4947 47.2297 95.08 47.6478 95.1497 48.4422C95.3866 48.1216 96.0695 47.2297 97.3238 47.2297C97.6722 47.2297 98.1182 47.2994 98.4666 47.592C98.8568 47.9265 98.8986 48.4004 98.9126 48.5815C99.4282 47.8429 100.139 47.2297 101.184 47.2297C102.229 47.2297 102.787 47.815 102.787 48.7209C102.787 49.5153 102.202 51.0623 101.937 51.787C101.811 52.0936 101.686 52.428 101.686 52.7765C101.686 53.097 101.784 53.2364 102.02 53.2364C102.787 53.2364 103.233 52.2469 103.442 51.5082C103.512 51.2992 103.512 51.2574 103.651 51.2574C103.693 51.2574 103.818 51.2574 103.818 51.3967Z" fill="white"/>
<path d="M108.365 55.4801C108.02 55.4505 107.163 55.4505 106.769 55.4505C106.374 55.4505 105.517 55.4505 105.172 55.4801V55.1747H105.488C106.374 55.1747 106.404 55.0564 106.404 54.7017V49.5977C105.892 49.8539 105.31 49.8539 105.113 49.8539V49.5485C105.429 49.5485 106.296 49.5485 106.907 48.9179C107.133 48.9179 107.133 48.9376 107.133 49.1741V54.7017C107.133 55.0663 107.163 55.1747 108.05 55.1747H108.365V55.4801Z" fill="white"/>
</g>
</svg>
