<svg width="257" height="74" viewBox="0 0 257 74" fill="none" xmlns="http://www.w3.org/2000/svg">
<mask id="mask0_20_235" style="mask-type:alpha" maskUnits="userSpaceOnUse" x="0" y="0" width="257" height="74">
<rect width="257" height="74" fill="#D9D9D9"/>
</mask>
<g mask="url(#mask0_20_235)">
<rect x="127" y="49" width="33" height="23" rx="9" stroke="white" stroke-width="2"/>
<rect x="189" y="49" width="33" height="23" rx="9" stroke="white" stroke-width="2"/>
<path d="M161 61H164.5L167 57L171 64L174.5 57L178 64L181.5 57L184 61H188" stroke="white" stroke-width="2" stroke-linejoin="round"/>
<path d="M223 61H226.5L229 57L233 64L236.5 57L240 64L243.5 57L246 61H250" stroke="white" stroke-width="2" stroke-linejoin="round"/>
<path d="M99 61H102.5L105 57L109 64L112.5 57L116 64L119.5 57L122 61H126" stroke="white" stroke-width="2" stroke-linejoin="round"/>
<line x1="98" y1="47" x2="98" y2="74" stroke="white" stroke-width="2"/>
<line x1="251" y1="47" x2="251" y2="74" stroke="white" stroke-width="2"/>
<path d="M208.818 61.3967C208.818 61.5082 208.303 63.543 206.993 63.543C206.338 63.543 205.85 63.0552 205.85 62.4002C205.85 62.1214 205.906 61.9681 206.031 61.6337C206.31 60.895 206.895 59.3062 206.895 58.5118C206.895 58.0101 206.742 57.5363 206.142 57.5363C204.623 57.5363 203.885 59.2087 203.843 59.3899L203.007 62.7486C202.895 63.1946 202.812 63.543 202.38 63.543C202.17 63.543 201.975 63.4175 201.975 63.1667C201.975 63.097 202.101 62.6232 202.157 62.3444C202.282 61.8845 202.296 61.8009 202.435 61.2852L202.826 59.6686C202.937 59.2505 203.035 58.8603 203.035 58.5118C203.035 58.0519 202.909 57.5363 202.282 57.5363C200.958 57.5363 200.219 58.8045 200.01 59.2366L199.829 59.9334C199.759 60.2539 199.676 60.5605 199.592 60.8671L199.286 62.1214C199.202 62.4698 199.035 63.1249 199.021 63.1527C198.923 63.4315 198.672 63.543 198.505 63.543C198.296 63.543 198.101 63.4175 198.101 63.1667C198.101 63.097 198.185 62.7765 198.226 62.5674L199.035 59.348C199.216 58.6233 199.258 58.47 199.258 58.1774C199.258 57.6478 199.049 57.5363 198.826 57.5363C198.324 57.5363 198.045 58.2052 197.808 59.1947C197.725 59.5013 197.711 59.5153 197.571 59.5153C197.571 59.5153 197.404 59.5153 197.404 59.3759C197.404 59.3341 197.585 58.5118 197.836 58.0241C197.962 57.7732 198.226 57.2297 198.868 57.2297C199.495 57.2297 200.08 57.6478 200.15 58.4422C200.387 58.1216 201.07 57.2297 202.324 57.2297C202.672 57.2297 203.118 57.2994 203.467 57.592C203.857 57.9265 203.899 58.4004 203.913 58.5815C204.428 57.8429 205.139 57.2297 206.184 57.2297C207.229 57.2297 207.787 57.815 207.787 58.7209C207.787 59.5153 207.202 61.0623 206.937 61.787C206.811 62.0936 206.686 62.428 206.686 62.7765C206.686 63.097 206.784 63.2364 207.02 63.2364C207.787 63.2364 208.233 62.2469 208.442 61.5082C208.512 61.2992 208.512 61.2574 208.651 61.2574C208.693 61.2574 208.818 61.2574 208.818 61.3967Z" fill="white"/>
<path d="M213.66 63.7656L213.385 65.4801H209.729C209.729 65.2436 209.729 65.2239 209.837 65.1155L211.729 63.007C212.271 62.3961 212.764 61.6177 212.764 60.8294C212.764 60.0214 212.34 59.2233 211.443 59.2233C210.872 59.2233 210.34 59.5879 210.113 60.2284C210.143 60.2185 210.163 60.2185 210.241 60.2185C210.586 60.2185 210.764 60.4747 210.764 60.7309C210.764 61.1348 210.419 61.2531 210.251 61.2531C210.222 61.2531 209.729 61.2531 209.729 60.7013C209.729 59.8244 210.458 58.9179 211.572 58.9179C212.774 58.9179 213.66 59.7061 213.66 60.8294C213.66 61.8147 213.069 62.3468 211.532 63.7065L210.488 64.7214H212.261C212.478 64.7214 213.128 64.7214 213.197 64.6426C213.296 64.4948 213.365 64.0612 213.414 63.7656H213.66Z" fill="white"/>
<path d="M146.818 61.3967C146.818 61.5082 146.303 63.543 144.993 63.543C144.338 63.543 143.85 63.0552 143.85 62.4002C143.85 62.1214 143.906 61.9681 144.031 61.6337C144.31 60.895 144.895 59.3062 144.895 58.5118C144.895 58.0101 144.742 57.5363 144.142 57.5363C142.623 57.5363 141.885 59.2087 141.843 59.3899L141.007 62.7486C140.895 63.1946 140.812 63.543 140.38 63.543C140.17 63.543 139.975 63.4175 139.975 63.1667C139.975 63.097 140.101 62.6232 140.157 62.3444C140.282 61.8845 140.296 61.8009 140.435 61.2852L140.826 59.6686C140.937 59.2505 141.035 58.8603 141.035 58.5118C141.035 58.0519 140.909 57.5363 140.282 57.5363C138.958 57.5363 138.219 58.8045 138.01 59.2366L137.829 59.9334C137.759 60.2539 137.676 60.5605 137.592 60.8671L137.286 62.1214C137.202 62.4698 137.035 63.1249 137.021 63.1527C136.923 63.4315 136.672 63.543 136.505 63.543C136.296 63.543 136.101 63.4175 136.101 63.1667C136.101 63.097 136.185 62.7765 136.226 62.5674L137.035 59.348C137.216 58.6233 137.258 58.47 137.258 58.1774C137.258 57.6478 137.049 57.5363 136.826 57.5363C136.324 57.5363 136.045 58.2052 135.808 59.1947C135.725 59.5013 135.711 59.5153 135.571 59.5153C135.571 59.5153 135.404 59.5153 135.404 59.3759C135.404 59.3341 135.585 58.5118 135.836 58.0241C135.962 57.7732 136.226 57.2297 136.868 57.2297C137.495 57.2297 138.08 57.6478 138.15 58.4422C138.387 58.1216 139.07 57.2297 140.324 57.2297C140.672 57.2297 141.118 57.2994 141.467 57.592C141.857 57.9265 141.899 58.4004 141.913 58.5815C142.428 57.8429 143.139 57.2297 144.184 57.2297C145.229 57.2297 145.787 57.815 145.787 58.7209C145.787 59.5153 145.202 61.0623 144.937 61.787C144.811 62.0936 144.686 62.428 144.686 62.7765C144.686 63.097 144.784 63.2364 145.02 63.2364C145.787 63.2364 146.233 62.2469 146.442 61.5082C146.512 61.2992 146.512 61.2574 146.651 61.2574C146.693 61.2574 146.818 61.2574 146.818 61.3967Z" fill="white"/>
<path d="M151.365 65.4801C151.02 65.4505 150.163 65.4505 149.769 65.4505C149.374 65.4505 148.517 65.4505 148.172 65.4801V65.1747H148.488C149.374 65.1747 149.404 65.0564 149.404 64.7017V59.5977C148.892 59.8539 148.31 59.8539 148.113 59.8539V59.5485C148.429 59.5485 149.296 59.5485 149.907 58.9179C150.133 58.9179 150.133 58.9376 150.133 59.1741V64.7017C150.133 65.0663 150.163 65.1747 151.05 65.1747H151.365V65.4801Z" fill="white"/>
</g>
</svg>
