<svg width="257" height="74" viewBox="0 0 257 74" fill="none" xmlns="http://www.w3.org/2000/svg">
<mask id="mask0_20_235" style="mask-type:alpha" maskUnits="userSpaceOnUse" x="0" y="0" width="257" height="74">
<rect width="257" height="74" fill="#D9D9D9"/>
</mask>
<g mask="url(#mask0_20_235)">
<rect x="84" y="47" width="33" height="23" rx="9" stroke="white" stroke-width="2"/>
<rect x="208" y="47" width="33" height="23" rx="9" stroke="white" stroke-width="2"/>
<rect x="146" y="47" width="33" height="23" rx="9" stroke="white" stroke-width="2"/>
<path d="M118 59H121.5L124 55L128 62L131.5 55L135 62L138.5 55L141 59H145" stroke="white" stroke-width="2" stroke-linejoin="round"/>
<path d="M180 59H183.5L186 55L190 62L193.5 55L197 62L200.5 55L203 59H207" stroke="white" stroke-width="2" stroke-linejoin="round"/>
<path d="M227.818 59.3966C227.818 59.5081 227.303 61.5428 225.993 61.5428C225.338 61.5428 224.85 61.0551 224.85 60.4C224.85 60.1213 224.906 59.968 225.031 59.6335C225.31 58.8949 225.895 57.3061 225.895 56.5117C225.895 56.01 225.742 55.5362 225.142 55.5362C223.623 55.5362 222.885 57.2086 222.843 57.3897L222.007 60.7485C221.895 61.1944 221.812 61.5428 221.38 61.5428C221.17 61.5428 220.975 61.4174 220.975 61.1666C220.975 61.0969 221.101 60.623 221.157 60.3443C221.282 59.8844 221.296 59.8008 221.435 59.2851L221.826 57.6685C221.937 57.2504 222.035 56.8601 222.035 56.5117C222.035 56.0518 221.909 55.5362 221.282 55.5362C219.958 55.5362 219.219 56.8044 219.01 57.2364L218.829 57.9333C218.759 58.2538 218.676 58.5604 218.592 58.867L218.286 60.1213C218.202 60.4697 218.035 61.1247 218.021 61.1526C217.923 61.4314 217.672 61.5428 217.505 61.5428C217.296 61.5428 217.101 61.4174 217.101 61.1666C217.101 61.0969 217.185 60.7763 217.226 60.5673L218.035 57.3479C218.216 56.6232 218.258 56.4699 218.258 56.1772C218.258 55.6477 218.049 55.5362 217.826 55.5362C217.324 55.5362 217.045 56.2051 216.808 57.1946C216.725 57.5012 216.711 57.5152 216.571 57.5152C216.571 57.5152 216.404 57.5152 216.404 57.3758C216.404 57.334 216.585 56.5117 216.836 56.0239C216.962 55.7731 217.226 55.2296 217.868 55.2296C218.495 55.2296 219.08 55.6477 219.15 56.442C219.387 56.1215 220.07 55.2296 221.324 55.2296C221.672 55.2296 222.118 55.2992 222.467 55.5919C222.857 55.9264 222.899 56.4002 222.913 56.5814C223.428 55.8428 224.139 55.2296 225.184 55.2296C226.229 55.2296 226.787 55.8149 226.787 56.7208C226.787 57.5152 226.202 59.0621 225.937 59.7868C225.811 60.0934 225.686 60.4279 225.686 60.7763C225.686 61.0969 225.784 61.2362 226.02 61.2362C226.787 61.2362 227.233 60.2467 227.442 59.5081C227.512 59.2991 227.512 59.2572 227.651 59.2572C227.693 59.2572 227.818 59.2572 227.818 59.3966Z" fill="white"/>
<path d="M232.739 61.7951C232.739 62.8001 231.843 63.6968 230.64 63.6968C229.566 63.6968 228.65 63.0465 228.65 62.1498C228.65 61.7163 228.965 61.5783 229.202 61.5783C229.488 61.5783 229.754 61.7754 229.754 62.1301C229.754 62.5045 229.448 62.7213 229.103 62.672C229.448 63.2534 230.187 63.4209 230.611 63.4209C231.044 63.4209 231.724 63.1351 231.724 61.7951C231.724 60.8295 231.36 60.1595 230.552 60.1595H230.118C229.951 60.1595 229.882 60.1595 229.882 60.0511C229.882 59.9526 229.951 59.9427 230.03 59.9329C230.099 59.9329 230.335 59.9132 230.414 59.9033C230.66 59.8934 230.995 59.8639 231.291 59.3909C231.547 58.9574 231.567 58.3859 231.567 58.2677C231.567 57.3809 231.025 57.1641 230.621 57.1641C230.266 57.1641 229.616 57.2922 229.31 57.775C229.458 57.775 229.921 57.775 229.921 58.2677C229.921 58.5534 229.724 58.7702 229.419 58.7702C229.133 58.7702 228.916 58.583 228.916 58.2578C228.916 57.509 229.665 56.9178 230.66 56.9178C231.606 56.9178 232.473 57.4696 232.473 58.2775C232.473 59.0559 231.902 59.7456 231.094 60.0117C232.118 60.2186 232.739 60.9872 232.739 61.7951Z" fill="white"/>
<path d="M165.818 59.3967C165.818 59.5082 165.303 61.543 163.993 61.543C163.338 61.543 162.85 61.0552 162.85 60.4002C162.85 60.1214 162.906 59.9681 163.031 59.6337C163.31 58.895 163.895 57.3062 163.895 56.5118C163.895 56.0101 163.742 55.5363 163.142 55.5363C161.623 55.5363 160.885 57.2087 160.843 57.3899L160.007 60.7486C159.895 61.1946 159.812 61.543 159.38 61.543C159.17 61.543 158.975 61.4175 158.975 61.1667C158.975 61.097 159.101 60.6232 159.157 60.3444C159.282 59.8845 159.296 59.8009 159.435 59.2852L159.826 57.6686C159.937 57.2505 160.035 56.8603 160.035 56.5118C160.035 56.0519 159.909 55.5363 159.282 55.5363C157.958 55.5363 157.219 56.8045 157.01 57.2366L156.829 57.9334C156.759 58.2539 156.676 58.5605 156.592 58.8671L156.286 60.1214C156.202 60.4698 156.035 61.1249 156.021 61.1527C155.923 61.4315 155.672 61.543 155.505 61.543C155.296 61.543 155.101 61.4175 155.101 61.1667C155.101 61.097 155.185 60.7765 155.226 60.5674L156.035 57.348C156.216 56.6233 156.258 56.47 156.258 56.1774C156.258 55.6478 156.049 55.5363 155.826 55.5363C155.324 55.5363 155.045 56.2052 154.808 57.1947C154.725 57.5013 154.711 57.5153 154.571 57.5153C154.571 57.5153 154.404 57.5153 154.404 57.3759C154.404 57.3341 154.585 56.5118 154.836 56.0241C154.962 55.7732 155.226 55.2297 155.868 55.2297C156.495 55.2297 157.08 55.6478 157.15 56.4422C157.387 56.1216 158.07 55.2297 159.324 55.2297C159.672 55.2297 160.118 55.2994 160.467 55.592C160.857 55.9265 160.899 56.4004 160.913 56.5815C161.428 55.8429 162.139 55.2297 163.184 55.2297C164.229 55.2297 164.787 55.815 164.787 56.7209C164.787 57.5153 164.202 59.0623 163.937 59.787C163.811 60.0936 163.686 60.428 163.686 60.7765C163.686 61.097 163.784 61.2364 164.02 61.2364C164.787 61.2364 165.233 60.2469 165.442 59.5082C165.512 59.2992 165.512 59.2574 165.651 59.2574C165.693 59.2574 165.818 59.2574 165.818 59.3967Z" fill="white"/>
<path d="M170.66 61.7656L170.385 63.4801H166.729C166.729 63.2436 166.729 63.2239 166.837 63.1155L168.729 61.007C169.271 60.3961 169.764 59.6177 169.764 58.8294C169.764 58.0214 169.34 57.2233 168.443 57.2233C167.872 57.2233 167.34 57.5879 167.113 58.2284C167.143 58.2185 167.163 58.2185 167.241 58.2185C167.586 58.2185 167.764 58.4747 167.764 58.7309C167.764 59.1348 167.419 59.2531 167.251 59.2531C167.222 59.2531 166.729 59.2531 166.729 58.7013C166.729 57.8244 167.458 56.9179 168.572 56.9179C169.774 56.9179 170.66 57.7061 170.66 58.8294C170.66 59.8147 170.069 60.3468 168.532 61.7065L167.488 62.7214H169.261C169.478 62.7214 170.128 62.7214 170.197 62.6426C170.296 62.4948 170.365 62.0612 170.414 61.7656H170.66Z" fill="white"/>
<path d="M103.818 59.3967C103.818 59.5082 103.303 61.543 101.993 61.543C101.338 61.543 100.85 61.0552 100.85 60.4002C100.85 60.1214 100.906 59.9681 101.031 59.6337C101.31 58.895 101.895 57.3062 101.895 56.5118C101.895 56.0101 101.742 55.5363 101.142 55.5363C99.6233 55.5363 98.8847 57.2087 98.8429 57.3899L98.0067 60.7486C97.8952 61.1946 97.8116 61.543 97.3795 61.543C97.1705 61.543 96.9754 61.4175 96.9754 61.1667C96.9754 61.097 97.1008 60.6232 97.1566 60.3444C97.282 59.8845 97.2959 59.8009 97.4353 59.2852L97.8255 57.6686C97.937 57.2505 98.0346 56.8603 98.0346 56.5118C98.0346 56.0519 97.9091 55.5363 97.282 55.5363C95.958 55.5363 95.2194 56.8045 95.0103 57.2366L94.8291 57.9334C94.7595 58.2539 94.6758 58.5605 94.5922 58.8671L94.2856 60.1214C94.202 60.4698 94.0348 61.1249 94.0208 61.1527C93.9233 61.4315 93.6724 61.543 93.5052 61.543C93.2961 61.543 93.101 61.4175 93.101 61.1667C93.101 61.097 93.1846 60.7765 93.2264 60.5674L94.0348 57.348C94.2159 56.6233 94.2577 56.47 94.2577 56.1774C94.2577 55.6478 94.0487 55.5363 93.8257 55.5363C93.324 55.5363 93.0453 56.2052 92.8083 57.1947C92.7247 57.5013 92.7108 57.5153 92.5714 57.5153C92.5714 57.5153 92.4042 57.5153 92.4042 57.3759C92.4042 57.3341 92.5854 56.5118 92.8362 56.0241C92.9616 55.7732 93.2264 55.2297 93.8675 55.2297C94.4947 55.2297 95.08 55.6478 95.1497 56.4422C95.3866 56.1216 96.0695 55.2297 97.3238 55.2297C97.6722 55.2297 98.1182 55.2994 98.4666 55.592C98.8568 55.9265 98.8986 56.4004 98.9126 56.5815C99.4282 55.8429 100.139 55.2297 101.184 55.2297C102.229 55.2297 102.787 55.815 102.787 56.7209C102.787 57.5153 102.202 59.0623 101.937 59.787C101.811 60.0936 101.686 60.428 101.686 60.7765C101.686 61.097 101.784 61.2364 102.02 61.2364C102.787 61.2364 103.233 60.2469 103.442 59.5082C103.512 59.2992 103.512 59.2574 103.651 59.2574C103.693 59.2574 103.818 59.2574 103.818 59.3967Z" fill="white"/>
<path d="M108.365 63.4801C108.02 63.4505 107.163 63.4505 106.769 63.4505C106.374 63.4505 105.517 63.4505 105.172 63.4801V63.1747H105.488C106.374 63.1747 106.404 63.0564 106.404 62.7017V57.5977C105.892 57.8539 105.31 57.8539 105.113 57.8539V57.5485C105.429 57.5485 106.296 57.5485 106.907 56.9179C107.133 56.9179 107.133 56.9376 107.133 57.1741V62.7017C107.133 63.0663 107.163 63.1747 108.05 63.1747H108.365V63.4801Z" fill="white"/>
</g>
</svg>
