<svg width="257" height="74" viewBox="0 0 257 74" fill="none" xmlns="http://www.w3.org/2000/svg">
<mask id="mask0_19_1326" style="mask-type:alpha" maskUnits="userSpaceOnUse" x="0" y="0" width="257" height="74">
<rect width="257" height="74" fill="#929292"/>
</mask>
<g mask="url(#mask0_19_1326)">
<rect x="118.7" y="12.7" width="57.2538" height="26.7538" rx="5.3" stroke="white" stroke-width="1.4"/>
<g clip-path="url(#clip0_19_1326)">
<path d="M135.55 27.4204C135.55 27.4204 135.55 27.4695 135.484 27.6493L134.193 31.1802C134.095 31.4581 134.078 31.4581 133.686 31.4581H126.117C125.823 31.4581 125.676 31.4581 125.676 31.2783C125.676 30.9514 125.839 30.9514 126.117 30.9514C127.409 30.9514 127.442 30.8206 127.605 30.1831L129.795 21.4047C129.845 21.2085 129.861 21.1595 129.861 21.0941C129.861 20.8816 129.714 20.8653 129.419 20.8326C129.142 20.7999 128.798 20.7999 128.798 20.7999C128.488 20.7999 128.341 20.7999 128.341 20.6201C128.341 20.2931 128.537 20.2931 128.651 20.2931L130.825 20.3422L133.245 20.2931C133.326 20.2931 133.506 20.2931 133.506 20.4893C133.506 20.7999 133.375 20.7999 132.885 20.7999C131.348 20.7999 131.299 20.9797 131.152 21.5682L128.945 30.3956C128.864 30.6898 128.864 30.7225 128.864 30.7716C128.864 30.9023 128.913 30.9187 129.076 30.935C129.174 30.9514 129.207 30.9514 129.436 30.9514H130.972C133.8 30.9514 134.52 29.0878 135.076 27.5839C135.19 27.3223 135.206 27.2406 135.353 27.2406C135.501 27.2406 135.55 27.355 135.55 27.4204Z" fill="white"/>
<path d="M139.191 27.7941C139.191 28.0253 139.052 28.0253 138.983 28.0253C138.694 28.0253 137.966 27.9906 137.677 27.9906C137.203 27.9906 136.706 28.0253 136.232 28.0253C136.232 28.0253 136.07 28.0253 136.07 27.8981C136.07 27.667 136.186 27.667 136.348 27.667C136.579 27.667 137.18 27.6323 137.18 27.2856C137.18 27.17 137.018 25.5982 136.995 25.3555H134.094C133.308 26.6962 133.297 26.6962 133.216 26.8349C133.123 26.9967 133.054 27.1238 133.054 27.2625C133.054 27.5514 133.331 27.6439 133.597 27.667C133.678 27.667 133.782 27.6785 133.782 27.8057C133.782 28.0253 133.632 28.0253 133.562 28.0253C133.193 28.0253 132.788 27.9906 132.407 27.9906C132.083 27.9906 131.725 28.0253 131.413 28.0253C131.32 28.0253 131.263 27.9675 131.263 27.8981C131.263 27.6785 131.367 27.6785 131.505 27.667C132.014 27.6323 132.465 27.4705 132.927 26.6962L136.949 19.9467C137.018 19.8311 137.064 19.7502 137.249 19.7502C137.446 19.7502 137.446 19.7964 137.469 20.0276L138.174 27.2509C138.209 27.5861 138.209 27.667 138.925 27.667C139.075 27.667 139.191 27.667 139.191 27.7941ZM136.96 24.9972L136.591 21.1833L134.314 24.9972H136.96Z" fill="white"/>
<path d="M148.251 20.571C148.251 20.6201 148.235 20.7835 148.219 20.8489L147.777 23.6933C147.744 23.9385 147.712 24.0693 147.532 24.0693C147.385 24.0693 147.336 23.9548 147.336 23.8568C147.336 23.8077 147.368 23.6116 147.385 23.5462C147.45 23.1211 147.516 22.4836 147.516 22.2384C147.516 20.9633 146.78 20.898 145.129 20.898C144.786 20.898 144.246 20.898 144.099 20.9306C143.903 20.9797 143.838 21.0778 143.723 21.5355L141.549 30.2158C141.484 30.461 141.484 30.559 141.484 30.559C141.484 30.8206 141.614 30.8696 142.088 30.9187C142.513 30.9514 142.726 30.9514 143.135 30.9514C143.56 30.9514 143.69 30.9514 143.69 31.1312C143.69 31.4581 143.494 31.4581 143.331 31.4581C142.873 31.4581 142.383 31.4254 141.909 31.4254L140.552 31.4091L139.162 31.4254C138.721 31.4254 138.263 31.4581 137.822 31.4581C137.724 31.4581 137.544 31.4581 137.544 31.262C137.544 30.9514 137.642 30.9514 138.231 30.9514C139.98 30.9514 140.029 30.7716 140.176 30.1667L142.366 21.4374C142.383 21.3884 142.432 21.1922 142.432 21.0941C142.432 20.9633 142.432 20.898 141.974 20.898H141.336C138.917 20.898 138.492 21.1922 137.609 23.726C137.511 23.9875 137.495 24.0693 137.331 24.0693C137.217 24.0693 137.135 23.9875 137.135 23.8895C137.135 23.8895 137.217 23.6279 137.233 23.5952L138.214 20.7181C138.329 20.4075 138.345 20.3912 138.737 20.3912H147.81C148.088 20.3912 148.251 20.3912 148.251 20.571Z" fill="white"/>
<path d="M158.435 24.3145L158.109 27.1425C158.076 27.4531 158.059 27.5512 157.88 27.5512C157.733 27.5512 157.683 27.4368 157.683 27.355C157.683 27.2733 157.7 27.1589 157.7 27.0608C157.765 26.6194 157.765 26.5867 157.765 26.1944C157.765 24.8539 157.275 24.3799 155.28 24.3799H152.976C152.256 24.3799 152.24 24.4452 152.093 25.0174L151.112 28.957H152.649C154.153 28.957 154.447 28.581 154.79 27.3387C154.839 27.1425 154.872 27.0444 155.019 27.0444C155.133 27.0444 155.215 27.1262 155.215 27.2242L154.283 31.0494C154.218 31.2946 154.169 31.3764 154.038 31.3764C153.891 31.3764 153.826 31.2783 153.826 31.1966C153.826 31.1475 153.842 31.0985 153.875 31.0167C153.989 30.5263 153.989 30.3302 153.989 30.2157C153.989 29.8071 153.989 29.4638 152.6 29.4638H150.981L149.87 33.9265C149.788 34.2208 149.788 34.2535 149.788 34.3025C149.788 34.4333 149.837 34.4496 150 34.466C150.098 34.4823 150.131 34.4823 150.36 34.4823H152.747C155.542 34.4823 156.147 33.3871 157.209 30.9677C157.242 30.8696 157.275 30.7715 157.422 30.7715C157.618 30.7715 157.618 30.9514 157.618 30.9514C157.618 30.9514 157.569 31.0985 157.536 31.1802L156.032 34.7112C155.918 34.9727 155.902 34.9891 155.526 34.9891H147.042C146.731 34.9891 146.584 34.9891 146.584 34.7929C146.584 34.4823 146.764 34.4823 147.042 34.4823C148.333 34.4823 148.366 34.3515 148.529 33.714L150.687 25.0664C150.769 24.7722 150.769 24.7395 150.769 24.6741C150.769 24.3799 150.311 24.3799 149.706 24.3799C149.396 24.3799 149.248 24.3799 149.248 24.2C149.248 23.8731 149.412 23.8731 149.739 23.8731H157.994C158.403 23.8731 158.484 23.8731 158.435 24.3145Z" fill="white"/>
<path d="M170.467 20.4729C170.467 20.7835 170.32 20.7835 170.107 20.7999C169.126 20.8489 168.505 21.2412 168.031 21.6336C167.508 22.0913 165.792 24.0366 164.68 25.1809L166.789 30.2321C167.067 30.886 167.099 30.935 168.195 30.9514C168.325 30.9514 168.489 30.9514 168.489 31.1475C168.489 31.4581 168.293 31.4581 168.178 31.4581C167.77 31.4581 166.772 31.4091 166.364 31.4091L164.304 31.4581C164.239 31.4581 164.059 31.4581 164.059 31.262C164.059 30.9841 164.206 30.9677 164.386 30.9514C165.023 30.886 165.334 30.6081 165.334 30.4773L165.252 30.2485L163.601 26.3415L162.13 27.9435L160.463 29.709C160.266 29.9215 160.021 30.1831 160.021 30.4446C160.021 30.9023 160.528 30.935 160.675 30.9514C160.675 30.9514 160.871 30.9677 160.871 31.1312C160.871 31.4581 160.675 31.4581 160.577 31.4581C159.988 31.4581 159.351 31.4091 158.746 31.4091C158.239 31.4091 157.7 31.4581 157.209 31.4581C156.997 31.4581 156.997 31.2783 156.997 31.2783C156.997 30.9677 157.144 30.9677 157.357 30.9514C158.19 30.9023 158.959 30.6408 159.76 29.7744C159.858 29.6927 159.874 29.6763 159.972 29.5946L163.421 25.8838L161.492 21.323C161.345 20.9633 161.247 20.7999 160.266 20.7999C160.054 20.7999 159.89 20.7999 159.89 20.6201C159.89 20.2931 160.087 20.2931 160.185 20.2931C160.593 20.2931 161.607 20.3422 162.015 20.3422C162.702 20.3422 163.405 20.2931 164.075 20.2931C164.124 20.2931 164.32 20.2931 164.32 20.4893C164.32 20.7672 164.157 20.7835 163.993 20.7999C163.307 20.8653 163.029 21.1759 163.029 21.2739L163.111 21.4864L164.484 24.7395L167.132 21.8951C167.263 21.748 167.443 21.5355 167.443 21.3066C167.443 20.8489 166.936 20.8162 166.789 20.7999C166.674 20.7835 166.593 20.7345 166.593 20.6201C166.593 20.2931 166.805 20.2931 166.903 20.2931C167.492 20.2931 168.113 20.3422 168.718 20.3422C169.225 20.3422 169.764 20.2931 170.254 20.2931C170.467 20.2931 170.467 20.4729 170.467 20.4729Z" fill="white"/>
</g>
<rect x="176.7" y="43.7" width="57.2538" height="26.7538" rx="5.3" stroke="white" stroke-width="1.4"/>
<g clip-path="url(#clip1_19_1326)">
<path d="M193.55 58.4204C193.55 58.4204 193.55 58.4695 193.484 58.6493L192.193 62.1802C192.095 62.4581 192.078 62.4581 191.686 62.4581H184.117C183.823 62.4581 183.676 62.4581 183.676 62.2783C183.676 61.9514 183.839 61.9514 184.117 61.9514C185.409 61.9514 185.442 61.8206 185.605 61.1831L187.795 52.4047C187.845 52.2085 187.861 52.1595 187.861 52.0941C187.861 51.8816 187.714 51.8653 187.419 51.8326C187.142 51.7999 186.798 51.7999 186.798 51.7999C186.488 51.7999 186.341 51.7999 186.341 51.6201C186.341 51.2931 186.537 51.2931 186.651 51.2931L188.825 51.3422L191.245 51.2931C191.326 51.2931 191.506 51.2931 191.506 51.4893C191.506 51.7999 191.375 51.7999 190.885 51.7999C189.348 51.7999 189.299 51.9797 189.152 52.5682L186.945 61.3956C186.864 61.6898 186.864 61.7225 186.864 61.7716C186.864 61.9023 186.913 61.9187 187.076 61.935C187.174 61.9514 187.207 61.9514 187.436 61.9514H188.972C191.8 61.9514 192.52 60.0878 193.076 58.5839C193.19 58.3223 193.206 58.2406 193.353 58.2406C193.501 58.2406 193.55 58.355 193.55 58.4204Z" fill="white"/>
<path d="M197.191 58.7941C197.191 59.0253 197.052 59.0253 196.983 59.0253C196.694 59.0253 195.966 58.9906 195.677 58.9906C195.203 58.9906 194.706 59.0253 194.232 59.0253C194.232 59.0253 194.07 59.0253 194.07 58.8981C194.07 58.667 194.186 58.667 194.348 58.667C194.579 58.667 195.18 58.6323 195.18 58.2856C195.18 58.17 195.018 56.5982 194.995 56.3555H192.094C191.308 57.6962 191.297 57.6962 191.216 57.8349C191.123 57.9967 191.054 58.1238 191.054 58.2625C191.054 58.5514 191.331 58.6439 191.597 58.667C191.678 58.667 191.782 58.6785 191.782 58.8057C191.782 59.0253 191.632 59.0253 191.562 59.0253C191.193 59.0253 190.788 58.9906 190.407 58.9906C190.083 58.9906 189.725 59.0253 189.413 59.0253C189.32 59.0253 189.263 58.9675 189.263 58.8981C189.263 58.6785 189.367 58.6785 189.505 58.667C190.014 58.6323 190.465 58.4705 190.927 57.6962L194.949 50.9467C195.018 50.8311 195.064 50.7502 195.249 50.7502C195.446 50.7502 195.446 50.7964 195.469 51.0276L196.174 58.2509C196.209 58.5861 196.209 58.667 196.925 58.667C197.075 58.667 197.191 58.667 197.191 58.7941ZM194.96 55.9972L194.591 52.1833L192.314 55.9972H194.96Z" fill="white"/>
<path d="M206.251 51.571C206.251 51.6201 206.235 51.7835 206.219 51.8489L205.777 54.6933C205.744 54.9385 205.712 55.0693 205.532 55.0693C205.385 55.0693 205.336 54.9548 205.336 54.8568C205.336 54.8077 205.368 54.6116 205.385 54.5462C205.45 54.1211 205.516 53.4836 205.516 53.2384C205.516 51.9633 204.78 51.898 203.129 51.898C202.786 51.898 202.246 51.898 202.099 51.9306C201.903 51.9797 201.838 52.0778 201.723 52.5355L199.549 61.2158C199.484 61.461 199.484 61.559 199.484 61.559C199.484 61.8206 199.614 61.8696 200.088 61.9187C200.513 61.9514 200.726 61.9514 201.135 61.9514C201.56 61.9514 201.69 61.9514 201.69 62.1312C201.69 62.4581 201.494 62.4581 201.331 62.4581C200.873 62.4581 200.383 62.4254 199.909 62.4254L198.552 62.4091L197.162 62.4254C196.721 62.4254 196.263 62.4581 195.822 62.4581C195.724 62.4581 195.544 62.4581 195.544 62.262C195.544 61.9514 195.642 61.9514 196.231 61.9514C197.98 61.9514 198.029 61.7716 198.176 61.1667L200.366 52.4374C200.383 52.3884 200.432 52.1922 200.432 52.0941C200.432 51.9633 200.432 51.898 199.974 51.898H199.336C196.917 51.898 196.492 52.1922 195.609 54.726C195.511 54.9875 195.495 55.0693 195.331 55.0693C195.217 55.0693 195.135 54.9875 195.135 54.8895C195.135 54.8895 195.217 54.6279 195.233 54.5952L196.214 51.7181C196.329 51.4075 196.345 51.3912 196.737 51.3912H205.81C206.088 51.3912 206.251 51.3912 206.251 51.571Z" fill="white"/>
<path d="M216.435 55.3145L216.109 58.1425C216.076 58.4531 216.059 58.5512 215.88 58.5512C215.733 58.5512 215.683 58.4368 215.683 58.355C215.683 58.2733 215.7 58.1589 215.7 58.0608C215.765 57.6194 215.765 57.5867 215.765 57.1944C215.765 55.8539 215.275 55.3799 213.28 55.3799H210.976C210.256 55.3799 210.24 55.4452 210.093 56.0174L209.112 59.957H210.649C212.153 59.957 212.447 59.581 212.79 58.3387C212.839 58.1425 212.872 58.0444 213.019 58.0444C213.133 58.0444 213.215 58.1262 213.215 58.2242L212.283 62.0494C212.218 62.2946 212.169 62.3764 212.038 62.3764C211.891 62.3764 211.826 62.2783 211.826 62.1966C211.826 62.1475 211.842 62.0985 211.875 62.0167C211.989 61.5263 211.989 61.3302 211.989 61.2157C211.989 60.8071 211.989 60.4638 210.6 60.4638H208.981L207.87 64.9265C207.788 65.2208 207.788 65.2535 207.788 65.3025C207.788 65.4333 207.837 65.4496 208 65.466C208.098 65.4823 208.131 65.4823 208.36 65.4823H210.747C213.542 65.4823 214.147 64.3871 215.209 61.9677C215.242 61.8696 215.275 61.7715 215.422 61.7715C215.618 61.7715 215.618 61.9514 215.618 61.9514C215.618 61.9514 215.569 62.0985 215.536 62.1802L214.032 65.7112C213.918 65.9727 213.902 65.9891 213.526 65.9891H205.042C204.731 65.9891 204.584 65.9891 204.584 65.7929C204.584 65.4823 204.764 65.4823 205.042 65.4823C206.333 65.4823 206.366 65.3515 206.529 64.714L208.687 56.0664C208.769 55.7722 208.769 55.7395 208.769 55.6741C208.769 55.3799 208.311 55.3799 207.706 55.3799C207.396 55.3799 207.248 55.3799 207.248 55.2C207.248 54.8731 207.412 54.8731 207.739 54.8731H215.994C216.403 54.8731 216.484 54.8731 216.435 55.3145Z" fill="white"/>
<path d="M228.467 51.4729C228.467 51.7835 228.32 51.7835 228.107 51.7999C227.126 51.8489 226.505 52.2412 226.031 52.6336C225.508 53.0913 223.792 55.0366 222.68 56.1809L224.789 61.2321C225.067 61.886 225.099 61.935 226.195 61.9514C226.325 61.9514 226.489 61.9514 226.489 62.1475C226.489 62.4581 226.293 62.4581 226.178 62.4581C225.77 62.4581 224.772 62.4091 224.364 62.4091L222.304 62.4581C222.239 62.4581 222.059 62.4581 222.059 62.262C222.059 61.9841 222.206 61.9677 222.386 61.9514C223.023 61.886 223.334 61.6081 223.334 61.4773L223.252 61.2485L221.601 57.3415L220.13 58.9435L218.463 60.709C218.266 60.9215 218.021 61.1831 218.021 61.4446C218.021 61.9023 218.528 61.935 218.675 61.9514C218.675 61.9514 218.871 61.9677 218.871 62.1312C218.871 62.4581 218.675 62.4581 218.577 62.4581C217.988 62.4581 217.351 62.4091 216.746 62.4091C216.239 62.4091 215.7 62.4581 215.209 62.4581C214.997 62.4581 214.997 62.2783 214.997 62.2783C214.997 61.9677 215.144 61.9677 215.357 61.9514C216.19 61.9023 216.959 61.6408 217.76 60.7744C217.858 60.6927 217.874 60.6763 217.972 60.5946L221.421 56.8838L219.492 52.323C219.345 51.9633 219.247 51.7999 218.266 51.7999C218.054 51.7999 217.89 51.7999 217.89 51.6201C217.89 51.2931 218.087 51.2931 218.185 51.2931C218.593 51.2931 219.607 51.3422 220.015 51.3422C220.702 51.3422 221.405 51.2931 222.075 51.2931C222.124 51.2931 222.32 51.2931 222.32 51.4893C222.32 51.7672 222.157 51.7835 221.993 51.7999C221.307 51.8653 221.029 52.1759 221.029 52.2739L221.111 52.4864L222.484 55.7395L225.132 52.8951C225.263 52.748 225.443 52.5355 225.443 52.3066C225.443 51.8489 224.936 51.8162 224.789 51.7999C224.674 51.7835 224.593 51.7345 224.593 51.6201C224.593 51.2931 224.805 51.2931 224.903 51.2931C225.492 51.2931 226.113 51.3422 226.718 51.3422C227.225 51.3422 227.764 51.2931 228.254 51.2931C228.467 51.2931 228.467 51.4729 228.467 51.4729Z" fill="white"/>
</g>
<path d="M176.11 26.4632C191.61 26.4632 207.61 26.4632 207.61 43.4632" stroke="white" stroke-width="1.4"/>
<path d="M176.575 57C161.075 57 145.075 57 145.075 40" stroke="white" stroke-width="1.4"/>
</g>
<defs>
<clipPath id="clip0_19_1326">
<rect width="45.4333" height="17.3357" fill="white" transform="translate(125.038 18.8654)"/>
</clipPath>
<clipPath id="clip1_19_1326">
<rect width="45.4333" height="17.3357" fill="white" transform="translate(183.038 49.8654)"/>
</clipPath>
</defs>
</svg>
