<svg width="257" height="74" viewBox="0 0 257 74" fill="none" xmlns="http://www.w3.org/2000/svg">
<mask id="mask0_19_1416" style="mask-type:alpha" maskUnits="userSpaceOnUse" x="0" y="0" width="257" height="74">
<rect width="257" height="74" fill="#D9D9D9"/>
</mask>
<g mask="url(#mask0_19_1416)">
<path d="M108 67.5C107.448 67.5 107 67.9477 107 68.5C107 69.0523 107.448 69.5 108 69.5V67.5ZM237 68.5L227 62.7265V74.2735L237 68.5ZM108 69.5H228V67.5H108V69.5Z" fill="white"/>
<circle cx="132.5" cy="68.5" r="2.5" fill="white"/>
<circle cx="175.5" cy="68.5" r="2.5" fill="white"/>
<path d="M132.5 55C133 52 134 51 136 50H129C131 51 131.907 51.9601 132.5 55Z" fill="white"/>
<path d="M132.5 68V55M132.5 55C133 52 134 51 136 50H129C131 51 131.907 51.9601 132.5 55Z" stroke="white" stroke-width="1.2"/>
<path d="M175.5 38C176 35 177 34 179 33H172C174 34 174.907 34.9601 175.5 38Z" fill="white"/>
<path d="M175.5 68.5V38M175.5 38C176 35 177 34 179 33H172C174 34 174.907 34.9601 175.5 38Z" stroke="white" stroke-width="1.2"/>
<path d="M204.5 61C205 58 206 57 208 56H201C203 57 203.907 57.9601 204.5 61Z" fill="white"/>
<path d="M204.5 68.5V61M204.5 61C205 58 206 57 208 56H201C203 57 203.907 57.9601 204.5 61Z" stroke="white" stroke-width="1.2"/>
<rect x="115" y="27" width="35" height="23" rx="4" stroke="white" stroke-width="2"/>
<circle cx="204.5" cy="68.5" r="2.5" fill="white"/>
<rect x="187" y="37" width="35" height="19" rx="4" stroke="white" stroke-width="2"/>
<rect x="155" y="10" width="44" height="23" rx="4" stroke="white" stroke-width="2"/>
</g>
</svg>
