<svg width="257" height="74" viewBox="0 0 257 74" fill="none" xmlns="http://www.w3.org/2000/svg">
<mask id="mask0_19_1607" style="mask-type:alpha" maskUnits="userSpaceOnUse" x="0" y="0" width="257" height="74">
<rect width="257" height="74" fill="#D9D9D9"/>
</mask>
<g mask="url(#mask0_19_1607)">
<rect x="113" y="49" width="137" height="21" rx="4" stroke="white" stroke-width="2"/>
<path d="M126.003 62.2419C126.003 62.4091 124.832 63.886 122.84 63.886C121.391 63.886 120.583 62.7853 120.583 61.5313C120.583 59.5667 122.436 57.5743 124.317 57.5743C125.306 57.5743 125.961 58.0898 125.961 58.7726C125.961 59.3299 125.585 59.6643 125.181 59.6643C124.916 59.6643 124.665 59.511 124.665 59.1766C124.665 59.0791 124.693 58.8422 124.916 58.6332C125.111 58.4382 125.306 58.4382 125.529 58.4382C125.334 58.062 124.804 57.8808 124.331 57.8808C123.564 57.8808 122.798 58.48 122.366 59.2741C121.892 60.138 121.614 61.4895 121.614 62.0608C121.614 62.8968 121.99 63.5795 122.868 63.5795C123.035 63.5795 124.554 63.5795 125.654 62.2001C125.738 62.0887 125.766 62.0608 125.835 62.0608C125.919 62.0608 126.003 62.1583 126.003 62.2419Z" fill="white"/>
<path d="M139.964 58.8979C139.964 59.0512 139.838 59.1766 139.685 59.1766H130.963C130.81 59.1766 130.684 59.0512 130.684 58.8979C130.684 58.7447 130.81 58.6193 130.963 58.6193H139.685C139.838 58.6193 139.964 58.7447 139.964 58.8979ZM139.964 61.601C139.964 61.7542 139.838 61.8796 139.685 61.8796H130.963C130.81 61.8796 130.684 61.7542 130.684 61.601C130.684 61.4477 130.81 61.3223 130.963 61.3223H139.685C139.838 61.3223 139.964 61.4477 139.964 61.601Z" fill="white"/>
<path d="M152.225 61.7403C152.225 61.8518 151.709 63.886 150.4 63.886C149.745 63.886 149.257 63.3984 149.257 62.7435C149.257 62.4649 149.327 62.2977 149.438 61.9772C149.773 61.1273 150.302 59.6085 150.302 58.8562C150.302 58.3546 150.149 57.8808 149.55 57.8808C148.951 57.8808 148.519 58.1456 148.212 58.3685C147.739 58.7447 147.307 59.5249 147.265 59.6503C147.251 59.7339 147.139 60.1937 147.112 60.2773C147.042 60.5978 146.958 60.9043 146.875 61.2109L146.568 62.4649L146.303 63.5238C146.234 63.7188 146.011 63.886 145.788 63.886C145.662 63.886 145.384 63.8164 145.384 63.4959C145.384 63.4123 145.384 63.3845 145.44 63.1894L146.875 57.4907L145.788 58.1595C145.76 58.1734 145.732 58.1874 145.69 58.1874C145.607 58.1874 145.523 58.1177 145.523 58.0202C145.523 57.9644 145.565 57.9087 145.607 57.8808L146.986 57.0309L147.46 55.1638L147.502 54.8852C147.502 54.7459 147.474 54.6483 146.805 54.6483C146.596 54.6483 146.471 54.6483 146.471 54.4811C146.471 54.2303 146.624 54.2164 146.735 54.2025C147.098 54.1746 148.115 54.0631 148.435 54.0631C148.616 54.0631 148.616 54.2164 148.616 54.2164L148.087 56.3621L150.177 55.0942C150.191 55.0802 150.233 55.0663 150.26 55.0663C150.344 55.0663 150.428 55.136 150.428 55.2335C150.428 55.2892 150.4 55.345 150.344 55.3728L147.975 56.8219L147.53 58.6472C148.045 58.0062 148.714 57.5743 149.592 57.5743C150.637 57.5743 151.194 58.1595 151.194 59.0652C151.194 59.8733 150.567 61.5313 150.344 62.1305C150.219 62.437 150.093 62.7714 150.093 63.1197C150.093 63.4402 150.191 63.5795 150.428 63.5795C151.194 63.5795 151.64 62.5903 151.849 61.8518C151.918 61.6428 151.918 61.601 152.058 61.601C152.1 61.601 152.225 61.601 152.225 61.7403Z" fill="white"/>
<path d="M166.576 58.8979C166.576 59.0512 166.451 59.1766 166.298 59.1766H157.575C157.422 59.1766 157.297 59.0512 157.297 58.8979C157.297 58.7447 157.422 58.6193 157.575 58.6193H166.298C166.451 58.6193 166.576 58.7447 166.576 58.8979ZM166.576 61.601C166.576 61.7542 166.451 61.8796 166.298 61.8796H157.575C157.422 61.8796 157.297 61.7542 157.297 61.601C157.297 61.4477 157.422 61.3223 157.575 61.3223H166.298C166.451 61.3223 166.576 61.4477 166.576 61.601Z" fill="white"/>
<path d="M177.207 58.2152C177.207 58.4103 177.012 58.5914 176.831 58.5914C176.734 58.5914 176.706 58.5635 176.552 58.4521C175.995 58.062 175.493 58.062 175.271 58.062C174.017 58.062 172.651 58.5635 172.651 59.4135C172.651 59.7897 172.888 60.0544 173.208 60.2216C173.724 59.9847 174.212 59.9569 174.504 59.9569C175.034 59.9569 175.521 59.9987 175.521 60.3331C175.521 60.765 174.755 60.765 174.393 60.765C174.058 60.765 173.654 60.765 173.194 60.5699C172.345 60.9879 171.954 61.7264 171.954 62.2001C171.954 63.1894 173.139 63.3984 173.989 63.3984C175.661 63.3984 175.995 62.8828 176.19 62.5624C176.218 62.5206 176.26 62.4649 176.329 62.4649C176.413 62.4649 176.483 62.5206 176.483 62.6042C176.483 62.8132 175.702 64.0393 173.863 64.0393C172.386 64.0393 171.592 63.1894 171.592 62.2837C171.592 61.6428 172.038 60.8625 172.86 60.4027C172.804 60.3609 172.303 60.0126 172.303 59.4135C172.303 58.3545 173.808 57.421 175.41 57.421C176.357 57.421 177.207 57.9505 177.207 58.2152ZM175.159 60.347C174.908 60.2773 174.853 60.2634 174.504 60.2634C174.267 60.2634 173.975 60.2773 173.654 60.3888C173.919 60.4585 174.086 60.4585 174.393 60.4585C174.922 60.4585 174.95 60.4445 175.159 60.347Z" fill="white"/>
<path d="M182.254 62.6705C182.254 63.4487 182.205 64.2171 181.89 64.8968C181.456 65.8326 180.708 66.0395 180.176 66.0395C179.693 66.0395 178.974 65.8425 178.55 65.0446C178.146 64.2959 178.107 63.4093 178.107 62.6705C178.107 61.8825 178.156 61.1141 178.471 60.4344C178.875 59.5183 179.594 59.2621 180.185 59.2621C180.599 59.2621 181.407 59.4198 181.86 60.3654C182.205 61.0944 182.254 61.8825 182.254 62.6705ZM181.437 62.5523C181.437 61.9317 181.437 61.183 181.338 60.6314C181.151 59.6562 180.501 59.4789 180.176 59.4789C179.929 59.4789 179.191 59.5675 179.003 60.7398C178.925 61.2717 178.925 61.9219 178.925 62.5523C178.925 63.1335 178.925 64.0398 179.033 64.6308C179.21 65.5765 179.791 65.8228 180.176 65.8228C180.619 65.8228 181.18 65.5272 181.328 64.5914C181.437 63.961 181.437 63.2911 181.437 62.5523Z" fill="white"/>
<path d="M197.968 58.8979C197.968 59.0512 197.842 59.1766 197.689 59.1766H188.967C188.814 59.1766 188.688 59.0512 188.688 58.8979C188.688 58.7447 188.814 58.6193 188.967 58.6193H197.689C197.842 58.6193 197.968 58.7447 197.968 58.8979ZM197.968 61.601C197.968 61.7542 197.842 61.8796 197.689 61.8796H188.967C188.814 61.8796 188.688 61.7542 188.688 61.601C188.688 61.4477 188.814 61.3223 188.967 61.3223H197.689C197.842 61.3223 197.968 61.4477 197.968 61.601Z" fill="white"/>
<path d="M209.7 58.4521C209.7 58.9955 209.296 59.302 208.933 59.302C208.557 59.302 208.404 59.0373 208.404 58.8144C208.404 58.6472 208.529 58.1038 209.198 58.062C209.17 58.0341 209.17 58.0202 209.142 58.0062C209.031 57.9226 209.017 57.9226 208.85 57.8948C208.822 57.8808 208.808 57.8808 208.724 57.8808C208.042 57.8808 207.401 58.48 206.732 59.2184C206.411 59.5528 205.965 59.9987 205.534 60.2495C206.718 60.4027 207.596 60.8068 207.596 61.7125C207.596 61.8518 207.596 61.9075 207.54 62.1444C207.484 62.3673 207.428 62.6878 207.428 62.9247C207.428 63.4263 207.61 63.5795 207.874 63.5795C208.487 63.5795 208.808 62.8689 209.087 61.8518C209.128 61.6567 209.142 61.601 209.282 61.601C209.323 61.601 209.449 61.601 209.449 61.7403C209.449 61.7403 209.296 62.5345 208.947 63.1476C208.641 63.6631 208.264 63.886 207.846 63.886C207.122 63.886 206.565 63.3287 206.565 62.5067C206.565 62.3534 206.592 62.1862 206.62 62.019C206.662 61.8797 206.662 61.8239 206.662 61.7264C206.662 60.8068 205.52 60.5839 205.046 60.5421C204.962 60.8904 204.335 63.4681 204.266 63.5934C204.182 63.7606 203.973 63.886 203.792 63.886C203.666 63.886 203.388 63.8164 203.388 63.4959C203.388 63.4123 203.388 63.3845 203.444 63.1894L205.464 55.1638L205.506 54.8852C205.506 54.7459 205.478 54.6483 204.809 54.6483C204.6 54.6483 204.475 54.6483 204.475 54.4811C204.475 54.2303 204.628 54.2164 204.739 54.2025C205.102 54.1746 206.119 54.0631 206.439 54.0631C206.62 54.0631 206.62 54.2164 206.62 54.2164L205.171 60.0962C205.701 59.8872 206.244 59.3299 206.718 58.8004C207.721 57.6858 208.362 57.5743 208.752 57.5743C209.379 57.5743 209.7 58.0341 209.7 58.4521Z" fill="white"/>
<path d="M217.328 60.4541C217.328 61.3899 216.294 62.1189 215.269 62.306C216.225 62.4144 216.796 62.9857 216.796 63.695C216.796 64.6604 215.634 65.8228 214.077 65.8228H210.56C210.383 65.8228 210.294 65.8228 210.294 65.7144C210.294 65.5174 210.393 65.5174 210.56 65.5174C211.339 65.5174 211.358 65.4386 211.457 65.0544L212.777 59.7645C212.806 59.6463 212.816 59.6168 212.816 59.5774C212.816 59.4493 212.728 59.4394 212.55 59.4197C212.383 59.4 212.176 59.4 212.176 59.4C211.989 59.4 211.9 59.4 211.9 59.2917C211.9 59.0947 211.999 59.0947 212.186 59.0947H215.496C216.678 59.0947 217.328 59.7251 217.328 60.4541ZM216.431 60.4147C216.431 59.9812 216.225 59.4 215.358 59.4H214.087C213.663 59.4 213.644 59.4296 213.555 59.7744L212.944 62.2174H214.383C215.584 62.2174 216.431 61.2815 216.431 60.4147ZM215.88 63.5866C215.88 63.163 215.693 62.4341 214.747 62.4341H212.885L212.205 65.1825C212.156 65.3598 212.156 65.3795 212.156 65.409C212.156 65.4878 212.186 65.4977 212.284 65.5075C212.343 65.5174 212.363 65.5174 212.501 65.5174H213.841C215.003 65.5174 215.88 64.5619 215.88 63.5866Z" fill="white"/>
<path d="M232.676 58.8979C232.676 59.0512 232.55 59.1766 232.397 59.1766H223.675C223.521 59.1766 223.396 59.0512 223.396 58.8979C223.396 58.7447 223.521 58.6193 223.675 58.6193H232.397C232.55 58.6193 232.676 58.7447 232.676 58.8979ZM232.676 61.601C232.676 61.7542 232.55 61.8796 232.397 61.8796H223.675C223.521 61.8796 223.396 61.7542 223.396 61.601C223.396 61.4477 223.521 61.3223 223.675 61.3223H232.397C232.55 61.3223 232.676 61.4477 232.676 61.601Z" fill="white"/>
<path d="M243.167 63.7328C242.68 63.691 241.467 63.691 240.91 63.691C240.353 63.691 239.14 63.691 238.653 63.7328V63.3009H239.099C240.353 63.3009 240.394 63.1337 240.394 62.6321V55.4146C239.67 55.7769 238.848 55.7769 238.569 55.7769V55.345C239.015 55.345 240.241 55.345 241.105 54.4533C241.426 54.4533 241.426 54.4811 241.426 54.8155V62.6321C241.426 63.1476 241.467 63.3009 242.721 63.3009H243.167V63.7328Z" fill="white"/>
</g>
</svg>
