<svg width="257" height="74" viewBox="0 0 257 74" fill="none" xmlns="http://www.w3.org/2000/svg">
<mask id="mask0_25_63" style="mask-type:alpha" maskUnits="userSpaceOnUse" x="0" y="0" width="257" height="74">
<rect width="257" height="74" fill="#D9D9D9"/>
</mask>
<g mask="url(#mask0_25_63)">
<path d="M80.0353 21.5624C80.5008 20.2625 82.0852 19.641 83.5741 20.1743L90.8917 22.795C92.3806 23.3282 93.2103 24.8143 92.7447 26.1141L92.5971 26.5265L91.2066 30.409L91.0589 30.8214C90.5934 32.1212 89.009 32.7427 87.52 32.2094L80.2024 29.5887C78.7135 29.0555 77.8839 27.5694 78.3494 26.2696L80.0353 21.5624Z" fill="white"/>
<path d="M92.5971 26.5265L97.5983 25.9084L94.6783 34.0616L91.2066 30.409L92.5971 26.5265Z" fill="white"/>
<path d="M97.7104 34.3574L105.172 40.2162" stroke="white" stroke-linecap="round"/>
<path d="M98.7502 30.9849L107.223 34.0194" stroke="white" stroke-linecap="round"/>
<path d="M99.7728 27.6606L109.257 27.8708" stroke="white" stroke-linecap="round"/>
<path fill-rule="evenodd" clip-rule="evenodd" d="M236.66 28.2673C238.822 27.0022 239.388 26.3965 238.934 25.8305C238.686 25.5218 238.023 25.3082 236.886 25.1711C235.585 25.0143 230.889 25.3043 227.627 25.7428C225.334 26.0511 221.746 26.2862 219.305 26.288C218.692 26.2885 217.562 26.2909 216.794 26.2934C208.432 26.32 201.558 25.1442 196.076 22.7497C192.957 21.3869 189.63 19.5673 187.815 18.4866C186.001 17.406 179.82 14.9573 176.239 14.497C174.434 14.265 171.725 14.14 170.743 14.2433C168.326 14.4974 167.262 14.6574 166.097 14.9414C160.767 16.2402 156.686 18.5545 152.356 22.7343C150.746 24.2876 147.763 28.8227 147.206 30.0969C146.65 31.3711 145.781 33.4104 145.025 34.7037C142.175 39.5743 140.134 41.7578 134.883 45.5555C130.707 48.5767 123.946 52.3785 117.309 55.4391L113.643 57.1288C111.094 58.3041 109.335 59.2391 106.841 60.7454C103.913 62.513 103.531 63.3055 105.372 63.7871C106.351 64.0431 107.779 64.0288 110.537 63.7356C111.274 63.6573 112.089 63.5801 112.348 63.5639C112.852 63.5328 115.694 63.1024 118.157 62.6846C126.422 61.2817 134.367 59.64 145.216 57.0931C146.539 56.7825 147.663 56.5392 147.714 56.5525C147.764 56.5659 147.945 57.2603 148.116 58.0958C148.644 60.6769 150.51 63.5329 153.256 65.9642C157.011 69.2879 164.395 72.1207 169.796 72.3095C171.899 72.3829 174.578 72.2988 174.847 72.1511C174.912 72.1158 175.008 72.0938 175.107 72.088C175.183 72.0836 175.26 72.0888 175.324 72.1049C175.634 72.182 178.997 71.4822 180.366 71.0558C181.972 70.5556 184.532 69.4682 186.141 68.6033C188.661 67.2482 192.252 64.4391 194.165 62.326C194.691 61.745 195.217 61.1678 195.333 61.0435C195.449 60.9193 195.736 60.572 195.969 60.272C199.003 56.3738 199.88 54.6339 200.79 51.1827C201.699 47.7315 201.453 46.2196 200.38 43.5637C200.123 42.9274 199.936 42.333 199.896 42.1977C199.824 41.9516 200.393 41.7314 204.311 40.4901C205.259 40.1897 206.768 39.7006 207.664 39.4036C208.561 39.1063 209.889 38.6689 210.616 38.4315C210.932 38.3285 211.248 38.2239 211.52 38.1333C211.874 38.015 212.151 37.9206 212.247 37.8848C212.418 37.8217 213.333 37.521 214.283 37.2167C215.232 36.9122 216.244 36.5637 216.532 36.442C216.819 36.3202 217.417 36.1147 217.86 35.9851C218.304 35.8554 218.717 35.716 218.779 35.6753C218.84 35.6345 219.723 35.303 220.739 34.939C221.755 34.5748 223.33 33.9954 224.238 33.6515C225.147 33.3075 226.446 32.8213 227.126 32.5711C227.805 32.3209 228.413 32.0774 228.477 32.0297C228.518 31.9989 228.69 31.9227 228.914 31.8341C229.035 31.7858 229.172 31.7338 229.312 31.6835C231.378 30.937 234.875 29.3117 236.66 28.2673ZM205.471 31.8701C208.096 32.2084 210.06 32.188 212.181 31.8009C212.983 31.6542 213.731 31.7953 213.559 32.0607C213.493 32.1622 212.596 32.4439 211.566 32.6868C210.536 32.9299 209.306 33.2689 208.833 33.4405C208.361 33.6123 207.93 33.7409 207.875 33.7266C207.821 33.7123 207.335 33.8669 206.796 34.0706C206.256 34.2742 205.684 34.4604 205.524 34.4846C205.365 34.5086 204.405 34.8172 203.392 35.1704C201.379 35.8719 200.173 36.2028 199.896 36.1296C199.798 36.1038 199.668 35.795 199.609 35.4432C199.549 35.0914 199.443 34.6198 199.374 34.3948C199.305 34.1698 199.097 33.4808 198.912 32.8636C198.727 32.2463 198.289 31.2216 197.937 30.5863C197.248 29.3387 197.305 29.3065 198.78 30.108C200.038 30.7912 202.855 31.5328 205.471 31.8701ZM169.143 23.7371C171.274 23.331 171.748 23.2936 173.984 23.3544C175.592 23.3981 176.186 23.5064 178.595 24.1945C182.971 25.4444 185.874 27.272 188.776 30.6021C190.26 32.3049 192.041 35.7782 192.525 37.9106C192.614 38.3018 192.568 38.4184 192.241 38.6341C191.685 39.0003 191.109 38.7947 191.008 38.1945C190.829 37.1215 189.292 33.6461 188.468 32.451C185.646 28.3606 182.167 25.8186 177.818 24.6713C172.227 23.1961 165.794 24.6632 161.602 28.3695C159.597 30.1429 158.72 31.2489 157.23 33.886C156.408 35.3424 156.308 35.6327 155.63 38.5368C154.902 41.6556 154.896 41.7191 154.939 45.4887C154.956 46.9594 154.357 49.1403 153.867 49.3929C153.516 49.5741 153.047 49.5774 152.577 49.4023C152.342 49.3151 151.871 46.9574 151.76 45.3131C151.304 38.5741 154.451 31.9927 160.178 27.7116C162.851 25.7128 165.925 24.3503 169.143 23.7371ZM156.722 38.1673C158.798 30.3315 165.569 25.0519 173.468 25.1099C175.943 25.1281 178.955 25.9187 181.079 27.1075C183.913 28.6943 185.198 29.8119 187.073 32.3247C188.642 34.4273 190.37 38.5565 189.935 39.1644C189.789 39.3692 187.154 40.2322 185.112 40.7441C184.737 40.8383 183.873 41.0828 183.194 41.2877C182.514 41.4923 181.83 41.6846 181.674 41.7147C181.518 41.7449 181.025 41.8846 180.579 42.0253C180.133 42.1659 179.364 42.3846 178.871 42.5112C178.377 42.6378 177.61 42.8532 177.165 42.9898C176.72 43.1264 175.905 43.3622 175.354 43.5137C173.233 44.0972 169.723 45.0811 169.432 45.1733C169.265 45.2265 167.369 45.754 165.22 46.3458C163.07 46.9373 160.765 47.5903 160.097 47.7968C158.021 48.4386 157.193 48.5763 157.006 48.3105C156.591 47.7226 156.207 44.7164 156.208 42.0718C156.21 40.4772 156.308 39.729 156.722 38.1673ZM191.817 44.5153L192.45 44.2325C192.797 44.0768 193.12 43.9902 193.166 44.0397C193.213 44.0892 193.116 45.0491 192.95 46.1727C192.692 47.9313 192.534 48.4988 191.819 50.251C190.52 53.4299 188.652 56.0846 186.132 58.3327C184.805 59.5166 180.846 61.8245 179.094 62.4358C175.236 63.7821 171.242 64.0166 167.162 63.1364C162.597 62.1515 158.18 59.3052 155.559 55.6591C155.241 55.2172 154.994 54.8055 155.01 54.744C155.026 54.6827 155.784 54.4606 156.694 54.2506C158.51 53.8312 158.586 53.8545 159.452 55.0844C159.908 55.7315 161.857 57.6373 162.646 58.2073C165.05 59.9438 165.61 60.2005 168.947 61.0951C172.725 62.1081 173.864 62.1599 177.097 61.4657C180.832 60.6636 184.287 58.6908 186.734 55.9634C187.974 54.5804 188.405 53.9533 189.526 51.9006C190.334 50.4213 190.492 49.9735 191.12 47.387L191.817 44.5153ZM185.797 46.1964C187.457 45.7186 189.184 45.1979 189.634 45.0392L190.454 44.7504L190.43 45.4352C190.416 45.8118 190.062 47.2553 189.643 48.6433C188.968 50.8809 188.769 51.3391 187.887 52.6891C186.093 55.4348 184.614 56.8656 181.921 58.4624C180.883 59.0779 179.669 59.6946 179.224 59.8327C174.288 61.3649 170.131 61.1113 165.955 59.0234C163.151 57.6217 159.138 53.9386 159.852 53.4229C159.987 53.3252 160.162 53.2622 160.241 53.2829C160.319 53.3037 161.224 53.0868 162.25 52.8011C162.799 52.6484 163.847 52.3617 165.065 52.0307C166.127 51.7423 167.317 51.4201 168.419 51.1236C173.086 49.8675 180.924 47.6699 182.068 47.2967C182.46 47.1691 184.138 46.674 185.797 46.1964ZM142.845 46.6113C142.898 46.4119 143.064 46.1152 143.214 45.9521C143.578 45.5577 143.796 45.8248 143.629 46.4596C143.481 47.0193 143.552 47.7297 143.966 49.8322C144.116 50.5953 144.203 51.3481 144.16 51.5053C144.106 51.6982 143.011 52.0191 140.787 52.4939C138.975 52.8805 136.986 53.3648 136.366 53.57C134.119 54.314 133.689 53.8279 135.8 52.9283C137.019 52.4085 139.184 50.8954 140.211 49.8458C141.324 48.7087 142.756 46.95 142.845 46.6113Z" fill="white"/>
</g>
</svg>
