<svg width="257" height="74" viewBox="0 0 257 74" fill="none" xmlns="http://www.w3.org/2000/svg">
<mask id="mask0_23_37" style="mask-type:alpha" maskUnits="userSpaceOnUse" x="0" y="0" width="257" height="74">
<rect width="257" height="74" fill="#D9D9D9"/>
</mask>
<g mask="url(#mask0_23_37)">
<rect x="177.128" y="26.1284" width="44.2056" height="44.2335" rx="7.89883" stroke="white" stroke-width="2.25681"/>
<path d="M176.902 53.8871C185.942 64.0421 189.533 49.8248 194.946 49.8248C200.359 49.8248 202.84 57.4979 207.576 57.4979C212.313 57.4979 215.245 48.0194 221.994 50.0511" stroke="white" stroke-width="2.25681"/>
<path fill-rule="evenodd" clip-rule="evenodd" d="M188.316 51.8208C188.769 51.3502 189.245 50.8604 189.717 50.4132C189.811 50.3243 189.908 50.2339 190.007 50.1428C187.371 44.6686 184.647 36.9101 181.824 26.7295L179.649 27.3327C182.6 37.9736 185.477 46.1144 188.316 51.8208ZM191.995 53.8664C193.231 55.9274 194.421 57.4315 195.557 58.4327C196.913 59.628 198.114 60.0437 199.196 59.956C200.3 59.8666 201.529 59.2349 202.885 57.8176C202.902 57.8001 202.919 57.7826 202.936 57.7649C203.012 57.8238 203.089 57.8816 203.166 57.9383C203.69 58.3215 204.269 58.6779 204.905 58.9557C204.776 59.1012 204.646 59.242 204.516 59.378C202.946 61.0188 201.235 62.055 199.379 62.2054C197.501 62.3575 195.72 61.5849 194.065 60.1257C192.809 59.0186 191.581 57.481 190.372 55.5382C190.483 55.4244 190.593 55.3116 190.701 55.2003C190.842 55.0538 190.98 54.911 191.114 54.7715L191.114 54.7714C191.421 54.4527 191.711 54.1519 191.995 53.8664ZM207.43 55.462C206.876 55.4267 206.287 55.1878 205.565 54.6596C205.499 54.6111 205.433 54.5611 205.367 54.5097C205.928 53.6022 206.496 52.579 207.068 51.438C209.927 45.7421 212.807 37.3258 215.733 26.2905L217.914 26.8689C214.976 37.9504 212.049 46.5448 209.085 52.4503C208.539 53.5395 207.987 54.5447 207.43 55.462Z" fill="white"/>
</g>
</svg>
