<svg width="257" height="74" viewBox="0 0 257 74" fill="none" xmlns="http://www.w3.org/2000/svg">
<mask id="mask0_25_134" style="mask-type:alpha" maskUnits="userSpaceOnUse" x="0" y="0" width="257" height="74">
<rect width="257" height="74" fill="#D9D9D9"/>
</mask>
<g mask="url(#mask0_25_134)">
<path fill-rule="evenodd" clip-rule="evenodd" d="M214.083 44.1663C213.32 45.0185 213.125 46.2435 213.569 47.388L213.723 47.7849L217.063 51.8996C219.615 55.0442 220.378 56.0639 220.464 56.1689C220.256 56.5152 220.464 56.1689 220.155 56.6889C219.168 58.0401 219.075 59.489 219.88 60.9332C220.15 61.4164 220.79 62.1975 221.294 62.6576C222.066 63.3638 223.007 64.0126 224.206 64.6672C225.145 65.1796 225.807 65.474 226.631 65.7456C227.924 66.1713 228.518 66.4342 229.091 66.8347C229.439 67.0776 229.504 67.1448 230.319 68.0985C231.234 69.1691 230.319 68.0985 231.566 69.5288C231.665 69.6505 231.836 69.6584 232 69.5239C232.165 69.3895 238.082 64.5453 238.082 64.5453L244.018 59.6854C244.214 59.5245 244.239 59.1536 244.067 58.9436L242.57 57.0776C241.089 55.2196 240.839 54.8559 240.338 53.8254C240.183 53.5068 239.945 52.9453 239.809 52.5775C239.493 51.7241 239.143 50.9407 238.811 50.3442C238.567 49.9047 238.429 49.7251 236.717 47.6074C234.658 45.061 234.674 45.0779 233.963 44.7251C233.082 44.2876 232.091 44.2662 231.285 44.6674C230.928 44.8456 230.478 45.2433 230.21 45.6179C229.974 45.9468 229.879 45.9712 229.391 45.8271C228.623 45.6004 227.901 45.6317 227.254 45.92C226.978 46.0432 226.428 46.4968 226.078 46.8897C225.914 47.0738 225.769 47.0681 225.311 46.8599C224.619 46.5454 223.871 46.4697 223.216 46.6478C222.747 46.7751 222.402 46.9809 221.944 47.4063C221.604 47.7223 221.551 47.7586 221.458 47.7374C221.371 47.7177 221.103 47.4133 219.852 45.9177C218.386 44.1649 218.343 44.1169 218.055 43.927C217.448 43.5257 216.905 43.3333 216.284 43.2998C215.426 43.2536 214.614 43.5734 214.083 44.1663ZM215.935 45.3916C216.168 45.3084 216.434 45.3211 216.7 45.4279L216.941 45.5246L219.811 48.9956C223.003 52.8552 222.783 52.6191 223.266 52.6962C223.549 52.7413 223.747 52.6845 223.984 52.4906C224.215 52.3015 224.325 52.0638 224.325 51.753C224.326 51.4496 224.253 51.309 223.756 50.6535C223.367 50.1397 223.312 50.048 223.248 49.8079C223.033 48.9915 223.734 48.3911 224.546 48.6966L224.8 48.7924L225.98 50.1974C227.27 51.7331 227.298 51.7598 227.711 51.8284C228.344 51.9336 228.88 51.3757 228.77 50.7249C228.726 50.4628 228.713 50.4395 228.254 49.8402C227.867 49.3341 227.771 49.1845 227.717 48.9987C227.586 48.5521 227.68 48.196 228 47.929C228.286 47.6907 228.617 47.6544 229.006 47.8185L229.282 47.9348L230.292 49.1319C231.254 50.2735 231.311 50.3331 231.502 50.4191C231.932 50.6117 232.34 50.5475 232.641 50.2401C232.862 50.0141 232.941 49.7335 232.879 49.3985C232.833 49.1545 232.808 49.1119 232.347 48.509C231.936 47.9704 231.857 47.8447 231.815 47.6673C231.713 47.2392 231.828 46.8777 232.15 46.6148C232.471 46.352 232.957 46.369 233.37 46.6575C233.657 46.8585 236.532 50.3789 236.909 50.9912C237.255 51.5549 237.552 52.1961 237.925 53.1909C238.616 55.0312 239.203 56.0326 240.569 57.7013C241.407 58.7244 241.472 58.8399 241.337 59.0698C241.23 59.2534 232.241 66.6182 232.04 66.6868C231.965 66.7126 231.855 66.7112 231.796 66.6838C231.738 66.6564 231.482 66.4116 231.229 66.1397C230.203 65.0391 229.416 64.5725 227.502 63.9297C224.377 62.8798 221.606 60.8246 221.389 59.3954C221.303 58.8292 221.785 58.0688 221.982 57.9079C222.275 58.266 222.226 58.2071 222.434 58.4597C222.679 58.759 222.877 58.8964 223.137 58.9483C223.445 59.0099 223.699 58.9495 223.931 58.7598C224.261 58.4893 224.355 58.1576 224.228 57.7069C224.164 57.4795 224.156 57.4691 219.803 52.1157L215.441 46.7523L215.391 46.5314C215.278 46.0321 215.512 45.5424 215.935 45.3916Z" fill="white"/>
<path fill-rule="evenodd" clip-rule="evenodd" d="M220.795 46.9957C221.425 45.5282 221.559 43.8384 221.056 42.1915C219.926 38.4944 216.012 36.4134 212.315 37.5436C208.618 38.6738 206.537 42.587 207.667 46.2841C208.79 49.9554 212.656 52.0329 216.33 50.9553L217.042 51.8329C217.265 52.1072 217.474 52.3653 217.67 52.6081C217.449 52.6951 217.223 52.7741 216.993 52.8447C212.239 54.2977 207.208 51.6222 205.755 46.8688C204.302 42.1154 206.977 37.084 211.731 35.631C216.484 34.1779 221.515 36.8534 222.968 41.6068C223.487 43.3036 223.48 45.0357 223.04 46.6279C222.647 46.7582 222.33 46.9627 221.924 47.3396C221.584 47.6556 221.531 47.6919 221.438 47.6707C221.38 47.6577 221.244 47.5201 220.795 46.9957Z" fill="white"/>
<circle cx="144" cy="20" r="8" stroke="white" stroke-width="2"/>
<circle cx="99" cy="33" r="8" stroke="white" stroke-width="2"/>
<circle cx="124" cy="48" r="8" stroke="white" stroke-width="2"/>
<circle cx="160" cy="42" r="8" stroke="white" stroke-width="2"/>
<path d="M175.48 34.1968C175.008 34.4841 174.859 35.0994 175.146 35.571L179.828 43.2573C180.115 43.729 180.731 43.8784 181.202 43.5911C181.674 43.3038 181.823 42.6885 181.536 42.2169L177.374 35.3846L184.207 31.2229C184.678 30.9355 184.828 30.3203 184.54 29.8486C184.253 29.3769 183.638 29.2275 183.166 29.5148L175.48 34.1968ZM206.734 41.4871L176.236 34.0791L175.764 36.0225L206.262 43.4306L206.734 41.4871Z" fill="white"/>
</g>
</svg>
