<svg width="257" height="74" viewBox="0 0 257 74" fill="none" xmlns="http://www.w3.org/2000/svg">
<mask id="mask0_19_1417" style="mask-type:alpha" maskUnits="userSpaceOnUse" x="0" y="0" width="257" height="74">
<rect width="257" height="74" fill="#929292"/>
</mask>
<g mask="url(#mask0_19_1417)">
<rect x="118.7" y="12.7" width="57.2538" height="26.7538" rx="5.3" stroke="white" stroke-width="1.4"/>
<g clip-path="url(#clip0_19_1417)">
<path d="M135.55 27.4204C135.55 27.4204 135.55 27.4695 135.484 27.6493L134.193 31.1802C134.095 31.4581 134.078 31.4581 133.686 31.4581H126.117C125.823 31.4581 125.676 31.4581 125.676 31.2783C125.676 30.9514 125.839 30.9514 126.117 30.9514C127.409 30.9514 127.442 30.8206 127.605 30.1831L129.795 21.4047C129.845 21.2085 129.861 21.1595 129.861 21.0941C129.861 20.8816 129.714 20.8653 129.419 20.8326C129.142 20.7999 128.798 20.7999 128.798 20.7999C128.488 20.7999 128.341 20.7999 128.341 20.6201C128.341 20.2931 128.537 20.2931 128.651 20.2931L130.825 20.3422L133.245 20.2931C133.326 20.2931 133.506 20.2931 133.506 20.4893C133.506 20.7999 133.375 20.7999 132.885 20.7999C131.348 20.7999 131.299 20.9797 131.152 21.5682L128.945 30.3956C128.864 30.6898 128.864 30.7225 128.864 30.7716C128.864 30.9023 128.913 30.9187 129.076 30.935C129.174 30.9514 129.207 30.9514 129.436 30.9514H130.972C133.8 30.9514 134.52 29.0878 135.076 27.5839C135.19 27.3223 135.206 27.2406 135.353 27.2406C135.501 27.2406 135.55 27.355 135.55 27.4204Z" fill="white"/>
<path d="M139.191 27.7941C139.191 28.0253 139.052 28.0253 138.983 28.0253C138.694 28.0253 137.966 27.9906 137.677 27.9906C137.203 27.9906 136.706 28.0253 136.232 28.0253C136.232 28.0253 136.07 28.0253 136.07 27.8981C136.07 27.667 136.186 27.667 136.348 27.667C136.579 27.667 137.18 27.6323 137.18 27.2856C137.18 27.17 137.018 25.5982 136.995 25.3555H134.094C133.308 26.6962 133.297 26.6962 133.216 26.8349C133.123 26.9967 133.054 27.1238 133.054 27.2625C133.054 27.5514 133.331 27.6439 133.597 27.667C133.678 27.667 133.782 27.6785 133.782 27.8057C133.782 28.0253 133.632 28.0253 133.562 28.0253C133.193 28.0253 132.788 27.9906 132.407 27.9906C132.083 27.9906 131.725 28.0253 131.413 28.0253C131.32 28.0253 131.263 27.9675 131.263 27.8981C131.263 27.6785 131.367 27.6785 131.505 27.667C132.014 27.6323 132.465 27.4705 132.927 26.6962L136.949 19.9467C137.018 19.8311 137.064 19.7502 137.249 19.7502C137.446 19.7502 137.446 19.7964 137.469 20.0276L138.174 27.2509C138.209 27.5861 138.209 27.667 138.925 27.667C139.075 27.667 139.191 27.667 139.191 27.7941ZM136.96 24.9972L136.591 21.1833L134.314 24.9972H136.96Z" fill="white"/>
<path d="M148.251 20.571C148.251 20.6201 148.235 20.7835 148.219 20.8489L147.777 23.6933C147.744 23.9385 147.712 24.0693 147.532 24.0693C147.385 24.0693 147.336 23.9548 147.336 23.8568C147.336 23.8077 147.368 23.6116 147.385 23.5462C147.45 23.1211 147.516 22.4836 147.516 22.2384C147.516 20.9633 146.78 20.898 145.129 20.898C144.786 20.898 144.246 20.898 144.099 20.9306C143.903 20.9797 143.838 21.0778 143.723 21.5355L141.549 30.2158C141.484 30.461 141.484 30.559 141.484 30.559C141.484 30.8206 141.614 30.8696 142.088 30.9187C142.513 30.9514 142.726 30.9514 143.135 30.9514C143.56 30.9514 143.69 30.9514 143.69 31.1312C143.69 31.4581 143.494 31.4581 143.331 31.4581C142.873 31.4581 142.383 31.4254 141.909 31.4254L140.552 31.4091L139.162 31.4254C138.721 31.4254 138.263 31.4581 137.822 31.4581C137.724 31.4581 137.544 31.4581 137.544 31.262C137.544 30.9514 137.642 30.9514 138.231 30.9514C139.98 30.9514 140.029 30.7716 140.176 30.1667L142.366 21.4374C142.383 21.3884 142.432 21.1922 142.432 21.0941C142.432 20.9633 142.432 20.898 141.974 20.898H141.336C138.917 20.898 138.492 21.1922 137.609 23.726C137.511 23.9875 137.495 24.0693 137.331 24.0693C137.217 24.0693 137.135 23.9875 137.135 23.8895C137.135 23.8895 137.217 23.6279 137.233 23.5952L138.214 20.7181C138.329 20.4075 138.345 20.3912 138.737 20.3912H147.81C148.088 20.3912 148.251 20.3912 148.251 20.571Z" fill="white"/>
<path d="M158.435 24.3145L158.109 27.1425C158.076 27.4531 158.059 27.5512 157.88 27.5512C157.733 27.5512 157.683 27.4368 157.683 27.355C157.683 27.2733 157.7 27.1589 157.7 27.0608C157.765 26.6194 157.765 26.5867 157.765 26.1944C157.765 24.8539 157.275 24.3799 155.28 24.3799H152.976C152.256 24.3799 152.24 24.4452 152.093 25.0174L151.112 28.957H152.649C154.153 28.957 154.447 28.581 154.79 27.3387C154.839 27.1425 154.872 27.0444 155.019 27.0444C155.133 27.0444 155.215 27.1262 155.215 27.2242L154.283 31.0494C154.218 31.2946 154.169 31.3764 154.038 31.3764C153.891 31.3764 153.826 31.2783 153.826 31.1966C153.826 31.1475 153.842 31.0985 153.875 31.0167C153.989 30.5263 153.989 30.3302 153.989 30.2157C153.989 29.8071 153.989 29.4638 152.6 29.4638H150.981L149.87 33.9265C149.788 34.2208 149.788 34.2535 149.788 34.3025C149.788 34.4333 149.837 34.4496 150 34.466C150.098 34.4823 150.131 34.4823 150.36 34.4823H152.747C155.542 34.4823 156.147 33.3871 157.209 30.9677C157.242 30.8696 157.275 30.7715 157.422 30.7715C157.618 30.7715 157.618 30.9514 157.618 30.9514C157.618 30.9514 157.569 31.0985 157.536 31.1802L156.032 34.7112C155.918 34.9727 155.902 34.9891 155.526 34.9891H147.042C146.731 34.9891 146.584 34.9891 146.584 34.7929C146.584 34.4823 146.764 34.4823 147.042 34.4823C148.333 34.4823 148.366 34.3515 148.529 33.714L150.687 25.0664C150.769 24.7722 150.769 24.7395 150.769 24.6741C150.769 24.3799 150.311 24.3799 149.706 24.3799C149.396 24.3799 149.248 24.3799 149.248 24.2C149.248 23.8731 149.412 23.8731 149.739 23.8731H157.994C158.403 23.8731 158.484 23.8731 158.435 24.3145Z" fill="white"/>
<path d="M170.467 20.4729C170.467 20.7835 170.32 20.7835 170.107 20.7999C169.126 20.8489 168.505 21.2412 168.031 21.6336C167.508 22.0913 165.792 24.0366 164.68 25.1809L166.789 30.2321C167.067 30.886 167.099 30.935 168.195 30.9514C168.325 30.9514 168.489 30.9514 168.489 31.1475C168.489 31.4581 168.293 31.4581 168.178 31.4581C167.77 31.4581 166.772 31.4091 166.364 31.4091L164.304 31.4581C164.239 31.4581 164.059 31.4581 164.059 31.262C164.059 30.9841 164.206 30.9677 164.386 30.9514C165.023 30.886 165.334 30.6081 165.334 30.4773L165.252 30.2485L163.601 26.3415L162.13 27.9435L160.463 29.709C160.266 29.9215 160.021 30.1831 160.021 30.4446C160.021 30.9023 160.528 30.935 160.675 30.9514C160.675 30.9514 160.871 30.9677 160.871 31.1312C160.871 31.4581 160.675 31.4581 160.577 31.4581C159.988 31.4581 159.351 31.4091 158.746 31.4091C158.239 31.4091 157.7 31.4581 157.209 31.4581C156.997 31.4581 156.997 31.2783 156.997 31.2783C156.997 30.9677 157.144 30.9677 157.357 30.9514C158.19 30.9023 158.959 30.6408 159.76 29.7744C159.858 29.6927 159.874 29.6763 159.972 29.5946L163.421 25.8838L161.492 21.323C161.345 20.9633 161.247 20.7999 160.266 20.7999C160.054 20.7999 159.89 20.7999 159.89 20.6201C159.89 20.2931 160.087 20.2931 160.185 20.2931C160.593 20.2931 161.607 20.3422 162.015 20.3422C162.702 20.3422 163.405 20.2931 164.075 20.2931C164.124 20.2931 164.32 20.2931 164.32 20.4893C164.32 20.7672 164.157 20.7835 163.993 20.7999C163.307 20.8653 163.029 21.1759 163.029 21.2739L163.111 21.4864L164.484 24.7395L167.132 21.8951C167.263 21.748 167.443 21.5355 167.443 21.3066C167.443 20.8489 166.936 20.8162 166.789 20.7999C166.674 20.7835 166.593 20.7345 166.593 20.6201C166.593 20.2931 166.805 20.2931 166.903 20.2931C167.492 20.2931 168.113 20.3422 168.718 20.3422C169.225 20.3422 169.764 20.2931 170.254 20.2931C170.467 20.2931 170.467 20.4729 170.467 20.4729Z" fill="white"/>
</g>
<rect x="176.7" y="43.7" width="63.6" height="26.6" rx="5.3" stroke="white" stroke-width="1.4"/>
<path d="M176.11 26.4632C191.61 26.4632 207.61 26.4632 207.61 43.4632" stroke="white" stroke-width="1.4"/>
<path d="M176.575 57C161.075 57 145.075 57 145.075 40" stroke="white" stroke-width="1.4"/>
<path d="M188.941 62.2754L183.193 52.6367H184.23L190.014 62.2754H188.941ZM196.4 60.998V62H191.49V52.9062H192.674V60.998H196.4ZM202.623 60.5293C202.291 61.0762 201.891 61.4883 201.422 61.7656C200.957 62.043 200.529 62.1816 200.139 62.1816C199.592 62.1816 199.1 61.9453 198.662 61.4727C198.229 61 198.012 60.2832 198.012 59.3223C198.012 58.5645 198.156 57.8887 198.445 57.2949C198.734 56.6973 199.121 56.2266 199.605 55.8828C200.09 55.5352 200.689 55.3613 201.404 55.3613C201.611 55.3613 201.924 55.3828 202.342 55.4258C202.404 55.4336 202.498 55.4434 202.623 55.4551H203.719V60.0781C203.719 60.8672 203.801 61.5078 203.965 62H202.828C202.742 61.6406 202.674 61.1504 202.623 60.5293ZM202.623 59.2344V56.4277C202.236 56.3262 201.877 56.2754 201.545 56.2754C200.873 56.2754 200.312 56.5352 199.863 57.0547C199.418 57.5742 199.195 58.2812 199.195 59.1758C199.195 59.8242 199.316 60.3145 199.559 60.6465C199.805 60.9746 200.084 61.1387 200.396 61.1387C200.736 61.1387 201.111 60.9668 201.521 60.623C201.932 60.2793 202.299 59.8164 202.623 59.2344ZM207.627 62V53.9082H204.902V52.9062H211.541V53.9082H208.811V62H207.627ZM218.18 61.5664C217.309 61.9805 216.484 62.1875 215.707 62.1875C215.117 62.1875 214.59 62.041 214.125 61.748C213.66 61.4551 213.287 61.0371 213.006 60.4941C212.729 59.9473 212.59 59.3633 212.59 58.7422C212.59 58.1445 212.723 57.5703 212.988 57.0195C213.254 56.4688 213.625 56.041 214.102 55.7363C214.578 55.4277 215.109 55.2734 215.695 55.2734C216.473 55.2734 217.096 55.5508 217.564 56.1055C218.037 56.6602 218.273 57.5156 218.273 58.6719V58.9062H213.762C213.762 59.3594 213.855 59.7734 214.043 60.1484C214.234 60.5234 214.484 60.8047 214.793 60.9922C215.102 61.1797 215.453 61.2734 215.848 61.2734C216.551 61.2734 217.328 61.0391 218.18 60.5703V61.5664ZM213.826 58.0918H217.09V57.9336C217.09 57.3984 216.959 56.9727 216.697 56.6562C216.436 56.3398 216.086 56.1816 215.648 56.1816C215.207 56.1816 214.824 56.3438 214.5 56.668C214.18 56.9883 213.955 57.4629 213.826 58.0918ZM220.623 62H219.363L221.936 58.5723L219.533 55.4551H220.928L222.633 57.6523L224.291 55.4551H225.527L223.254 58.4668L225.955 62H224.555L222.562 59.3926L220.623 62Z" fill="white"/>
<path d="M234 50C234 50 232 51 231.5 52M234 64C234 64 232 63 231.5 62M231.5 52C231 51 229 50 229 50M231.5 52V57M231.5 62C231 63 229 64 229 64M231.5 62V57M231.5 57H232.5M231.5 57H230.5" stroke="white"/>
</g>
<defs>
<clipPath id="clip0_19_1417">
<rect width="45.4333" height="17.3357" fill="white" transform="translate(125.038 18.8654)"/>
</clipPath>
</defs>
</svg>
