<svg width="257" height="74" viewBox="0 0 257 74" fill="none" xmlns="http://www.w3.org/2000/svg">
<mask id="mask0_25_101" style="mask-type:alpha" maskUnits="userSpaceOnUse" x="0" y="0" width="257" height="74">
<rect width="257" height="74" fill="#D9D9D9"/>
</mask>
<g mask="url(#mask0_25_101)">
<path d="M248.635 50.6915C248.635 53.0116 247.213 55.3841 244.265 57.6885C241.328 59.9834 237.017 62.0936 231.601 63.8842C220.779 67.4618 205.764 69.6915 189.135 69.6915C172.505 69.6915 157.491 67.4618 146.669 63.8842C141.252 62.0936 136.941 59.9834 134.005 57.6885C131.057 55.3841 129.635 53.0116 129.635 50.6915C129.635 48.3714 131.057 45.999 134.005 43.6945C136.941 41.3996 141.252 39.2894 146.669 37.4989C157.491 33.9213 172.505 31.6915 189.135 31.6915C205.764 31.6915 220.779 33.9213 231.601 37.4989C237.017 39.2894 241.328 41.3996 244.265 43.6945C247.213 45.999 248.635 48.3714 248.635 50.6915Z" stroke="white" stroke-width="2"/>
<path d="M248.362 51.379C248.141 53.6885 246.499 55.9142 243.343 57.9262C240.201 59.9299 235.708 61.6184 230.145 62.883C219.031 65.4098 203.872 66.1941 187.319 64.6045C170.765 63.0149 156.033 59.3602 145.602 54.7645C140.382 52.4644 136.292 49.9518 133.589 47.3867C130.874 44.811 129.685 42.3135 129.907 40.004C130.129 37.6945 131.771 35.4688 134.926 33.4568C138.068 31.4531 142.561 29.7646 148.124 28.5C159.239 25.9733 174.397 25.1889 190.951 26.7785C207.505 28.3681 222.237 32.0228 232.667 36.6185C237.888 38.9186 241.978 41.4313 244.681 43.9963C247.396 46.572 248.584 49.0696 248.362 51.379Z" stroke="white" stroke-width="2"/>
<circle cx="208.635" cy="47.6915" r="11" fill="white"/>
</g>
</svg>
