<svg width="232" height="59" viewBox="0 0 232 59" fill="none" xmlns="http://www.w3.org/2000/svg">
<mask id="mask0_15_1139" style="mask-type:alpha" maskUnits="userSpaceOnUse" x="0" y="0" width="232" height="59">
<rect width="232" height="59" fill="#D9D9D9"/>
</mask>
<g mask="url(#mask0_15_1139)">
</g>
<path d="M17.0022 39.396C17.0022 38.0164 15.4554 38.0164 14.466 38.0164C14.1873 38.0164 13.7414 38.0164 13.616 38.0303C13.3512 38.0721 13.3094 38.2115 13.2258 38.5459L12.32 42.1831H13.8807C15.1349 42.1831 15.8735 41.7371 16.2358 41.3748C16.7793 40.8313 17.0022 39.8698 17.0022 39.396ZM18.5212 45.8062C18.5212 46.0013 18.0335 47.4088 16.849 47.4088C16.6678 47.4088 14.9956 47.4088 14.9956 45.9038C14.9956 45.6251 15.121 45.1095 15.2185 44.7193C15.3021 44.3988 15.4136 43.9668 15.4136 43.7577C15.4136 43.27 15.1628 42.4896 13.8947 42.4896H12.2363L11.3166 46.1825C11.3027 46.2661 11.2748 46.3358 11.2748 46.4194C11.2748 46.6702 11.665 46.6702 12.1806 46.6702C12.4454 46.6702 12.5708 46.6702 12.5708 46.8235C12.5708 47.1022 12.4036 47.1022 12.2921 47.1022L10.5223 47.0604L8.76645 47.1022C8.76645 47.1022 8.57135 47.1022 8.57135 46.9489C8.57135 46.6702 8.69677 46.6702 8.9476 46.6702C10.0485 46.6702 10.0764 46.5588 10.2157 46.0153L12.0831 38.532C12.1249 38.3648 12.1388 38.323 12.1388 38.2672C12.1388 38.0861 12.0134 38.0721 11.7625 38.0443C11.5256 38.0164 11.233 38.0164 11.233 38.0164C10.9682 38.0164 10.8428 38.0164 10.8428 37.8631C10.8428 37.5844 10.9682 37.5844 11.2469 37.5844H15.2185C17.044 37.5844 18.2982 38.4762 18.2982 39.6747C18.2982 41.0822 16.6399 42.0576 15.2325 42.3642C15.6087 42.5036 16.5424 42.9356 16.5424 44.0086C16.5424 44.2037 16.5145 44.4685 16.4866 44.6635C16.4309 45.1095 16.3473 45.8202 16.3473 46.2522C16.3473 46.7957 16.4448 47.1022 16.9047 47.1022C17.2252 47.1022 17.8244 46.8653 18.1728 45.8341C18.2007 45.7366 18.2286 45.639 18.354 45.639C18.354 45.639 18.5212 45.639 18.5212 45.8062Z" fill="white"/>
<path d="M24.2124 47.7836C24.2124 47.7836 24.0844 48.4043 23.9169 48.759C23.7592 49.0743 23.5326 49.3009 23.1878 49.3009C22.7543 49.3009 22.3898 49.025 22.3011 48.5817C22.0646 48.8575 21.6804 49.3009 20.9907 49.3009C20.7937 49.3009 20.3503 49.2615 20.0351 48.9955C19.6607 50.5127 19.5326 51.025 19.4932 51.1137C19.4735 51.1433 19.3553 51.3206 19.1484 51.3206C18.9809 51.3206 18.8725 51.2024 18.8725 51.0546C18.8725 51.0546 18.8725 51.0152 18.9021 50.897L20.3208 45.1925C20.4095 44.8477 20.6853 44.8378 20.7149 44.8378C20.8824 44.8378 21.0006 44.9363 21.0006 45.1038C21.0006 45.1531 20.9021 45.5275 20.8528 45.7344L20.439 47.3896C20.37 47.6654 20.3011 47.9413 20.3011 48.227C20.3011 48.759 20.5375 49.0841 21.0302 49.0841C21.8282 49.0841 22.3011 48.1876 22.3109 48.1383L22.5671 47.1334L23.0302 45.291C23.109 44.956 23.3651 44.9462 23.4144 44.9462C23.5622 44.9462 23.7001 45.0349 23.7001 45.2122C23.7001 45.2713 23.6016 45.6457 23.5523 45.8723C23.5129 46.0201 23.4144 46.3945 23.3849 46.5423L23.109 47.6063C23.0302 47.9511 22.9119 48.4142 22.9119 48.6309C22.9119 48.828 22.9415 49.0841 23.2075 49.0841C23.6115 49.0841 23.7888 48.5029 23.9563 47.8625C23.9858 47.7245 23.9957 47.6851 24.0942 47.6851C24.1238 47.6851 24.2124 47.6851 24.2124 47.7836Z" fill="white"/>
<path d="M29.676 45.1038C29.676 45.1925 29.41 46.5324 28.1095 47.7442C27.0947 48.69 26.0208 49.0743 25.3312 49.1925H25.1932C25.1341 49.1925 25.0356 49.1827 25.0356 49.0743L25.144 48.6309L25.7449 46.2171C25.8139 45.9511 25.9321 45.488 25.9321 45.4191C25.9321 45.3206 25.9124 45.2516 25.4395 45.2516C25.2917 45.2516 25.2031 45.2516 25.2031 45.1334C25.2031 44.956 25.3114 44.9462 25.3903 44.9363C25.6464 44.9166 26.3656 44.8378 26.5922 44.8378C26.7203 44.8378 26.7203 44.9462 26.7203 44.9462L25.7548 48.8674C26.878 48.5028 28.3755 47.3994 29.0061 45.1629C29.0849 44.8772 29.3115 44.8378 29.3903 44.8378C29.5578 44.8378 29.676 44.9363 29.676 45.1038Z" fill="white"/>
<path d="M44.2319 43.6184C44.2319 43.7717 44.1065 43.8971 43.9532 43.8971H35.2297C35.0764 43.8971 34.951 43.7717 34.951 43.6184C34.951 43.4651 35.0764 43.3397 35.2297 43.3397H43.9532C44.1065 43.3397 44.2319 43.4651 44.2319 43.6184Z" fill="white"/>
<path d="M58.4181 44.0364H49.7782V43.2003H58.4181V44.0364Z" fill="white"/>
<path d="M56.4532 37.6819C55.9655 37.6401 54.7531 37.6401 54.1957 37.6401C53.6383 37.6401 52.4259 37.6401 51.9382 37.6819V37.2499H52.3841C53.6383 37.2499 53.6801 37.0827 53.6801 36.581V29.3625C52.9554 29.7248 52.1333 29.7248 51.8546 29.7248V29.2928C52.3005 29.2928 53.5268 29.2928 54.3908 28.4009C54.7113 28.4009 54.7113 28.4288 54.7113 28.7633V36.581C54.7113 37.0966 54.7531 37.2499 56.0073 37.2499H56.4532V37.6819Z" fill="white"/>
<path d="M56.8713 54.2371L56.4811 56.6619H51.3111C51.3111 56.3274 51.3111 56.2995 51.4644 56.1463L54.14 53.1641C54.9064 52.3001 55.6032 51.1992 55.6032 50.0844C55.6032 48.9417 55.004 47.8129 53.7358 47.8129C52.9276 47.8129 52.1751 48.3285 51.8546 49.2343C51.8964 49.2204 51.9243 49.2204 52.0357 49.2204C52.5235 49.2204 52.7743 49.5827 52.7743 49.945C52.7743 50.5164 52.2866 50.6836 52.0497 50.6836C52.0079 50.6836 51.3111 50.6836 51.3111 49.9032C51.3111 48.663 52.3423 47.3809 53.917 47.3809C55.6171 47.3809 56.8713 48.4957 56.8713 50.0844C56.8713 51.4779 56.0352 52.2304 53.8613 54.1535L52.3841 55.5888H54.8925C55.1991 55.5888 56.1188 55.5888 56.2163 55.4774C56.3557 55.2683 56.4532 54.6552 56.5229 54.2371H56.8713Z" fill="white"/>
<path d="M69.0926 39.396C69.0926 38.0164 67.5458 38.0164 66.5564 38.0164C66.2777 38.0164 65.8318 38.0164 65.7063 38.0303C65.4416 38.0721 65.3998 38.2115 65.3162 38.5459L64.4104 42.1831H65.9711C67.2253 42.1831 67.9639 41.7371 68.3262 41.3748C68.8697 40.8313 69.0926 39.8698 69.0926 39.396ZM70.6116 45.8062C70.6116 46.0013 70.1239 47.4088 68.9393 47.4088C68.7582 47.4088 67.0859 47.4088 67.0859 45.9038C67.0859 45.6251 67.2114 45.1095 67.3089 44.7193C67.3925 44.3988 67.504 43.9668 67.504 43.7577C67.504 43.27 67.2532 42.4896 65.9851 42.4896H64.3267L63.407 46.1825C63.3931 46.2661 63.3652 46.3358 63.3652 46.4194C63.3652 46.6702 63.7554 46.6702 64.271 46.6702C64.5358 46.6702 64.6612 46.6702 64.6612 46.8235C64.6612 47.1022 64.494 47.1022 64.3825 47.1022L62.6127 47.0604L60.8568 47.1022C60.8568 47.1022 60.6617 47.1022 60.6617 46.9489C60.6617 46.6702 60.7872 46.6702 61.038 46.6702C62.1389 46.6702 62.1668 46.5588 62.3061 46.0153L64.1735 38.532C64.2153 38.3648 64.2292 38.323 64.2292 38.2672C64.2292 38.0861 64.1038 38.0721 63.8529 38.0443C63.616 38.0164 63.3234 38.0164 63.3234 38.0164C63.0586 38.0164 62.9332 38.0164 62.9332 37.8631C62.9332 37.5844 63.0586 37.5844 63.3373 37.5844H67.3089C69.1344 37.5844 70.3886 38.4762 70.3886 39.6747C70.3886 41.0822 68.7303 42.0576 67.3228 42.3642C67.6991 42.5036 68.6328 42.9356 68.6328 44.0086C68.6328 44.2037 68.6049 44.4685 68.577 44.6635C68.5213 45.1095 68.4377 45.8202 68.4377 46.2522C68.4377 46.7957 68.5352 47.1022 68.9951 47.1022C69.3156 47.1022 69.9148 46.8653 70.2632 45.8341C70.2911 45.7366 70.3189 45.639 70.4444 45.639C70.4444 45.639 70.6116 45.639 70.6116 45.8062Z" fill="white"/>
<path d="M77.2727 41.5978C77.2727 41.6953 77.2448 41.765 77.2309 41.8486L75.684 48.0359C75.475 48.872 74.4717 49.959 72.7297 49.959C71.392 49.959 70.8763 49.6803 70.8763 49.1089C70.8763 48.5515 71.3223 48.3007 71.6289 48.3007C72.0051 48.3007 72.1584 48.5654 72.1584 48.7884C72.1584 49.0253 72.0051 49.3876 71.587 49.5131C71.9772 49.6385 72.4371 49.6524 72.7019 49.6524C74.179 49.6524 74.6528 48.2728 74.7086 48.1474L75.1684 46.3079L75.1545 46.294C75.0151 46.4473 74.3602 47.1022 73.538 47.1022C72.5347 47.1022 71.6846 46.28 71.6846 44.9004C71.6846 42.8938 73.4126 40.9428 75.0012 40.9428C75.5586 40.9428 76.0464 41.3051 76.2972 41.8207C76.3529 41.3191 76.7292 41.2215 76.8685 41.2215C77.1054 41.2215 77.2727 41.3609 77.2727 41.5978ZM76.13 42.4478C76.13 42.3781 75.9349 41.2494 75.0151 41.2494C74.4299 41.2494 73.8306 41.8068 73.4544 42.4896C73.0781 43.2003 72.674 44.8447 72.674 45.5136C72.674 46.071 72.883 46.7957 73.5798 46.7957C73.9839 46.7957 74.4159 46.5448 74.7086 46.294C75.0151 46.0292 75.3357 45.6808 75.4193 45.3185L76.0882 42.6569C76.1021 42.6011 76.13 42.5175 76.13 42.4478Z" fill="white"/>
<path d="M82.95 47.7836C82.95 47.7836 82.8219 48.4043 82.6544 48.759C82.4968 49.0743 82.2702 49.3009 81.9254 49.3009C81.4919 49.3009 81.1273 49.025 81.0386 48.5817C80.8022 48.8575 80.418 49.3009 79.7283 49.3009C79.5312 49.3009 79.0879 49.2615 78.7726 48.9955C78.3982 50.5127 78.2702 51.025 78.2307 51.1137C78.211 51.1433 78.0928 51.3206 77.8859 51.3206C77.7184 51.3206 77.61 51.2024 77.61 51.0546C77.61 51.0546 77.61 51.0152 77.6396 50.897L79.0583 45.1925C79.147 44.8477 79.4229 44.8378 79.4524 44.8378C79.6199 44.8378 79.7381 44.9363 79.7381 45.1038C79.7381 45.1531 79.6396 45.5275 79.5904 45.7344L79.1766 47.3896C79.1076 47.6654 79.0386 47.9413 79.0386 48.227C79.0386 48.759 79.2751 49.0841 79.7677 49.0841C80.5657 49.0841 81.0386 48.1876 81.0485 48.1383L81.3047 47.1334L81.7677 45.291C81.8465 44.956 82.1027 44.9462 82.152 44.9462C82.2997 44.9462 82.4377 45.0349 82.4377 45.2122C82.4377 45.2713 82.3391 45.6457 82.2899 45.8723C82.2505 46.0201 82.152 46.3945 82.1224 46.5423L81.8465 47.6063C81.7677 47.9511 81.6495 48.4142 81.6495 48.6309C81.6495 48.828 81.679 49.0841 81.9451 49.0841C82.349 49.0841 82.5263 48.5029 82.6938 47.8625C82.7234 47.7245 82.7332 47.6851 82.8318 47.6851C82.8613 47.6851 82.95 47.6851 82.95 47.7836Z" fill="white"/>
<path d="M88.4136 45.1038C88.4136 45.1925 88.1476 46.5324 86.847 47.7442C85.8323 48.69 84.7584 49.0743 84.0687 49.1925H83.9308C83.8717 49.1925 83.7731 49.1827 83.7731 49.0743L83.8815 48.6309L84.4825 46.2171C84.5515 45.9511 84.6697 45.488 84.6697 45.4191C84.6697 45.3206 84.65 45.2516 84.1771 45.2516C84.0293 45.2516 83.9406 45.2516 83.9406 45.1334C83.9406 44.956 84.049 44.9462 84.1278 44.9363C84.384 44.9166 85.1032 44.8378 85.3298 44.8378C85.4579 44.8378 85.4579 44.9462 85.4579 44.9462L84.4924 48.8674C85.6155 48.5028 87.1131 47.3994 87.7436 45.1629C87.8224 44.8772 88.049 44.8378 88.1278 44.8378C88.2953 44.8378 88.4136 44.9363 88.4136 45.1038Z" fill="white"/>
<path d="M102.969 43.6184C102.969 43.7717 102.844 43.8971 102.691 43.8971H98.6077V47.9801C98.6077 48.1334 98.4823 48.2589 98.329 48.2589C98.1757 48.2589 98.0503 48.1334 98.0503 47.9801V43.8971H93.9672C93.814 43.8971 93.6885 43.7717 93.6885 43.6184C93.6885 43.4651 93.814 43.3397 93.9672 43.3397H98.0503V39.2566C98.0503 39.1033 98.1757 38.9779 98.329 38.9779C98.4823 38.9779 98.6077 39.1033 98.6077 39.2566V43.3397H102.691C102.844 43.3397 102.969 43.4651 102.969 43.6184Z" fill="white"/>
<path d="M116.055 47.1022L114.341 47.0604C113.811 47.0604 112.822 47.0604 112.334 47.1022V46.6702C112.696 46.6702 113.519 46.6702 113.519 46.2522C113.519 46.2522 113.519 46.1964 113.449 46.0013L111.247 39.1451L109.157 45.639C109.087 45.8341 109.087 45.8759 109.087 45.9456C109.087 46.28 109.408 46.6563 110.16 46.6702V47.1022L108.585 47.0604L107.289 47.1022V46.6702C108.265 46.6702 108.544 46.1268 108.683 45.7087L111.359 37.4172C111.428 37.1803 111.456 37.1245 111.679 37.1245C111.832 37.1245 111.916 37.1524 112 37.4172L114.787 46.071C114.954 46.5866 114.996 46.6702 116.055 46.6702V47.1022Z" fill="white"/>
<path d="M123.12 41.5978C123.12 41.6953 123.092 41.765 123.078 41.8486L121.531 48.0359C121.322 48.872 120.319 49.959 118.577 49.959C117.239 49.959 116.724 49.6803 116.724 49.1089C116.724 48.5515 117.17 48.3007 117.476 48.3007C117.852 48.3007 118.006 48.5654 118.006 48.7884C118.006 49.0253 117.852 49.3876 117.434 49.5131C117.825 49.6385 118.284 49.6524 118.549 49.6524C120.026 49.6524 120.5 48.2728 120.556 48.1474L121.016 46.3079L121.002 46.294C120.862 46.4473 120.207 47.1022 119.385 47.1022C118.382 47.1022 117.532 46.28 117.532 44.9004C117.532 42.8938 119.26 40.9428 120.848 40.9428C121.406 40.9428 121.894 41.3051 122.144 41.8207C122.2 41.3191 122.576 41.2215 122.716 41.2215C122.953 41.2215 123.12 41.3609 123.12 41.5978ZM121.977 42.4478C121.977 42.3781 121.782 41.2494 120.862 41.2494C120.277 41.2494 119.678 41.8068 119.302 42.4896C118.925 43.2003 118.521 44.8447 118.521 45.5136C118.521 46.071 118.73 46.7957 119.427 46.7957C119.831 46.7957 120.263 46.5448 120.556 46.294C120.862 46.0292 121.183 45.6808 121.267 45.3185L121.935 42.6569C121.949 42.6011 121.977 42.5175 121.977 42.4478Z" fill="white"/>
<path d="M128.797 47.7836C128.797 47.7836 128.669 48.4043 128.502 48.759C128.344 49.0743 128.117 49.3009 127.773 49.3009C127.339 49.3009 126.975 49.025 126.886 48.5817C126.649 48.8575 126.265 49.3009 125.576 49.3009C125.379 49.3009 124.935 49.2615 124.62 48.9955C124.246 50.5127 124.117 51.025 124.078 51.1137C124.058 51.1433 123.94 51.3206 123.733 51.3206C123.566 51.3206 123.457 51.2024 123.457 51.0546C123.457 51.0546 123.457 51.0152 123.487 50.897L124.906 45.1925C124.994 44.8477 125.27 44.8378 125.3 44.8378C125.467 44.8378 125.585 44.9363 125.585 45.1038C125.585 45.1531 125.487 45.5275 125.438 45.7344L125.024 47.3896C124.955 47.6654 124.886 47.9413 124.886 48.227C124.886 48.759 125.122 49.0841 125.615 49.0841C126.413 49.0841 126.886 48.1876 126.896 48.1383L127.152 47.1334L127.615 45.291C127.694 44.956 127.95 44.9462 127.999 44.9462C128.147 44.9462 128.285 45.0349 128.285 45.2122C128.285 45.2713 128.186 45.6457 128.137 45.8723C128.098 46.0201 127.999 46.3945 127.97 46.5423L127.694 47.6063C127.615 47.9511 127.497 48.4142 127.497 48.6309C127.497 48.828 127.526 49.0841 127.792 49.0841C128.196 49.0841 128.374 48.5029 128.541 47.8625C128.571 47.7245 128.581 47.6851 128.679 47.6851C128.709 47.6851 128.797 47.6851 128.797 47.7836Z" fill="white"/>
<path d="M134.261 45.1038C134.261 45.1925 133.995 46.5324 132.694 47.7442C131.68 48.69 130.606 49.0743 129.916 49.1925H129.778C129.719 49.1925 129.62 49.1827 129.62 49.0743L129.729 48.6309L130.33 46.2171C130.399 45.9511 130.517 45.488 130.517 45.4191C130.517 45.3206 130.497 45.2516 130.024 45.2516C129.877 45.2516 129.788 45.2516 129.788 45.1334C129.788 44.956 129.896 44.9462 129.975 44.9363C130.231 44.9166 130.95 44.8378 131.177 44.8378C131.305 44.8378 131.305 44.9462 131.305 44.9462L130.34 48.8674C131.463 48.5028 132.96 47.3994 133.591 45.1629C133.67 44.8772 133.896 44.8378 133.975 44.8378C134.143 44.8378 134.261 44.9363 134.261 45.1038Z" fill="white"/>
<path d="M149.597 42.2667C149.597 42.42 149.472 42.5454 149.318 42.5454H140.595C140.442 42.5454 140.316 42.42 140.316 42.2667C140.316 42.1134 140.442 41.988 140.595 41.988H149.318C149.472 41.988 149.597 42.1134 149.597 42.2667ZM149.597 44.9701C149.597 45.1234 149.472 45.2488 149.318 45.2488H140.595C140.442 45.2488 140.316 45.1234 140.316 44.9701C140.316 44.8168 140.442 44.6914 140.595 44.6914H149.318C149.472 44.6914 149.597 44.8168 149.597 44.9701Z" fill="white"/>
<path d="M183.446 44.0364H155.91V43.2003H183.446V44.0364Z" fill="white"/>
<path d="M163.114 35.3408C163.114 36.8319 161.791 37.9885 160.216 37.9885C158.753 37.9885 157.331 37.0549 157.331 35.5777C157.331 34.1981 158.53 33.4177 159.338 33.0136C158.99 32.7767 158.474 32.4283 158.321 32.2611C157.735 31.6061 157.708 30.979 157.708 30.7282C157.708 29.4322 158.836 28.401 160.23 28.401C161.498 28.401 162.738 29.1953 162.738 30.4774C162.738 31.3971 162.055 32.1217 161.052 32.6373C161.944 33.1948 162.167 33.3341 162.432 33.6268C162.961 34.212 163.114 34.8391 163.114 35.3408ZM162.125 30.4774C162.125 29.474 161.233 28.7494 160.216 28.7494C159.227 28.7494 158.321 29.3347 158.321 30.1847C158.321 30.4216 158.376 30.8954 159.017 31.3135L160.745 32.4283C161.582 31.9406 162.125 31.2717 162.125 30.4774ZM162.418 35.8425C162.418 34.9924 161.763 34.5744 161.373 34.3096L159.659 33.2226C158.474 33.8776 158.028 34.7695 158.028 35.5777C158.028 36.7343 159.031 37.5983 160.23 37.5983C161.373 37.5983 162.418 36.8737 162.418 35.8425Z" fill="white"/>
<path d="M171.615 32.0103C171.615 32.4841 171.113 32.4841 170.932 32.4841H169.344C169.19 33.2087 169.093 33.9612 169.093 34.6998C169.093 35.09 169.093 35.9958 169.497 36.9991C169.58 37.1942 169.58 37.2221 169.58 37.3057C169.58 37.5844 169.288 37.8353 169.009 37.8353C168.8 37.8353 168.647 37.7517 168.507 37.1385C168.396 36.6647 168.396 36.2884 168.396 36.0794C168.396 35.1457 168.521 34.5465 168.981 32.4841H167.407L166.626 35.5638C166.445 36.2606 166.445 36.2884 166.25 36.9295C166.083 37.4451 165.971 37.8353 165.553 37.8353C165.372 37.8353 165.149 37.7238 165.149 37.459C165.149 37.3615 165.149 37.3336 165.261 37.1246C165.846 35.8564 166.598 34.1703 167.044 32.4841H166.25C165.971 32.4841 165.163 32.4841 164.48 33.5571C164.397 33.6686 164.369 33.7243 164.257 33.7243C164.09 33.7243 164.09 33.585 164.09 33.585C164.09 33.5153 164.452 32.8743 164.94 32.3308C165.553 31.6758 166.083 31.6758 166.389 31.6758H171.058C171.322 31.6758 171.615 31.6758 171.615 32.0103Z" fill="white"/>
<path d="M182.248 27.9969L181.37 31.5504C181.3 31.8012 181.3 31.8291 181.119 31.8291C181.063 31.8291 180.91 31.8291 180.91 31.6897C180.91 31.5504 180.952 31.5365 180.952 30.979C180.952 29.3625 180.13 28.2895 178.708 28.2895C177.329 28.2895 175.977 29.1396 175.224 30.0872C173.761 31.8988 173.622 34.1981 173.622 34.6301C173.622 36.7622 175.085 37.5565 176.423 37.5565C176.91 37.5565 178.722 37.4032 179.112 35.8704C179.252 35.3547 179.405 34.7277 179.405 34.6022C179.405 34.4211 179.335 34.3793 178.973 34.3375C178.652 34.3096 178.234 34.3096 178.234 34.3096C177.928 34.3096 177.816 34.3096 177.816 34.1563C177.816 33.8776 177.984 33.8776 178.109 33.8776L180.06 33.9194C180.38 33.9194 181.203 33.8776 181.523 33.8776C181.635 33.8776 181.704 33.9333 181.704 34.0309C181.704 34.2957 181.551 34.3096 181.481 34.3096C180.687 34.3235 180.673 34.3514 180.52 34.9785C180.464 35.2154 180.394 35.4523 180.339 35.6892L180.074 36.7622C180.004 37.0549 179.865 37.5844 179.837 37.6123C179.837 37.6123 179.809 37.668 179.739 37.668C179.6 37.668 179.238 37.1524 179.112 36.804C178.861 37.0827 178.597 37.3754 177.9 37.6541C177.398 37.8631 176.771 37.9885 176.158 37.9885C173.9 37.9885 172.354 36.386 172.354 34.1702C172.354 30.9372 175.489 27.8575 178.597 27.8575C180.144 27.8575 180.785 28.9027 180.91 29.0978L181.885 28.0247C182.039 27.8715 182.053 27.8575 182.094 27.8575C182.22 27.8575 182.248 27.9551 182.248 27.9969Z" fill="white"/>
<path d="M169.483 55.7561C169.483 55.9233 168.312 57.4005 166.32 57.4005C164.87 57.4005 164.062 56.2996 164.062 55.0454C164.062 53.0805 165.916 51.0877 167.797 51.0877C168.786 51.0877 169.441 51.6033 169.441 52.2862C169.441 52.8436 169.065 53.178 168.661 53.178C168.396 53.178 168.145 53.0247 168.145 52.6903C168.145 52.5928 168.173 52.3559 168.396 52.1468C168.591 51.9517 168.786 51.9517 169.009 51.9517C168.814 51.5755 168.285 51.3943 167.811 51.3943C167.044 51.3943 166.278 51.9935 165.846 52.7878C165.372 53.6518 165.093 55.0036 165.093 55.5749C165.093 56.411 165.47 57.0939 166.348 57.0939C166.515 57.0939 168.034 57.0939 169.135 55.7143C169.218 55.6028 169.246 55.5749 169.316 55.5749C169.399 55.5749 169.483 55.6725 169.483 55.7561Z" fill="white"/>
<path d="M174.165 51.6081H173.18V52.4653C173.18 52.82 173.2 52.9283 173.929 52.9283H174.136V53.2338C173.732 53.2042 173.21 53.2042 172.796 53.2042C172.382 53.2042 171.87 53.2042 171.466 53.2338V52.9283H171.673C172.402 52.9283 172.421 52.82 172.421 52.4653V51.6081H169.801V51.3027L172.825 46.682C172.904 46.5638 172.934 46.5638 173.022 46.5638C173.18 46.5638 173.18 46.6229 173.18 46.8199V51.3027H174.165V51.6081ZM172.48 51.3027V47.6278L170.077 51.3027H172.48Z" fill="white"/>
<path d="M194.943 37.8213C194.943 37.8631 194.929 38.0024 194.915 38.0582L194.539 40.4829C194.511 40.692 194.483 40.8035 194.33 40.8035C194.204 40.8035 194.162 40.7059 194.162 40.6223C194.162 40.5805 194.19 40.4133 194.204 40.3575C194.26 39.9952 194.316 39.4517 194.316 39.2427C194.316 38.1557 193.689 38.1 192.281 38.1C191.989 38.1 191.529 38.1 191.403 38.1279C191.236 38.1697 191.18 38.2533 191.083 38.6435L189.229 46.0431C189.174 46.2522 189.174 46.3358 189.174 46.3358C189.174 46.5588 189.285 46.6006 189.689 46.6424C190.052 46.6702 190.233 46.6702 190.581 46.6702C190.943 46.6702 191.055 46.6702 191.055 46.8235C191.055 47.1022 190.888 47.1022 190.748 47.1022C190.358 47.1022 189.94 47.0744 189.536 47.0744L188.379 47.0604L187.195 47.0744C186.819 47.0744 186.428 47.1022 186.052 47.1022C185.968 47.1022 185.815 47.1022 185.815 46.935C185.815 46.6702 185.899 46.6702 186.4 46.6702C187.892 46.6702 187.933 46.5169 188.059 46.0013L189.926 38.5599C189.94 38.5181 189.982 38.3508 189.982 38.2672C189.982 38.1557 189.982 38.1 189.592 38.1H189.048C186.986 38.1 186.623 38.3508 185.871 40.5108C185.787 40.7338 185.773 40.8035 185.634 40.8035C185.536 40.8035 185.467 40.7338 185.467 40.6502C185.467 40.6502 185.536 40.4272 185.55 40.3993L186.387 37.9467C186.484 37.6819 186.498 37.668 186.832 37.668H194.567C194.803 37.668 194.943 37.668 194.943 37.8213Z" fill="white"/>
<path d="M198.906 47.7836C198.906 47.7836 198.778 48.4043 198.611 48.759C198.453 49.0743 198.226 49.3009 197.881 49.3009C197.448 49.3009 197.083 49.025 196.995 48.5817C196.758 48.8575 196.374 49.3009 195.684 49.3009C195.487 49.3009 195.044 49.2615 194.729 48.9955C194.354 50.5127 194.226 51.025 194.187 51.1137C194.167 51.1433 194.049 51.3206 193.842 51.3206C193.675 51.3206 193.566 51.2024 193.566 51.0546C193.566 51.0546 193.566 51.0152 193.596 50.897L195.014 45.1925C195.103 44.8477 195.379 44.8378 195.409 44.8378C195.576 44.8378 195.694 44.9363 195.694 45.1038C195.694 45.1531 195.596 45.5275 195.546 45.7344L195.133 47.3896C195.064 47.6654 194.995 47.9413 194.995 48.227C194.995 48.759 195.231 49.0841 195.724 49.0841C196.522 49.0841 196.995 48.1876 197.005 48.1383L197.261 47.1334L197.724 45.291C197.803 44.956 198.059 44.9462 198.108 44.9462C198.256 44.9462 198.394 45.0349 198.394 45.2122C198.394 45.2713 198.295 45.6457 198.246 45.8723C198.207 46.0201 198.108 46.3945 198.079 46.5423L197.803 47.6063C197.724 47.9511 197.606 48.4142 197.606 48.6309C197.606 48.828 197.635 49.0841 197.901 49.0841C198.305 49.0841 198.482 48.5029 198.65 47.8625C198.68 47.7245 198.689 47.6851 198.788 47.6851C198.817 47.6851 198.906 47.6851 198.906 47.7836Z" fill="white"/>
<path d="M204.37 45.1038C204.37 45.1925 204.104 46.5324 202.803 47.7442C201.788 48.69 200.714 49.0743 200.025 49.1925H199.887C199.828 49.1925 199.729 49.1827 199.729 49.0743L199.838 48.6309L200.439 46.2171C200.508 45.9511 200.626 45.488 200.626 45.4191C200.626 45.3206 200.606 45.2516 200.133 45.2516C199.985 45.2516 199.897 45.2516 199.897 45.1334C199.897 44.956 200.005 44.9462 200.084 44.9363C200.34 44.9166 201.059 44.8378 201.286 44.8378C201.414 44.8378 201.414 44.9462 201.414 44.9462L200.448 48.8674C201.572 48.5028 203.069 47.3994 203.7 45.1629C203.779 44.8772 204.005 44.8378 204.084 44.8378C204.251 44.8378 204.37 44.9363 204.37 45.1038Z" fill="white"/>
</svg>
