<svg width="257" height="74" viewBox="0 0 257 74" fill="none" xmlns="http://www.w3.org/2000/svg">
<mask id="mask0_19_1758" style="mask-type:alpha" maskUnits="userSpaceOnUse" x="0" y="0" width="257" height="74">
<rect width="257" height="74" fill="#D9D9D9"/>
</mask>
<g mask="url(#mask0_19_1758)">
<rect x="97.4961" y="33.9043" width="47.3843" height="33.3292" rx="4.46972" stroke="white" stroke-width="1.80856"/>
<path d="M105.273 57.183V43.9547L112.507 50.5689L119.328 43.9547V57.183" stroke="white" stroke-width="2.17027" stroke-linecap="round" stroke-linejoin="round"/>
<path d="M133.642 41.6812C133.642 41.0818 133.156 40.596 132.556 40.596C131.957 40.596 131.471 41.0818 131.471 41.6812L133.642 41.6812ZM131.789 58.1571C132.213 58.5809 132.9 58.5809 133.324 58.1571L140.229 51.2513C140.653 50.8276 140.653 50.1405 140.229 49.7167C139.806 49.2929 139.119 49.2929 138.695 49.7167L132.556 55.8552L126.418 49.7167C125.994 49.2929 125.307 49.2929 124.883 49.7167C124.46 50.1405 124.46 50.8276 124.883 51.2513L131.789 58.1571ZM131.471 41.6812L131.471 57.3898L133.642 57.3898L133.642 41.6812L131.471 41.6812Z" fill="white"/>
<rect x="157.54" y="33.9043" width="83.5554" height="33.6392" rx="4.46972" stroke="white" stroke-width="1.80856"/>
<g clip-path="url(#clip0_19_1758)">
<path d="M181.66 51.649C181.66 51.649 181.66 51.7186 181.567 51.9737L179.737 56.9835C179.598 57.3778 179.575 57.3778 179.019 57.3778H168.293C167.876 57.3778 167.667 57.3778 167.667 57.1227C167.667 56.6588 167.899 56.6588 168.293 56.6588C170.123 56.6588 170.169 56.4733 170.401 55.5687L173.505 43.1137C173.575 42.8354 173.598 42.7658 173.598 42.6731C173.598 42.3716 173.389 42.3484 172.972 42.302C172.579 42.2556 172.092 42.2556 172.092 42.2556C171.652 42.2556 171.444 42.2556 171.444 42.0005C171.444 41.5366 171.721 41.5366 171.884 41.5366L174.965 41.6062L178.393 41.5366C178.509 41.5366 178.764 41.5366 178.764 41.8149C178.764 42.2556 178.579 42.2556 177.884 42.2556C175.706 42.2556 175.637 42.5107 175.428 43.3457L172.301 55.8702C172.185 56.2877 172.185 56.3341 172.185 56.4037C172.185 56.5892 172.254 56.6124 172.486 56.6356C172.625 56.6588 172.671 56.6588 172.996 56.6588H175.173C179.181 56.6588 180.2 54.0147 180.988 51.8809C181.15 51.5098 181.173 51.3939 181.382 51.3939C181.59 51.3939 181.66 51.5562 181.66 51.649Z" fill="white"/>
<path d="M186.82 52.1791C186.82 52.5071 186.623 52.5071 186.525 52.5071C186.116 52.5071 185.084 52.4579 184.674 52.4579C184.003 52.4579 183.298 52.5071 182.627 52.5071C182.627 52.5071 182.398 52.5071 182.398 52.3267C182.398 51.9987 182.561 51.9987 182.791 51.9987C183.118 51.9987 183.97 51.9496 183.97 51.4576C183.97 51.2936 183.741 49.0635 183.708 48.7192H179.597C178.483 50.6213 178.467 50.6213 178.352 50.8181C178.221 51.0477 178.123 51.228 178.123 51.4248C178.123 51.8348 178.516 51.966 178.893 51.9987C179.007 51.9987 179.155 52.0151 179.155 52.1955C179.155 52.5071 178.942 52.5071 178.844 52.5071C178.32 52.5071 177.746 52.4579 177.206 52.4579C176.747 52.4579 176.239 52.5071 175.797 52.5071C175.666 52.5071 175.584 52.4251 175.584 52.3267C175.584 52.0151 175.732 52.0151 175.928 51.9987C176.649 51.9496 177.288 51.72 177.943 50.6213L183.642 41.045C183.741 40.881 183.806 40.7662 184.068 40.7662C184.347 40.7662 184.347 40.8318 184.379 41.1598L185.379 51.4084C185.428 51.884 185.428 51.9987 186.443 51.9987C186.656 51.9987 186.82 51.9987 186.82 52.1791ZM183.659 48.2108L183.135 42.7995L179.908 48.2108H183.659Z" fill="white"/>
<path d="M199.659 41.9309C199.659 42.0005 199.636 42.2324 199.613 42.3252L198.988 46.3609C198.941 46.7088 198.895 46.8943 198.64 46.8943C198.432 46.8943 198.362 46.7319 198.362 46.5928C198.362 46.5232 198.408 46.2449 198.432 46.1521C198.524 45.5491 198.617 44.6445 198.617 44.2966C198.617 42.4875 197.574 42.3947 195.235 42.3947C194.748 42.3947 193.984 42.3947 193.775 42.4411C193.497 42.5107 193.405 42.6499 193.242 43.2993L190.161 55.6151C190.069 55.963 190.069 56.1022 190.069 56.1022C190.069 56.4733 190.254 56.5428 190.926 56.6124C191.528 56.6588 191.829 56.6588 192.408 56.6588C193.011 56.6588 193.196 56.6588 193.196 56.9139C193.196 57.3778 192.918 57.3778 192.686 57.3778C192.038 57.3778 191.343 57.3314 190.671 57.3314L188.748 57.3082L186.779 57.3314C186.154 57.3314 185.505 57.3778 184.88 57.3778C184.741 57.3778 184.486 57.3778 184.486 57.0995C184.486 56.6588 184.625 56.6588 185.459 56.6588C187.937 56.6588 188.007 56.4037 188.215 55.5455L191.32 43.1601C191.343 43.0906 191.412 42.8122 191.412 42.6731C191.412 42.4875 191.412 42.3947 190.764 42.3947H189.86C186.432 42.3947 185.829 42.8122 184.578 46.4072C184.439 46.7783 184.416 46.8943 184.185 46.8943C184.022 46.8943 183.907 46.7783 183.907 46.6392C183.907 46.6392 184.022 46.2681 184.046 46.2217L185.436 42.1396C185.598 41.6989 185.621 41.6757 186.177 41.6757H199.034C199.428 41.6757 199.659 41.6757 199.659 41.9309Z" fill="white"/>
<path d="M214.092 47.2423L213.629 51.2548C213.582 51.6954 213.559 51.8346 213.304 51.8346C213.096 51.8346 213.026 51.6723 213.026 51.5563C213.026 51.4403 213.049 51.278 213.049 51.1388C213.142 50.5126 213.142 50.4662 213.142 49.9095C213.142 48.0077 212.447 47.3351 209.621 47.3351H206.354C205.335 47.3351 205.312 47.4278 205.104 48.2396L203.714 53.8293H205.891C208.022 53.8293 208.439 53.2958 208.926 51.5331C208.995 51.2548 209.042 51.1156 209.25 51.1156C209.412 51.1156 209.528 51.2316 209.528 51.3707L208.208 56.798C208.115 57.1459 208.046 57.2619 207.86 57.2619C207.652 57.2619 207.559 57.1227 207.559 57.0068C207.559 56.9372 207.582 56.8676 207.629 56.7517C207.791 56.0558 207.791 55.7775 207.791 55.6152C207.791 55.0353 207.791 54.5483 205.822 54.5483H203.528L201.953 60.8801C201.837 61.2976 201.837 61.344 201.837 61.4136C201.837 61.5991 201.907 61.6223 202.138 61.6455C202.277 61.6687 202.324 61.6687 202.648 61.6687H206.03C209.991 61.6687 210.849 60.1147 212.354 56.6821C212.401 56.5429 212.447 56.4037 212.656 56.4037C212.934 56.4037 212.934 56.6589 212.934 56.6589C212.934 56.6589 212.864 56.8676 212.818 56.9836L210.686 61.9934C210.524 62.3645 210.501 62.3877 209.968 62.3877H197.945C197.505 62.3877 197.297 62.3877 197.297 62.1094C197.297 61.6687 197.551 61.6687 197.945 61.6687C199.775 61.6687 199.822 61.4831 200.053 60.5786L203.111 48.3092C203.227 47.8917 203.227 47.8453 203.227 47.7525C203.227 47.3351 202.578 47.3351 201.721 47.3351C201.281 47.3351 201.073 47.3351 201.073 47.0799C201.073 46.6161 201.304 46.6161 201.768 46.6161H213.466C214.046 46.6161 214.161 46.6161 214.092 47.2423Z" fill="white"/>
<path d="M231.142 41.7917C231.142 42.2324 230.933 42.2324 230.632 42.2556C229.242 42.3252 228.362 42.8818 227.69 43.4385C226.949 44.0879 224.516 46.8479 222.941 48.4715L225.93 55.6383C226.323 56.566 226.37 56.6356 227.922 56.6588C228.107 56.6588 228.339 56.6588 228.339 56.9371C228.339 57.3778 228.061 57.3778 227.899 57.3778C227.319 57.3778 225.906 57.3082 225.327 57.3082L222.408 57.3778C222.316 57.3778 222.061 57.3778 222.061 57.0995C222.061 56.7052 222.269 56.682 222.524 56.6588C223.428 56.566 223.868 56.1717 223.868 55.9862L223.752 55.6615L221.412 50.1182L219.327 52.3912L216.964 54.8961C216.686 55.1976 216.339 55.5687 216.339 55.9398C216.339 56.5892 217.057 56.6356 217.266 56.6588C217.266 56.6588 217.544 56.682 217.544 56.9139C217.544 57.3778 217.266 57.3778 217.127 57.3778C216.293 57.3778 215.389 57.3082 214.532 57.3082C213.814 57.3082 213.049 57.3778 212.354 57.3778C212.053 57.3778 212.053 57.1227 212.053 57.1227C212.053 56.682 212.262 56.682 212.563 56.6588C213.744 56.5892 214.833 56.2181 215.968 54.9889C216.107 54.8729 216.13 54.8497 216.269 54.7337L221.157 49.4688L218.424 42.9978C218.215 42.4875 218.076 42.2556 216.686 42.2556C216.385 42.2556 216.154 42.2556 216.154 42.0005C216.154 41.5366 216.432 41.5366 216.571 41.5366C217.15 41.5366 218.586 41.6062 219.165 41.6062C220.138 41.6062 221.134 41.5366 222.084 41.5366C222.154 41.5366 222.432 41.5366 222.432 41.8149C222.432 42.2092 222.2 42.2324 221.968 42.2556C220.995 42.3484 220.601 42.789 220.601 42.9282L220.717 43.2297L222.663 47.8452L226.416 43.8096C226.601 43.6008 226.856 43.2993 226.856 42.9746C226.856 42.3252 226.138 42.2788 225.93 42.2556C225.767 42.2324 225.652 42.1628 225.652 42.0005C225.652 41.5366 225.953 41.5366 226.092 41.5366C226.926 41.5366 227.806 41.6062 228.663 41.6062C229.381 41.6062 230.146 41.5366 230.841 41.5366C231.142 41.5366 231.142 41.7917 231.142 41.7917Z" fill="white"/>
</g>
<path d="M157.359 50.3622L150.125 46.1855V54.5389L157.359 50.3622ZM145.785 51.0856H150.849V49.6388H145.785V51.0856Z" fill="white"/>
</g>
<defs>
<clipPath id="clip0_19_1758">
<rect width="64.3847" height="24.5964" fill="white" transform="translate(166.764 39.5109)"/>
</clipPath>
</defs>
</svg>
