<svg width="257" height="74" viewBox="0 0 257 74" fill="none" xmlns="http://www.w3.org/2000/svg">
<mask id="mask0_19_1642" style="mask-type:alpha" maskUnits="userSpaceOnUse" x="0" y="0" width="257" height="74">
<rect width="257" height="74" fill="#D9D9D9"/>
</mask>
<g mask="url(#mask0_19_1642)">
<rect x="117.128" y="25.9416" width="44.2056" height="44.2335" rx="7.89883" stroke="white" stroke-width="2.25681"/>
<path d="M116.902 53.7004C125.942 63.8554 129.533 49.638 134.946 49.638C140.359 49.6381 142.84 57.3112 147.576 57.3112C152.313 57.3112 155.245 47.8326 161.993 49.8644" stroke="white" stroke-width="2.25681"/>
<path fill-rule="evenodd" clip-rule="evenodd" d="M128.316 51.6341C128.769 51.1635 129.245 50.6736 129.717 50.2265C129.811 50.1375 129.908 50.0471 130.007 49.956C127.371 44.4818 124.647 36.7234 121.824 26.5427L119.649 27.1459C122.6 37.7868 125.477 45.9276 128.316 51.6341ZM131.995 53.6797C133.231 55.7406 134.421 57.2447 135.557 58.246C136.913 59.4412 138.114 59.8569 139.196 59.7692C140.3 59.6798 141.529 59.0481 142.885 57.6308C142.902 57.6134 142.919 57.5958 142.936 57.5782C143.012 57.637 143.089 57.6949 143.166 57.7515C143.69 58.1348 144.269 58.4911 144.905 58.769C144.776 58.9144 144.646 59.0552 144.516 59.1912C142.946 60.832 141.235 61.8683 139.379 62.0187C137.501 62.1707 135.72 61.3981 134.065 59.9389C132.809 58.8318 131.581 57.2943 130.372 55.3514C130.483 55.2377 130.593 55.1249 130.701 55.0136C130.842 54.8671 130.98 54.7242 131.114 54.5847L131.114 54.5846C131.421 54.266 131.711 53.9651 131.995 53.6797ZM147.43 55.2753C146.876 55.2399 146.287 55.001 145.565 54.4729C145.499 54.4243 145.433 54.3744 145.367 54.323C145.928 53.4154 146.496 52.3923 147.068 51.2513C149.927 45.5553 152.807 37.139 155.733 26.1038L157.914 26.6822C154.976 37.7637 152.049 46.358 149.085 52.2635C148.539 53.3527 147.987 54.3579 147.43 55.2753Z" fill="white"/>
<g clip-path="url(#clip0_19_1642)">
<path d="M194.901 25.9416H222.609C227.175 25.9416 230.872 29.638 230.877 34.2055V61.9125C230.877 66.4783 227.176 70.1751 222.615 70.1751H194.901C190.334 70.1751 186.638 66.4783 186.638 61.9183V34.2043C186.638 29.638 190.335 25.9416 194.901 25.9416Z" stroke="white" stroke-width="2.25681"/>
<path d="M208.557 35.4943L209.499 33.8671C210.08 32.8501 211.376 32.5073 212.393 33.0884C213.41 33.6695 213.753 34.9655 213.171 35.9824L204.1 51.6845H210.661C212.788 51.6845 213.979 54.1834 213.055 55.9151H193.82C192.646 55.9151 191.705 54.9737 191.705 53.7998C191.705 52.6259 192.646 51.6845 193.82 51.6845H199.213L206.117 39.7191L203.961 35.9766C203.379 34.9596 203.722 33.6754 204.739 33.0826C205.756 32.5015 207.041 32.8443 207.633 33.8613L208.557 35.4943ZM200.398 58.0944L198.364 61.6218C197.783 62.6388 196.487 62.9817 195.47 62.4005C194.453 61.8194 194.11 60.5235 194.692 59.5065L196.203 56.8914C197.911 56.3626 199.3 56.7694 200.398 58.0944ZM217.913 51.6961H223.417C224.591 51.6961 225.532 52.6376 225.532 53.8115C225.532 54.9853 224.591 55.9268 223.417 55.9268H220.36L222.423 59.5065C223.004 60.5235 222.661 61.8078 221.644 62.4005C220.627 62.9817 219.343 62.6388 218.75 61.6218C215.275 55.5955 212.666 51.086 210.934 48.0815C209.162 45.0248 210.429 41.9564 211.678 40.9162C213.067 43.2988 215.141 46.896 217.913 51.6961Z" fill="white"/>
</g>
<path d="M169.261 47.8326H178.739" stroke="white" stroke-width="1.80545" stroke-linecap="round"/>
<path d="M174.226 43.3191L174.226 52.7977" stroke="white" stroke-width="1.80545" stroke-linecap="round"/>
</g>
<defs>
<clipPath id="clip0_19_1642">
<rect width="46.4903" height="46.4903" fill="white" transform="translate(185.51 24.8132)"/>
</clipPath>
</defs>
</svg>
